<?xml version="1.0" encoding="UTF-8" standalone="no"?>
<!DOCTYPE svg PUBLIC "-//W3C//DTD SVG 1.1//EN"
 "http://www.w3.org/Graphics/SVG/1.1/DTD/svg11.dtd">
<!-- Generated by graphviz version 2.43.0 (0)
 -->
<!-- Title: snakemake_dag Pages: 1 -->
<svg width="2978pt" height="548pt"
 viewBox="0.00 0.00 2978.14 548.00" xmlns="http://www.w3.org/2000/svg" xmlns:xlink="http://www.w3.org/1999/xlink">
<g id="graph0" class="graph" transform="scale(1 1) rotate(0) translate(4 544)">
<title>snakemake_dag</title>
<polygon fill="white" stroke="transparent" points="-4,4 -4,-544 2974.14,-544 2974.14,4 -4,4"/>
<!-- 0 -->
<g id="node1" class="node">
<title>0</title>
<path fill="none" stroke="#56d892" stroke-width="2" stroke-dasharray="5,2" d="M1539.5,-36C1539.5,-36 1509.5,-36 1509.5,-36 1503.5,-36 1497.5,-30 1497.5,-24 1497.5,-24 1497.5,-12 1497.5,-12 1497.5,-6 1503.5,0 1509.5,0 1509.5,0 1539.5,0 1539.5,0 1545.5,0 1551.5,-6 1551.5,-12 1551.5,-12 1551.5,-24 1551.5,-24 1551.5,-30 1545.5,-36 1539.5,-36"/>
<text text-anchor="middle" x="1524.5" y="-15.5" font-family="sans" font-size="10.00">all</text>
</g>
<!-- 1 -->
<g id="node2" class="node">
<title>1</title>
<path fill="none" stroke="#68d856" stroke-width="2" stroke-dasharray="5,2" d="M77,-108C77,-108 12,-108 12,-108 6,-108 0,-102 0,-96 0,-96 0,-84 0,-84 0,-78 6,-72 12,-72 12,-72 77,-72 77,-72 83,-72 89,-78 89,-84 89,-84 89,-96 89,-96 89,-102 83,-108 77,-108"/>
<text text-anchor="middle" x="44.5" y="-93" font-family="sans" font-size="10.00">years2days</text>
<text text-anchor="middle" x="44.5" y="-82" font-family="sans" font-size="10.00">tree: SLE/SLE.0</text>
</g>
<!-- 1&#45;&gt;0 -->
<g id="edge1" class="edge">
<title>1&#45;&gt;0</title>
<path fill="none" stroke="grey" stroke-width="2" d="M89.1,-73.75C91.92,-73.08 94.74,-72.48 97.5,-72 375.93,-23.13 1290.74,-19.27 1487.15,-19.01"/>
<polygon fill="grey" stroke="grey" stroke-width="2" points="1487.26,-22.51 1497.25,-19 1487.25,-15.51 1487.26,-22.51"/>
</g>
<!-- 2 -->
<g id="node3" class="node">
<title>2</title>
<path fill="none" stroke="#d8cb56" stroke-width="2" stroke-dasharray="5,2" d="M190.5,-180C190.5,-180 160.5,-180 160.5,-180 154.5,-180 148.5,-174 148.5,-168 148.5,-168 148.5,-156 148.5,-156 148.5,-150 154.5,-144 160.5,-144 160.5,-144 190.5,-144 190.5,-144 196.5,-144 202.5,-150 202.5,-156 202.5,-156 202.5,-168 202.5,-168 202.5,-174 196.5,-180 190.5,-180"/>
<text text-anchor="middle" x="175.5" y="-159.5" font-family="sans" font-size="10.00">SLE</text>
</g>
<!-- 2&#45;&gt;1 -->
<g id="edge31" class="edge">
<title>2&#45;&gt;1</title>
<path fill="none" stroke="grey" stroke-width="2" d="M148.36,-146.5C130.29,-136.84 106.21,-123.98 85.79,-113.06"/>
<polygon fill="grey" stroke="grey" stroke-width="2" points="87.16,-109.83 76.7,-108.2 83.87,-116 87.16,-109.83"/>
</g>
<!-- 55 -->
<g id="node56" class="node">
<title>55</title>
<path fill="none" stroke="#567bd8" stroke-width="2" stroke-dasharray="5,2" d="M232,-108C232,-108 119,-108 119,-108 113,-108 107,-102 107,-96 107,-96 107,-84 107,-84 107,-78 113,-72 119,-72 119,-72 232,-72 232,-72 238,-72 244,-78 244,-84 244,-84 244,-96 244,-96 244,-102 238,-108 232,-108"/>
<text text-anchor="middle" x="175.5" y="-87.5" font-family="sans" font-size="10.00">itol_selected_annotation</text>
</g>
<!-- 2&#45;&gt;55 -->
<g id="edge124" class="edge">
<title>2&#45;&gt;55</title>
<path fill="none" stroke="grey" stroke-width="2" d="M175.5,-143.7C175.5,-135.98 175.5,-126.71 175.5,-118.11"/>
<polygon fill="grey" stroke="grey" stroke-width="2" points="179,-118.1 175.5,-108.1 172,-118.1 179,-118.1"/>
</g>
<!-- 3 -->
<g id="node4" class="node">
<title>3</title>
<path fill="none" stroke="#d8a456" stroke-width="2" stroke-dasharray="5,2" d="M361.5,-252C361.5,-252 331.5,-252 331.5,-252 325.5,-252 319.5,-246 319.5,-240 319.5,-240 319.5,-228 319.5,-228 319.5,-222 325.5,-216 331.5,-216 331.5,-216 361.5,-216 361.5,-216 367.5,-216 373.5,-222 373.5,-228 373.5,-228 373.5,-240 373.5,-240 373.5,-246 367.5,-252 361.5,-252"/>
<text text-anchor="middle" x="346.5" y="-237" font-family="sans" font-size="10.00">pastml</text>
<text text-anchor="middle" x="346.5" y="-226" font-family="sans" font-size="10.00">i: 0</text>
</g>
<!-- 3&#45;&gt;2 -->
<g id="edge32" class="edge">
<title>3&#45;&gt;2</title>
<path fill="none" stroke="grey" stroke-width="2" d="M319.4,-221.91C290.47,-210.06 244.45,-191.22 212.26,-178.05"/>
<polygon fill="grey" stroke="grey" stroke-width="2" points="213.33,-174.7 202.75,-174.16 210.68,-181.18 213.33,-174.7"/>
</g>
<!-- 65 -->
<g id="node66" class="node">
<title>65</title>
<path fill="none" stroke="#56d0d8" stroke-width="2" stroke-dasharray="5,2" d="M370,-180C370,-180 323,-180 323,-180 317,-180 311,-174 311,-168 311,-168 311,-156 311,-156 311,-150 317,-144 323,-144 323,-144 370,-144 370,-144 376,-144 382,-150 382,-156 382,-156 382,-168 382,-168 382,-174 376,-180 370,-180"/>
<text text-anchor="middle" x="346.5" y="-159.5" font-family="sans" font-size="10.00">pastml_itol</text>
</g>
<!-- 3&#45;&gt;65 -->
<g id="edge135" class="edge">
<title>3&#45;&gt;65</title>
<path fill="none" stroke="grey" stroke-width="2" d="M346.5,-215.7C346.5,-207.98 346.5,-198.71 346.5,-190.11"/>
<polygon fill="grey" stroke="grey" stroke-width="2" points="350,-190.1 346.5,-180.1 343,-190.1 350,-190.1"/>
</g>
<!-- 4 -->
<g id="node5" class="node">
<title>4</title>
<path fill="none" stroke="#56a9d8" stroke-width="2" stroke-dasharray="5,2" d="M717,-324C717,-324 630,-324 630,-324 624,-324 618,-318 618,-312 618,-312 618,-300 618,-300 618,-294 624,-288 630,-288 630,-288 717,-288 717,-288 723,-288 729,-294 729,-300 729,-300 729,-312 729,-312 729,-318 723,-324 717,-324"/>
<text text-anchor="middle" x="673.5" y="-309" font-family="sans" font-size="10.00">date_lsd2_resolved</text>
<text text-anchor="middle" x="673.5" y="-298" font-family="sans" font-size="10.00">tree: tree.0</text>
</g>
<!-- 4&#45;&gt;3 -->
<g id="edge33" class="edge">
<title>4&#45;&gt;3</title>
<path fill="none" stroke="grey" stroke-width="2" d="M617.66,-293.05C550.86,-278.75 440.9,-255.21 383.69,-242.96"/>
<polygon fill="grey" stroke="grey" stroke-width="2" points="384.15,-239.48 373.64,-240.81 382.69,-246.33 384.15,-239.48"/>
</g>
<!-- 4&#45;&gt;65 -->
<g id="edge134" class="edge">
<title>4&#45;&gt;65</title>
<path fill="none" stroke="grey" stroke-width="2" d="M634.06,-287.87C572.98,-261.35 455.88,-210.5 391.56,-182.57"/>
<polygon fill="grey" stroke="grey" stroke-width="2" points="392.65,-179.23 382.09,-178.45 389.86,-185.65 392.65,-179.23"/>
</g>
<!-- 5 -->
<g id="node6" class="node">
<title>5</title>
<path fill="none" stroke="#d87d56" stroke-width="2" stroke-dasharray="5,2" d="M1148.5,-396C1148.5,-396 1118.5,-396 1118.5,-396 1112.5,-396 1106.5,-390 1106.5,-384 1106.5,-384 1106.5,-372 1106.5,-372 1106.5,-366 1112.5,-360 1118.5,-360 1118.5,-360 1148.5,-360 1148.5,-360 1154.5,-360 1160.5,-366 1160.5,-372 1160.5,-372 1160.5,-384 1160.5,-384 1160.5,-390 1154.5,-396 1148.5,-396"/>
<text text-anchor="middle" x="1133.5" y="-381" font-family="sans" font-size="10.00">resolve</text>
<text text-anchor="middle" x="1133.5" y="-370" font-family="sans" font-size="10.00">i: 0</text>
</g>
<!-- 5&#45;&gt;4 -->
<g id="edge34" class="edge">
<title>5&#45;&gt;4</title>
<path fill="none" stroke="grey" stroke-width="2" d="M1106.42,-374.57C1043.48,-368.67 882.38,-352.1 739.1,-324.2"/>
<polygon fill="grey" stroke="grey" stroke-width="2" points="739.74,-320.75 729.25,-322.25 738.38,-327.62 739.74,-320.75"/>
</g>
<!-- 6 -->
<g id="node7" class="node">
<title>6</title>
<path fill="none" stroke="#b6d856" stroke-width="2" stroke-dasharray="5,2" d="M1570.5,-540C1570.5,-540 1540.5,-540 1540.5,-540 1534.5,-540 1528.5,-534 1528.5,-528 1528.5,-528 1528.5,-516 1528.5,-516 1528.5,-510 1534.5,-504 1540.5,-504 1540.5,-504 1570.5,-504 1570.5,-504 1576.5,-504 1582.5,-510 1582.5,-516 1582.5,-516 1582.5,-528 1582.5,-528 1582.5,-534 1576.5,-540 1570.5,-540"/>
<text text-anchor="middle" x="1555.5" y="-519.5" font-family="sans" font-size="10.00">raxml</text>
</g>
<!-- 6&#45;&gt;5 -->
<g id="edge37" class="edge">
<title>6&#45;&gt;5</title>
<path fill="none" stroke="grey" stroke-width="2" d="M1528.17,-517.03C1483.31,-510.04 1391.66,-493.8 1317.5,-468 1264.05,-449.4 1205.78,-419.44 1169.45,-399.48"/>
<polygon fill="grey" stroke="grey" stroke-width="2" points="1171.14,-396.42 1160.7,-394.64 1167.75,-402.54 1171.14,-396.42"/>
</g>
<!-- 7 -->
<g id="node8" class="node">
<title>7</title>
<path fill="none" stroke="#56d8b9" stroke-width="2" stroke-dasharray="5,2" d="M1585.5,-468C1585.5,-468 1525.5,-468 1525.5,-468 1519.5,-468 1513.5,-462 1513.5,-456 1513.5,-456 1513.5,-444 1513.5,-444 1513.5,-438 1519.5,-432 1525.5,-432 1525.5,-432 1585.5,-432 1585.5,-432 1591.5,-432 1597.5,-438 1597.5,-444 1597.5,-444 1597.5,-456 1597.5,-456 1597.5,-462 1591.5,-468 1585.5,-468"/>
<text text-anchor="middle" x="1555.5" y="-447.5" font-family="sans" font-size="10.00">date_full_tree</text>
</g>
<!-- 6&#45;&gt;7 -->
<g id="edge40" class="edge">
<title>6&#45;&gt;7</title>
<path fill="none" stroke="grey" stroke-width="2" d="M1555.5,-503.7C1555.5,-495.98 1555.5,-486.71 1555.5,-478.11"/>
<polygon fill="grey" stroke="grey" stroke-width="2" points="1559,-478.1 1555.5,-468.1 1552,-478.1 1559,-478.1"/>
</g>
<!-- 14 -->
<g id="node15" class="node">
<title>14</title>
<path fill="none" stroke="#d87d56" stroke-width="2" stroke-dasharray="5,2" d="M1572.5,-396C1572.5,-396 1542.5,-396 1542.5,-396 1536.5,-396 1530.5,-390 1530.5,-384 1530.5,-384 1530.5,-372 1530.5,-372 1530.5,-366 1536.5,-360 1542.5,-360 1542.5,-360 1572.5,-360 1572.5,-360 1578.5,-360 1584.5,-366 1584.5,-372 1584.5,-372 1584.5,-384 1584.5,-384 1584.5,-390 1578.5,-396 1572.5,-396"/>
<text text-anchor="middle" x="1557.5" y="-381" font-family="sans" font-size="10.00">resolve</text>
<text text-anchor="middle" x="1557.5" y="-370" font-family="sans" font-size="10.00">i: 1</text>
</g>
<!-- 6&#45;&gt;14 -->
<g id="edge49" class="edge">
<title>6&#45;&gt;14</title>
<path fill="none" stroke="grey" stroke-width="2" d="M1578.8,-503.82C1589.4,-494.54 1600.82,-482.09 1606.5,-468 1612.48,-453.16 1612.33,-446.9 1606.5,-432 1602.3,-421.28 1594.81,-411.43 1586.92,-403.2"/>
<polygon fill="grey" stroke="grey" stroke-width="2" points="1589.26,-400.59 1579.65,-396.13 1584.38,-405.61 1589.26,-400.59"/>
</g>
<!-- 19 -->
<g id="node20" class="node">
<title>19</title>
<path fill="none" stroke="#d87d56" stroke-width="2" stroke-dasharray="5,2" d="M1647.5,-396C1647.5,-396 1617.5,-396 1617.5,-396 1611.5,-396 1605.5,-390 1605.5,-384 1605.5,-384 1605.5,-372 1605.5,-372 1605.5,-366 1611.5,-360 1617.5,-360 1617.5,-360 1647.5,-360 1647.5,-360 1653.5,-360 1659.5,-366 1659.5,-372 1659.5,-372 1659.5,-384 1659.5,-384 1659.5,-390 1653.5,-396 1647.5,-396"/>
<text text-anchor="middle" x="1632.5" y="-381" font-family="sans" font-size="10.00">resolve</text>
<text text-anchor="middle" x="1632.5" y="-370" font-family="sans" font-size="10.00">i: 2</text>
</g>
<!-- 6&#45;&gt;19 -->
<g id="edge58" class="edge">
<title>6&#45;&gt;19</title>
<path fill="none" stroke="grey" stroke-width="2" d="M1582.55,-507.08C1597.23,-498.02 1614.23,-484.77 1623.5,-468 1633.86,-449.25 1635.67,-424.87 1635.13,-406.37"/>
<polygon fill="grey" stroke="grey" stroke-width="2" points="1638.62,-406.04 1634.59,-396.24 1631.63,-406.41 1638.62,-406.04"/>
</g>
<!-- 24 -->
<g id="node25" class="node">
<title>24</title>
<path fill="none" stroke="#d87d56" stroke-width="2" stroke-dasharray="5,2" d="M1792.5,-396C1792.5,-396 1762.5,-396 1762.5,-396 1756.5,-396 1750.5,-390 1750.5,-384 1750.5,-384 1750.5,-372 1750.5,-372 1750.5,-366 1756.5,-360 1762.5,-360 1762.5,-360 1792.5,-360 1792.5,-360 1798.5,-360 1804.5,-366 1804.5,-372 1804.5,-372 1804.5,-384 1804.5,-384 1804.5,-390 1798.5,-396 1792.5,-396"/>
<text text-anchor="middle" x="1777.5" y="-381" font-family="sans" font-size="10.00">resolve</text>
<text text-anchor="middle" x="1777.5" y="-370" font-family="sans" font-size="10.00">i: 3</text>
</g>
<!-- 6&#45;&gt;24 -->
<g id="edge67" class="edge">
<title>6&#45;&gt;24</title>
<path fill="none" stroke="grey" stroke-width="2" d="M1582.82,-518.14C1634.9,-512.09 1745.33,-496.18 1769.5,-468 1783.81,-451.31 1784.73,-425.81 1782.7,-406.38"/>
<polygon fill="grey" stroke="grey" stroke-width="2" points="1786.14,-405.74 1781.33,-396.31 1779.2,-406.69 1786.14,-405.74"/>
</g>
<!-- 29 -->
<g id="node30" class="node">
<title>29</title>
<path fill="none" stroke="#d87d56" stroke-width="2" stroke-dasharray="5,2" d="M1934.5,-396C1934.5,-396 1904.5,-396 1904.5,-396 1898.5,-396 1892.5,-390 1892.5,-384 1892.5,-384 1892.5,-372 1892.5,-372 1892.5,-366 1898.5,-360 1904.5,-360 1904.5,-360 1934.5,-360 1934.5,-360 1940.5,-360 1946.5,-366 1946.5,-372 1946.5,-372 1946.5,-384 1946.5,-384 1946.5,-390 1940.5,-396 1934.5,-396"/>
<text text-anchor="middle" x="1919.5" y="-381" font-family="sans" font-size="10.00">resolve</text>
<text text-anchor="middle" x="1919.5" y="-370" font-family="sans" font-size="10.00">i: 4</text>
</g>
<!-- 6&#45;&gt;29 -->
<g id="edge76" class="edge">
<title>6&#45;&gt;29</title>
<path fill="none" stroke="grey" stroke-width="2" d="M1582.85,-518.19C1627.63,-512.85 1718.68,-498.91 1789.5,-468 1827.79,-451.29 1866.66,-422.84 1891.8,-402.6"/>
<polygon fill="grey" stroke="grey" stroke-width="2" points="1894.24,-405.12 1899.77,-396.09 1889.81,-399.7 1894.24,-405.12"/>
</g>
<!-- 34 -->
<g id="node35" class="node">
<title>34</title>
<path fill="none" stroke="#d87d56" stroke-width="2" stroke-dasharray="5,2" d="M1335.5,-396C1335.5,-396 1305.5,-396 1305.5,-396 1299.5,-396 1293.5,-390 1293.5,-384 1293.5,-384 1293.5,-372 1293.5,-372 1293.5,-366 1299.5,-360 1305.5,-360 1305.5,-360 1335.5,-360 1335.5,-360 1341.5,-360 1347.5,-366 1347.5,-372 1347.5,-372 1347.5,-384 1347.5,-384 1347.5,-390 1341.5,-396 1335.5,-396"/>
<text text-anchor="middle" x="1320.5" y="-381" font-family="sans" font-size="10.00">resolve</text>
<text text-anchor="middle" x="1320.5" y="-370" font-family="sans" font-size="10.00">i: 5</text>
</g>
<!-- 6&#45;&gt;34 -->
<g id="edge85" class="edge">
<title>6&#45;&gt;34</title>
<path fill="none" stroke="grey" stroke-width="2" d="M1528.09,-508.79C1506.12,-498.68 1474.74,-483.5 1448.5,-468 1413.96,-447.59 1376.5,-420.97 1351.08,-402.18"/>
<polygon fill="grey" stroke="grey" stroke-width="2" points="1353.06,-399.29 1342.95,-396.13 1348.88,-404.91 1353.06,-399.29"/>
</g>
<!-- 39 -->
<g id="node40" class="node">
<title>39</title>
<path fill="none" stroke="#d87d56" stroke-width="2" stroke-dasharray="5,2" d="M1238.5,-396C1238.5,-396 1208.5,-396 1208.5,-396 1202.5,-396 1196.5,-390 1196.5,-384 1196.5,-384 1196.5,-372 1196.5,-372 1196.5,-366 1202.5,-360 1208.5,-360 1208.5,-360 1238.5,-360 1238.5,-360 1244.5,-360 1250.5,-366 1250.5,-372 1250.5,-372 1250.5,-384 1250.5,-384 1250.5,-390 1244.5,-396 1238.5,-396"/>
<text text-anchor="middle" x="1223.5" y="-381" font-family="sans" font-size="10.00">resolve</text>
<text text-anchor="middle" x="1223.5" y="-370" font-family="sans" font-size="10.00">i: 6</text>
</g>
<!-- 6&#45;&gt;39 -->
<g id="edge94" class="edge">
<title>6&#45;&gt;39</title>
<path fill="none" stroke="grey" stroke-width="2" d="M1528.27,-513.78C1495.3,-504.68 1438.35,-487.8 1391.5,-468 1344.53,-448.15 1293.08,-419.85 1259.65,-400.52"/>
<polygon fill="grey" stroke="grey" stroke-width="2" points="1261.12,-397.33 1250.72,-395.33 1257.6,-403.38 1261.12,-397.33"/>
</g>
<!-- 44 -->
<g id="node45" class="node">
<title>44</title>
<path fill="none" stroke="#d87d56" stroke-width="2" stroke-dasharray="5,2" d="M1419.5,-396C1419.5,-396 1389.5,-396 1389.5,-396 1383.5,-396 1377.5,-390 1377.5,-384 1377.5,-384 1377.5,-372 1377.5,-372 1377.5,-366 1383.5,-360 1389.5,-360 1389.5,-360 1419.5,-360 1419.5,-360 1425.5,-360 1431.5,-366 1431.5,-372 1431.5,-372 1431.5,-384 1431.5,-384 1431.5,-390 1425.5,-396 1419.5,-396"/>
<text text-anchor="middle" x="1404.5" y="-381" font-family="sans" font-size="10.00">resolve</text>
<text text-anchor="middle" x="1404.5" y="-370" font-family="sans" font-size="10.00">i: 7</text>
</g>
<!-- 6&#45;&gt;44 -->
<g id="edge103" class="edge">
<title>6&#45;&gt;44</title>
<path fill="none" stroke="grey" stroke-width="2" d="M1531.78,-503.97C1518.37,-493.98 1501.52,-480.83 1487.5,-468 1465.33,-447.71 1442.18,-422.5 1425.98,-404.09"/>
<polygon fill="grey" stroke="grey" stroke-width="2" points="1428.26,-401.39 1419.05,-396.16 1422.99,-405.99 1428.26,-401.39"/>
</g>
<!-- 49 -->
<g id="node50" class="node">
<title>49</title>
<path fill="none" stroke="#d87d56" stroke-width="2" stroke-dasharray="5,2" d="M1720.5,-396C1720.5,-396 1690.5,-396 1690.5,-396 1684.5,-396 1678.5,-390 1678.5,-384 1678.5,-384 1678.5,-372 1678.5,-372 1678.5,-366 1684.5,-360 1690.5,-360 1690.5,-360 1720.5,-360 1720.5,-360 1726.5,-360 1732.5,-366 1732.5,-372 1732.5,-372 1732.5,-384 1732.5,-384 1732.5,-390 1726.5,-396 1720.5,-396"/>
<text text-anchor="middle" x="1705.5" y="-381" font-family="sans" font-size="10.00">resolve</text>
<text text-anchor="middle" x="1705.5" y="-370" font-family="sans" font-size="10.00">i: 8</text>
</g>
<!-- 6&#45;&gt;49 -->
<g id="edge112" class="edge">
<title>6&#45;&gt;49</title>
<path fill="none" stroke="grey" stroke-width="2" d="M1582.54,-517.8C1631.73,-511.36 1732.7,-495.1 1753.5,-468 1769.07,-447.71 1751.38,-421.7 1733.24,-403.04"/>
<polygon fill="grey" stroke="grey" stroke-width="2" points="1735.67,-400.52 1726.07,-396.03 1730.77,-405.53 1735.67,-400.52"/>
</g>
<!-- 54 -->
<g id="node55" class="node">
<title>54</title>
<path fill="none" stroke="#d87d56" stroke-width="2" stroke-dasharray="5,2" d="M1497.5,-396C1497.5,-396 1467.5,-396 1467.5,-396 1461.5,-396 1455.5,-390 1455.5,-384 1455.5,-384 1455.5,-372 1455.5,-372 1455.5,-366 1461.5,-360 1467.5,-360 1467.5,-360 1497.5,-360 1497.5,-360 1503.5,-360 1509.5,-366 1509.5,-372 1509.5,-372 1509.5,-384 1509.5,-384 1509.5,-390 1503.5,-396 1497.5,-396"/>
<text text-anchor="middle" x="1482.5" y="-381" font-family="sans" font-size="10.00">resolve</text>
<text text-anchor="middle" x="1482.5" y="-370" font-family="sans" font-size="10.00">i: 9</text>
</g>
<!-- 6&#45;&gt;54 -->
<g id="edge121" class="edge">
<title>6&#45;&gt;54</title>
<path fill="none" stroke="grey" stroke-width="2" d="M1534.4,-503.85C1523.96,-494.32 1512.03,-481.64 1504.5,-468 1493.89,-448.78 1488.33,-424.43 1485.45,-406.07"/>
<polygon fill="grey" stroke="grey" stroke-width="2" points="1488.9,-405.45 1484.05,-396.03 1481.97,-406.41 1488.9,-405.45"/>
</g>
<!-- 7&#45;&gt;5 -->
<g id="edge38" class="edge">
<title>7&#45;&gt;5</title>
<path fill="none" stroke="grey" stroke-width="2" d="M1513.43,-445.18C1444.64,-438.44 1304.09,-422.56 1187.5,-396 1181.99,-394.74 1176.23,-393.2 1170.61,-391.55"/>
<polygon fill="grey" stroke="grey" stroke-width="2" points="1171.32,-388.1 1160.74,-388.52 1169.27,-394.8 1171.32,-388.1"/>
</g>
<!-- 7&#45;&gt;14 -->
<g id="edge50" class="edge">
<title>7&#45;&gt;14</title>
<path fill="none" stroke="grey" stroke-width="2" d="M1555.99,-431.7C1556.21,-423.98 1556.48,-414.71 1556.73,-406.11"/>
<polygon fill="grey" stroke="grey" stroke-width="2" points="1560.22,-406.2 1557.01,-396.1 1553.23,-406 1560.22,-406.2"/>
</g>
<!-- 7&#45;&gt;19 -->
<g id="edge59" class="edge">
<title>7&#45;&gt;19</title>
<path fill="none" stroke="grey" stroke-width="2" d="M1574.53,-431.7C1584.04,-423.05 1595.71,-412.45 1606.07,-403.03"/>
<polygon fill="grey" stroke="grey" stroke-width="2" points="1608.64,-405.42 1613.69,-396.1 1603.93,-400.24 1608.64,-405.42"/>
</g>
<!-- 7&#45;&gt;24 -->
<g id="edge68" class="edge">
<title>7&#45;&gt;24</title>
<path fill="none" stroke="grey" stroke-width="2" d="M1597.5,-439.12C1633.53,-430.19 1686.87,-415.86 1740.82,-395.97"/>
<polygon fill="grey" stroke="grey" stroke-width="2" points="1742.04,-399.25 1750.18,-392.47 1739.59,-392.69 1742.04,-399.25"/>
</g>
<!-- 7&#45;&gt;29 -->
<g id="edge77" class="edge">
<title>7&#45;&gt;29</title>
<path fill="none" stroke="grey" stroke-width="2" d="M1597.61,-440.9C1669.35,-427.11 1814.09,-399.27 1882.32,-386.15"/>
<polygon fill="grey" stroke="grey" stroke-width="2" points="1883.04,-389.58 1892.2,-384.25 1881.72,-382.7 1883.04,-389.58"/>
</g>
<!-- 7&#45;&gt;34 -->
<g id="edge86" class="edge">
<title>7&#45;&gt;34</title>
<path fill="none" stroke="grey" stroke-width="2" d="M1513.31,-437.87C1475.26,-427.64 1417.86,-411.72 1368.5,-396 1364.77,-394.81 1360.89,-393.53 1357.03,-392.21"/>
<polygon fill="grey" stroke="grey" stroke-width="2" points="1358.15,-388.9 1347.56,-388.93 1355.86,-395.51 1358.15,-388.9"/>
</g>
<!-- 7&#45;&gt;39 -->
<g id="edge95" class="edge">
<title>7&#45;&gt;39</title>
<path fill="none" stroke="grey" stroke-width="2" d="M1513.5,-441.84C1460.04,-432.49 1364.97,-415.05 1284.5,-396 1276.68,-394.15 1268.35,-391.97 1260.44,-389.8"/>
<polygon fill="grey" stroke="grey" stroke-width="2" points="1261.28,-386.4 1250.71,-387.08 1259.4,-393.14 1261.28,-386.4"/>
</g>
<!-- 7&#45;&gt;44 -->
<g id="edge104" class="edge">
<title>7&#45;&gt;44</title>
<path fill="none" stroke="grey" stroke-width="2" d="M1518.56,-431.88C1494.93,-420.92 1464.4,-406.77 1440.87,-395.86"/>
<polygon fill="grey" stroke="grey" stroke-width="2" points="1442.13,-392.59 1431.59,-391.56 1439.19,-398.94 1442.13,-392.59"/>
</g>
<!-- 7&#45;&gt;49 -->
<g id="edge113" class="edge">
<title>7&#45;&gt;49</title>
<path fill="none" stroke="grey" stroke-width="2" d="M1592.19,-431.88C1615.52,-420.99 1645.6,-406.95 1668.91,-396.07"/>
<polygon fill="grey" stroke="grey" stroke-width="2" points="1670.54,-399.18 1678.12,-391.78 1667.58,-392.83 1670.54,-399.18"/>
</g>
<!-- 7&#45;&gt;54 -->
<g id="edge122" class="edge">
<title>7&#45;&gt;54</title>
<path fill="none" stroke="grey" stroke-width="2" d="M1537.46,-431.7C1528.44,-423.05 1517.38,-412.45 1507.56,-403.03"/>
<polygon fill="grey" stroke="grey" stroke-width="2" points="1509.98,-400.5 1500.34,-396.1 1505.13,-405.55 1509.98,-400.5"/>
</g>
<!-- 8 -->
<g id="node9" class="node">
<title>8</title>
<path fill="none" stroke="#8fd856" stroke-width="2" stroke-dasharray="5,2" d="M1203.5,-540C1203.5,-540 1159.5,-540 1159.5,-540 1153.5,-540 1147.5,-534 1147.5,-528 1147.5,-528 1147.5,-516 1147.5,-516 1147.5,-510 1153.5,-504 1159.5,-504 1159.5,-504 1203.5,-504 1203.5,-504 1209.5,-504 1215.5,-510 1215.5,-516 1215.5,-516 1215.5,-528 1215.5,-528 1215.5,-534 1209.5,-540 1203.5,-540"/>
<text text-anchor="middle" x="1181.5" y="-525" font-family="sans" font-size="10.00">aln_length</text>
<text text-anchor="middle" x="1181.5" y="-514" font-family="sans" font-size="10.00">aln: aln</text>
</g>
<!-- 8&#45;&gt;4 -->
<g id="edge35" class="edge">
<title>8&#45;&gt;4</title>
<path fill="none" stroke="grey" stroke-width="2" d="M1147.45,-518.8C1069.49,-513.31 880.42,-497.29 824.5,-468 763.47,-436.04 713.7,-369.58 689.46,-332.83"/>
<polygon fill="grey" stroke="grey" stroke-width="2" points="692.23,-330.66 683.86,-324.16 686.35,-334.46 692.23,-330.66"/>
</g>
<!-- 8&#45;&gt;5 -->
<g id="edge39" class="edge">
<title>8&#45;&gt;5</title>
<path fill="none" stroke="grey" stroke-width="2" d="M1157.75,-503.91C1146.95,-494.65 1135.3,-482.2 1129.5,-468 1121.48,-448.37 1123.2,-424.24 1126.52,-406.06"/>
<polygon fill="grey" stroke="grey" stroke-width="2" points="1129.98,-406.63 1128.6,-396.12 1123.13,-405.19 1129.98,-406.63"/>
</g>
<!-- 8&#45;&gt;7 -->
<g id="edge41" class="edge">
<title>8&#45;&gt;7</title>
<path fill="none" stroke="grey" stroke-width="2" d="M1215.68,-514.6C1281.35,-502.31 1425.5,-475.33 1503.28,-460.77"/>
<polygon fill="grey" stroke="grey" stroke-width="2" points="1504.16,-464.17 1513.34,-458.89 1502.87,-457.29 1504.16,-464.17"/>
</g>
<!-- 13 -->
<g id="node14" class="node">
<title>13</title>
<path fill="none" stroke="#56a9d8" stroke-width="2" stroke-dasharray="5,2" d="M1701,-324C1701,-324 1614,-324 1614,-324 1608,-324 1602,-318 1602,-312 1602,-312 1602,-300 1602,-300 1602,-294 1608,-288 1614,-288 1614,-288 1701,-288 1701,-288 1707,-288 1713,-294 1713,-300 1713,-300 1713,-312 1713,-312 1713,-318 1707,-324 1701,-324"/>
<text text-anchor="middle" x="1657.5" y="-309" font-family="sans" font-size="10.00">date_lsd2_resolved</text>
<text text-anchor="middle" x="1657.5" y="-298" font-family="sans" font-size="10.00">tree: tree.1</text>
</g>
<!-- 8&#45;&gt;13 -->
<g id="edge47" class="edge">
<title>8&#45;&gt;13</title>
<path fill="none" stroke="grey" stroke-width="2" d="M1147.48,-517.16C1095,-510.44 998.15,-494.7 977.5,-468 948.13,-430.03 944.66,-395 977.5,-360 1020.54,-314.13 1479.94,-330.61 1542.5,-324 1558.39,-322.32 1575.45,-320.06 1591.43,-317.73"/>
<polygon fill="grey" stroke="grey" stroke-width="2" points="1592.38,-321.12 1601.76,-316.19 1591.35,-314.2 1592.38,-321.12"/>
</g>
<!-- 8&#45;&gt;14 -->
<g id="edge51" class="edge">
<title>8&#45;&gt;14</title>
<path fill="none" stroke="grey" stroke-width="2" d="M1215.7,-509.03C1276.86,-487.46 1408.82,-440.21 1518.5,-396 1519.34,-395.66 1520.19,-395.32 1521.04,-394.97"/>
<polygon fill="grey" stroke="grey" stroke-width="2" points="1522.44,-398.18 1530.31,-391.08 1519.73,-391.72 1522.44,-398.18"/>
</g>
<!-- 18 -->
<g id="node19" class="node">
<title>18</title>
<path fill="none" stroke="#56a9d8" stroke-width="2" stroke-dasharray="5,2" d="M1987,-324C1987,-324 1900,-324 1900,-324 1894,-324 1888,-318 1888,-312 1888,-312 1888,-300 1888,-300 1888,-294 1894,-288 1900,-288 1900,-288 1987,-288 1987,-288 1993,-288 1999,-294 1999,-300 1999,-300 1999,-312 1999,-312 1999,-318 1993,-324 1987,-324"/>
<text text-anchor="middle" x="1943.5" y="-309" font-family="sans" font-size="10.00">date_lsd2_resolved</text>
<text text-anchor="middle" x="1943.5" y="-298" font-family="sans" font-size="10.00">tree: tree.2</text>
</g>
<!-- 8&#45;&gt;18 -->
<g id="edge56" class="edge">
<title>8&#45;&gt;18</title>
<path fill="none" stroke="grey" stroke-width="2" d="M1147.46,-521.1C1108.34,-519.16 1045.66,-509.29 1015.5,-468 987.19,-429.24 982.43,-394.79 1015.5,-360 1042.59,-331.49 1683.25,-326.51 1722.5,-324 1774.69,-320.66 1833.76,-316.08 1877.69,-312.51"/>
<polygon fill="grey" stroke="grey" stroke-width="2" points="1877.99,-316 1887.67,-311.7 1877.42,-309.02 1877.99,-316"/>
</g>
<!-- 8&#45;&gt;19 -->
<g id="edge60" class="edge">
<title>8&#45;&gt;19</title>
<path fill="none" stroke="grey" stroke-width="2" d="M1215.81,-521.4C1306.19,-521.75 1547.9,-517.89 1606.5,-468 1624.27,-452.87 1630.25,-426.34 1632.1,-406.17"/>
<polygon fill="grey" stroke="grey" stroke-width="2" points="1635.6,-406.22 1632.74,-396.02 1628.61,-405.78 1635.6,-406.22"/>
</g>
<!-- 23 -->
<g id="node24" class="node">
<title>23</title>
<path fill="none" stroke="#56a9d8" stroke-width="2" stroke-dasharray="5,2" d="M2351,-324C2351,-324 2264,-324 2264,-324 2258,-324 2252,-318 2252,-312 2252,-312 2252,-300 2252,-300 2252,-294 2258,-288 2264,-288 2264,-288 2351,-288 2351,-288 2357,-288 2363,-294 2363,-300 2363,-300 2363,-312 2363,-312 2363,-318 2357,-324 2351,-324"/>
<text text-anchor="middle" x="2307.5" y="-309" font-family="sans" font-size="10.00">date_lsd2_resolved</text>
<text text-anchor="middle" x="2307.5" y="-298" font-family="sans" font-size="10.00">tree: tree.3</text>
</g>
<!-- 8&#45;&gt;23 -->
<g id="edge65" class="edge">
<title>8&#45;&gt;23</title>
<path fill="none" stroke="grey" stroke-width="2" d="M1155.98,-503.92C1143.74,-494.58 1129.76,-482.06 1120.5,-468 1093.51,-427.01 1063.35,-395.24 1097.5,-360 1141.71,-314.37 2177.59,-332.86 2240.5,-324 2240.96,-323.94 2241.42,-323.87 2241.89,-323.8"/>
<polygon fill="grey" stroke="grey" stroke-width="2" points="2242.48,-327.25 2251.75,-322.11 2241.3,-320.35 2242.48,-327.25"/>
</g>
<!-- 8&#45;&gt;24 -->
<g id="edge69" class="edge">
<title>8&#45;&gt;24</title>
<path fill="none" stroke="grey" stroke-width="2" d="M1215.77,-519.69C1311.96,-515.61 1582.81,-501.41 1664.5,-468 1699.91,-453.52 1733.4,-424.5 1754.59,-403.53"/>
<polygon fill="grey" stroke="grey" stroke-width="2" points="1757.29,-405.78 1761.83,-396.21 1752.31,-400.86 1757.29,-405.78"/>
</g>
<!-- 28 -->
<g id="node29" class="node">
<title>28</title>
<path fill="none" stroke="#56a9d8" stroke-width="2" stroke-dasharray="5,2" d="M2480,-324C2480,-324 2393,-324 2393,-324 2387,-324 2381,-318 2381,-312 2381,-312 2381,-300 2381,-300 2381,-294 2387,-288 2393,-288 2393,-288 2480,-288 2480,-288 2486,-288 2492,-294 2492,-300 2492,-300 2492,-312 2492,-312 2492,-318 2486,-324 2480,-324"/>
<text text-anchor="middle" x="2436.5" y="-309" font-family="sans" font-size="10.00">date_lsd2_resolved</text>
<text text-anchor="middle" x="2436.5" y="-298" font-family="sans" font-size="10.00">tree: tree.4</text>
</g>
<!-- 8&#45;&gt;28 -->
<g id="edge74" class="edge">
<title>8&#45;&gt;28</title>
<path fill="none" stroke="grey" stroke-width="2" d="M1215.61,-519.53C1316.94,-514.87 1614.78,-498.83 1706.5,-468 1793.85,-438.64 1795.76,-388.17 1883.5,-360 2087.85,-294.39 2155.55,-358.14 2370.76,-324.09"/>
<polygon fill="grey" stroke="grey" stroke-width="2" points="2371.48,-327.52 2380.79,-322.45 2370.35,-320.61 2371.48,-327.52"/>
</g>
<!-- 8&#45;&gt;29 -->
<g id="edge78" class="edge">
<title>8&#45;&gt;29</title>
<path fill="none" stroke="grey" stroke-width="2" d="M1215.53,-519.58C1341.03,-514.15 1773.47,-493.74 1829.5,-468 1833.66,-466.09 1870.5,-428.99 1895.74,-403.3"/>
<polygon fill="grey" stroke="grey" stroke-width="2" points="1898.33,-405.66 1902.83,-396.07 1893.33,-400.76 1898.33,-405.66"/>
</g>
<!-- 33 -->
<g id="node34" class="node">
<title>33</title>
<path fill="none" stroke="#56a9d8" stroke-width="2" stroke-dasharray="5,2" d="M979,-324C979,-324 892,-324 892,-324 886,-324 880,-318 880,-312 880,-312 880,-300 880,-300 880,-294 886,-288 892,-288 892,-288 979,-288 979,-288 985,-288 991,-294 991,-300 991,-300 991,-312 991,-312 991,-318 985,-324 979,-324"/>
<text text-anchor="middle" x="935.5" y="-309" font-family="sans" font-size="10.00">date_lsd2_resolved</text>
<text text-anchor="middle" x="935.5" y="-298" font-family="sans" font-size="10.00">tree: tree.5</text>
</g>
<!-- 8&#45;&gt;33 -->
<g id="edge83" class="edge">
<title>8&#45;&gt;33</title>
<path fill="none" stroke="grey" stroke-width="2" d="M1147.29,-520.33C1075.23,-518.12 911.67,-508.65 877.5,-468 846.61,-431.26 858.14,-403.92 877.5,-360 882.49,-348.69 891.21,-338.74 900.4,-330.62"/>
<polygon fill="grey" stroke="grey" stroke-width="2" points="902.67,-333.28 908.16,-324.23 898.22,-327.88 902.67,-333.28"/>
</g>
<!-- 8&#45;&gt;34 -->
<g id="edge87" class="edge">
<title>8&#45;&gt;34</title>
<path fill="none" stroke="grey" stroke-width="2" d="M1190.88,-503.91C1201.85,-484.92 1221.33,-454.04 1243.5,-432 1255.68,-419.89 1270.94,-408.74 1284.67,-399.82"/>
<polygon fill="grey" stroke="grey" stroke-width="2" points="1286.83,-402.59 1293.41,-394.29 1283.09,-396.67 1286.83,-402.59"/>
</g>
<!-- 38 -->
<g id="node39" class="node">
<title>38</title>
<path fill="none" stroke="#56a9d8" stroke-width="2" stroke-dasharray="5,2" d="M846,-324C846,-324 759,-324 759,-324 753,-324 747,-318 747,-312 747,-312 747,-300 747,-300 747,-294 753,-288 759,-288 759,-288 846,-288 846,-288 852,-288 858,-294 858,-300 858,-300 858,-312 858,-312 858,-318 852,-324 846,-324"/>
<text text-anchor="middle" x="802.5" y="-309" font-family="sans" font-size="10.00">date_lsd2_resolved</text>
<text text-anchor="middle" x="802.5" y="-298" font-family="sans" font-size="10.00">tree: tree.6</text>
</g>
<!-- 8&#45;&gt;38 -->
<g id="edge92" class="edge">
<title>8&#45;&gt;38</title>
<path fill="none" stroke="grey" stroke-width="2" d="M1147.23,-519.82C1072.68,-516.59 898.99,-505.15 855.5,-468 816.16,-434.4 805.86,-371.01 803.26,-334.6"/>
<polygon fill="grey" stroke="grey" stroke-width="2" points="806.74,-334.02 802.68,-324.23 799.75,-334.41 806.74,-334.02"/>
</g>
<!-- 8&#45;&gt;39 -->
<g id="edge96" class="edge">
<title>8&#45;&gt;39</title>
<path fill="none" stroke="grey" stroke-width="2" d="M1185.78,-503.85C1190.35,-485.85 1197.95,-456.8 1205.5,-432 1208.11,-423.41 1211.19,-414.11 1214.05,-405.74"/>
<polygon fill="grey" stroke="grey" stroke-width="2" points="1217.42,-406.69 1217.38,-396.1 1210.81,-404.4 1217.42,-406.69"/>
</g>
<!-- 43 -->
<g id="node44" class="node">
<title>43</title>
<path fill="none" stroke="#56a9d8" stroke-width="2" stroke-dasharray="5,2" d="M1250,-324C1250,-324 1163,-324 1163,-324 1157,-324 1151,-318 1151,-312 1151,-312 1151,-300 1151,-300 1151,-294 1157,-288 1163,-288 1163,-288 1250,-288 1250,-288 1256,-288 1262,-294 1262,-300 1262,-300 1262,-312 1262,-312 1262,-318 1256,-324 1250,-324"/>
<text text-anchor="middle" x="1206.5" y="-309" font-family="sans" font-size="10.00">date_lsd2_resolved</text>
<text text-anchor="middle" x="1206.5" y="-298" font-family="sans" font-size="10.00">tree: tree.7</text>
</g>
<!-- 8&#45;&gt;43 -->
<g id="edge101" class="edge">
<title>8&#45;&gt;43</title>
<path fill="none" stroke="grey" stroke-width="2" d="M1147.41,-519.77C1079.75,-516.54 932.39,-505.29 901.5,-468 870.88,-431.04 870.6,-396.73 901.5,-360 916.75,-341.87 1055.7,-323.57 1140.7,-313.94"/>
<polygon fill="grey" stroke="grey" stroke-width="2" points="1141.24,-317.4 1150.79,-312.8 1140.46,-310.44 1141.24,-317.4"/>
</g>
<!-- 8&#45;&gt;44 -->
<g id="edge105" class="edge">
<title>8&#45;&gt;44</title>
<path fill="none" stroke="grey" stroke-width="2" d="M1202.11,-503.83C1214.29,-493.58 1229.92,-480.22 1243.5,-468 1260.79,-452.44 1262.07,-444.8 1281.5,-432 1296.35,-422.22 1337.36,-405.2 1367.97,-393.09"/>
<polygon fill="grey" stroke="grey" stroke-width="2" points="1369.47,-396.27 1377.5,-389.35 1366.91,-389.75 1369.47,-396.27"/>
</g>
<!-- 48 -->
<g id="node49" class="node">
<title>48</title>
<path fill="none" stroke="#56a9d8" stroke-width="2" stroke-dasharray="5,2" d="M2219,-324C2219,-324 2132,-324 2132,-324 2126,-324 2120,-318 2120,-312 2120,-312 2120,-300 2120,-300 2120,-294 2126,-288 2132,-288 2132,-288 2219,-288 2219,-288 2225,-288 2231,-294 2231,-300 2231,-300 2231,-312 2231,-312 2231,-318 2225,-324 2219,-324"/>
<text text-anchor="middle" x="2175.5" y="-309" font-family="sans" font-size="10.00">date_lsd2_resolved</text>
<text text-anchor="middle" x="2175.5" y="-298" font-family="sans" font-size="10.00">tree: tree.8</text>
</g>
<!-- 8&#45;&gt;48 -->
<g id="edge110" class="edge">
<title>8&#45;&gt;48</title>
<path fill="none" stroke="grey" stroke-width="2" d="M1147.42,-517.29C1117.04,-511.97 1074.28,-499.1 1053.5,-468 1026.83,-428.09 1020.2,-394.57 1053.5,-360 1090.33,-321.76 1955.54,-327.69 2008.5,-324 2041.93,-321.67 2079.03,-318 2109.75,-314.67"/>
<polygon fill="grey" stroke="grey" stroke-width="2" points="2110.35,-318.13 2119.91,-313.56 2109.59,-311.17 2110.35,-318.13"/>
</g>
<!-- 8&#45;&gt;49 -->
<g id="edge114" class="edge">
<title>8&#45;&gt;49</title>
<path fill="none" stroke="grey" stroke-width="2" d="M1215.78,-520.22C1308.07,-517.6 1559.68,-506.97 1631.5,-468 1657.96,-453.64 1678.8,-425.6 1691.53,-404.82"/>
<polygon fill="grey" stroke="grey" stroke-width="2" points="1694.58,-406.53 1696.64,-396.13 1688.55,-402.98 1694.58,-406.53"/>
</g>
<!-- 53 -->
<g id="node54" class="node">
<title>53</title>
<path fill="none" stroke="#56a9d8" stroke-width="2" stroke-dasharray="5,2" d="M1522,-324C1522,-324 1435,-324 1435,-324 1429,-324 1423,-318 1423,-312 1423,-312 1423,-300 1423,-300 1423,-294 1429,-288 1435,-288 1435,-288 1522,-288 1522,-288 1528,-288 1534,-294 1534,-300 1534,-300 1534,-312 1534,-312 1534,-318 1528,-324 1522,-324"/>
<text text-anchor="middle" x="1478.5" y="-309" font-family="sans" font-size="10.00">date_lsd2_resolved</text>
<text text-anchor="middle" x="1478.5" y="-298" font-family="sans" font-size="10.00">tree: tree.9</text>
</g>
<!-- 8&#45;&gt;53 -->
<g id="edge119" class="edge">
<title>8&#45;&gt;53</title>
<path fill="none" stroke="grey" stroke-width="2" d="M1147.12,-518.63C1086.65,-513.68 965.18,-499.92 939.5,-468 909.41,-430.6 907.26,-395.56 939.5,-360 947.37,-351.31 1270.34,-323.98 1412.49,-312.33"/>
<polygon fill="grey" stroke="grey" stroke-width="2" points="1413.13,-315.79 1422.82,-311.49 1412.56,-308.82 1413.13,-315.79"/>
</g>
<!-- 8&#45;&gt;54 -->
<g id="edge123" class="edge">
<title>8&#45;&gt;54</title>
<path fill="none" stroke="grey" stroke-width="2" d="M1215.84,-503.85C1234.32,-494.13 1257.21,-481.28 1276.5,-468 1297.03,-453.87 1297.54,-443.8 1319.5,-432 1368.92,-405.44 1387.55,-414.55 1440.5,-396 1442.13,-395.43 1443.8,-394.83 1445.47,-394.21"/>
<polygon fill="grey" stroke="grey" stroke-width="2" points="1446.99,-397.38 1455.08,-390.54 1444.49,-390.84 1446.99,-397.38"/>
</g>
<!-- 9 -->
<g id="node10" class="node">
<title>9</title>
<path fill="none" stroke="#d85656" stroke-width="2" stroke-dasharray="5,2" d="M2200,-540C2200,-540 2115,-540 2115,-540 2109,-540 2103,-534 2103,-528 2103,-528 2103,-516 2103,-516 2103,-510 2109,-504 2115,-504 2115,-504 2200,-504 2200,-504 2206,-504 2212,-510 2212,-516 2212,-516 2212,-528 2212,-528 2212,-534 2206,-540 2200,-540"/>
<text text-anchor="middle" x="2157.5" y="-519.5" font-family="sans" font-size="10.00">extract_dates_lsd2</text>
</g>
<!-- 9&#45;&gt;4 -->
<g id="edge36" class="edge">
<title>9&#45;&gt;4</title>
<path fill="none" stroke="grey" stroke-width="2" d="M2129.44,-503.77C2113.79,-493.82 2094.15,-480.79 2077.5,-468 2020.06,-423.9 2022.83,-386.66 1955.5,-360 1832.26,-311.19 911.35,-342.14 739.22,-323.85"/>
<polygon fill="grey" stroke="grey" stroke-width="2" points="739.55,-320.36 729.19,-322.6 738.68,-327.31 739.55,-320.36"/>
</g>
<!-- 9&#45;&gt;7 -->
<g id="edge42" class="edge">
<title>9&#45;&gt;7</title>
<path fill="none" stroke="grey" stroke-width="2" d="M2102.75,-514.63C1987.51,-501.23 1721.25,-470.27 1608,-457.11"/>
<polygon fill="grey" stroke="grey" stroke-width="2" points="1608.19,-453.6 1597.85,-455.92 1607.38,-460.56 1608.19,-453.6"/>
</g>
<!-- 9&#45;&gt;13 -->
<g id="edge48" class="edge">
<title>9&#45;&gt;13</title>
<path fill="none" stroke="grey" stroke-width="2" d="M2166.22,-503.85C2181.4,-471.3 2207.77,-400.21 2171.5,-360 2164.06,-351.75 1860.38,-324.54 1723.37,-312.64"/>
<polygon fill="grey" stroke="grey" stroke-width="2" points="1723.27,-309.12 1713,-311.75 1722.67,-316.1 1723.27,-309.12"/>
</g>
<!-- 9&#45;&gt;18 -->
<g id="edge57" class="edge">
<title>9&#45;&gt;18</title>
<path fill="none" stroke="grey" stroke-width="2" d="M2181.25,-503.91C2192.05,-494.65 2203.7,-482.2 2209.5,-468 2227.66,-423.57 2239.94,-397.11 2209.5,-360 2196.82,-344.55 2083.98,-326.28 2009.4,-315.73"/>
<polygon fill="grey" stroke="grey" stroke-width="2" points="2009.53,-312.22 1999.14,-314.29 2008.56,-319.15 2009.53,-312.22"/>
</g>
<!-- 9&#45;&gt;23 -->
<g id="edge66" class="edge">
<title>9&#45;&gt;23</title>
<path fill="none" stroke="grey" stroke-width="2" d="M2212.19,-505.96C2232.56,-497.8 2254.17,-485.66 2268.5,-468 2299.89,-429.3 2306.65,-369.24 2307.75,-334.46"/>
<polygon fill="grey" stroke="grey" stroke-width="2" points="2311.25,-334.17 2307.93,-324.12 2304.25,-334.05 2311.25,-334.17"/>
</g>
<!-- 9&#45;&gt;28 -->
<g id="edge75" class="edge">
<title>9&#45;&gt;28</title>
<path fill="none" stroke="grey" stroke-width="2" d="M2212.29,-505.97C2238.04,-497.33 2268.31,-484.82 2292.5,-468 2347,-430.11 2394.97,-367.65 2419.39,-332.71"/>
<polygon fill="grey" stroke="grey" stroke-width="2" points="2422.29,-334.67 2425.08,-324.45 2416.53,-330.7 2422.29,-334.67"/>
</g>
<!-- 9&#45;&gt;33 -->
<g id="edge84" class="edge">
<title>9&#45;&gt;33</title>
<path fill="none" stroke="grey" stroke-width="2" d="M2149.46,-503.92C2131.2,-465.95 2086.01,-376.59 2057.5,-360 1969.47,-308.76 1243.17,-330.19 1141.5,-324 1094.61,-321.15 1041.81,-316.76 1001.4,-313.17"/>
<polygon fill="grey" stroke="grey" stroke-width="2" points="1001.68,-309.68 991.41,-312.27 1001.06,-316.65 1001.68,-309.68"/>
</g>
<!-- 9&#45;&gt;38 -->
<g id="edge93" class="edge">
<title>9&#45;&gt;38</title>
<path fill="none" stroke="grey" stroke-width="2" d="M2140.51,-503.63C2130.68,-493.42 2118.18,-480.17 2107.5,-468 2087.09,-444.73 2047.25,-373.72 2019.5,-360 1905,-303.39 997.01,-341.59 870.5,-324 869.75,-323.9 869,-323.79 868.25,-323.67"/>
<polygon fill="grey" stroke="grey" stroke-width="2" points="868.8,-320.22 858.35,-321.97 867.61,-327.11 868.8,-320.22"/>
</g>
<!-- 9&#45;&gt;43 -->
<g id="edge102" class="edge">
<title>9&#45;&gt;43</title>
<path fill="none" stroke="grey" stroke-width="2" d="M2156.67,-503.78C2154,-469.77 2142.76,-394.31 2095.5,-360 2034.09,-315.42 1489.21,-329.11 1413.5,-324 1366.24,-320.81 1312.97,-316.42 1272.31,-312.9"/>
<polygon fill="grey" stroke="grey" stroke-width="2" points="1272.52,-309.4 1262.26,-312.02 1271.91,-316.38 1272.52,-309.4"/>
</g>
<!-- 9&#45;&gt;48 -->
<g id="edge111" class="edge">
<title>9&#45;&gt;48</title>
<path fill="none" stroke="grey" stroke-width="2" d="M2206.06,-503.97C2222.17,-495.73 2238.32,-484.06 2247.5,-468 2271.32,-426.33 2269.16,-402.84 2247.5,-360 2241.36,-347.86 2230.98,-337.82 2219.99,-329.86"/>
<polygon fill="grey" stroke="grey" stroke-width="2" points="2221.78,-326.85 2211.53,-324.19 2217.88,-332.66 2221.78,-326.85"/>
</g>
<!-- 9&#45;&gt;53 -->
<g id="edge120" class="edge">
<title>9&#45;&gt;53</title>
<path fill="none" stroke="grey" stroke-width="2" d="M2161.05,-503.78C2166.81,-470.46 2173.81,-397.16 2133.5,-360 2089.28,-319.24 1653.29,-330.4 1593.5,-324 1577.61,-322.3 1560.56,-320.02 1544.57,-317.69"/>
<polygon fill="grey" stroke="grey" stroke-width="2" points="1544.65,-314.17 1534.25,-316.16 1543.62,-321.09 1544.65,-314.17"/>
</g>
<!-- 10 -->
<g id="node11" class="node">
<title>10</title>
<path fill="none" stroke="#68d856" stroke-width="2" stroke-dasharray="5,2" d="M1737,-108C1737,-108 1672,-108 1672,-108 1666,-108 1660,-102 1660,-96 1660,-96 1660,-84 1660,-84 1660,-78 1666,-72 1672,-72 1672,-72 1737,-72 1737,-72 1743,-72 1749,-78 1749,-84 1749,-84 1749,-96 1749,-96 1749,-102 1743,-108 1737,-108"/>
<text text-anchor="middle" x="1704.5" y="-93" font-family="sans" font-size="10.00">years2days</text>
<text text-anchor="middle" x="1704.5" y="-82" font-family="sans" font-size="10.00">tree: SLE/SLE.1</text>
</g>
<!-- 10&#45;&gt;0 -->
<g id="edge2" class="edge">
<title>10&#45;&gt;0</title>
<path fill="none" stroke="grey" stroke-width="2" d="M1660.47,-71.88C1630.02,-60.04 1589.99,-44.47 1561.25,-33.29"/>
<polygon fill="grey" stroke="grey" stroke-width="2" points="1562.18,-29.9 1551.6,-29.54 1559.65,-36.42 1562.18,-29.9"/>
</g>
<!-- 11 -->
<g id="node12" class="node">
<title>11</title>
<path fill="none" stroke="#d8cb56" stroke-width="2" stroke-dasharray="5,2" d="M1666.5,-180C1666.5,-180 1636.5,-180 1636.5,-180 1630.5,-180 1624.5,-174 1624.5,-168 1624.5,-168 1624.5,-156 1624.5,-156 1624.5,-150 1630.5,-144 1636.5,-144 1636.5,-144 1666.5,-144 1666.5,-144 1672.5,-144 1678.5,-150 1678.5,-156 1678.5,-156 1678.5,-168 1678.5,-168 1678.5,-174 1672.5,-180 1666.5,-180"/>
<text text-anchor="middle" x="1651.5" y="-159.5" font-family="sans" font-size="10.00">SLE</text>
</g>
<!-- 11&#45;&gt;10 -->
<g id="edge43" class="edge">
<title>11&#45;&gt;10</title>
<path fill="none" stroke="grey" stroke-width="2" d="M1664.6,-143.7C1670.89,-135.39 1678.55,-125.28 1685.46,-116.14"/>
<polygon fill="grey" stroke="grey" stroke-width="2" points="1688.3,-118.19 1691.55,-108.1 1682.72,-113.96 1688.3,-118.19"/>
</g>
<!-- 56 -->
<g id="node57" class="node">
<title>56</title>
<path fill="none" stroke="#567bd8" stroke-width="2" stroke-dasharray="5,2" d="M1630,-108C1630,-108 1517,-108 1517,-108 1511,-108 1505,-102 1505,-96 1505,-96 1505,-84 1505,-84 1505,-78 1511,-72 1517,-72 1517,-72 1630,-72 1630,-72 1636,-72 1642,-78 1642,-84 1642,-84 1642,-96 1642,-96 1642,-102 1636,-108 1630,-108"/>
<text text-anchor="middle" x="1573.5" y="-87.5" font-family="sans" font-size="10.00">itol_selected_annotation</text>
</g>
<!-- 11&#45;&gt;56 -->
<g id="edge125" class="edge">
<title>11&#45;&gt;56</title>
<path fill="none" stroke="grey" stroke-width="2" d="M1632.22,-143.7C1622.58,-135.05 1610.77,-124.45 1600.27,-115.03"/>
<polygon fill="grey" stroke="grey" stroke-width="2" points="1602.34,-112.18 1592.56,-108.1 1597.66,-117.39 1602.34,-112.18"/>
</g>
<!-- 12 -->
<g id="node13" class="node">
<title>12</title>
<path fill="none" stroke="#d8a456" stroke-width="2" stroke-dasharray="5,2" d="M1672.5,-252C1672.5,-252 1642.5,-252 1642.5,-252 1636.5,-252 1630.5,-246 1630.5,-240 1630.5,-240 1630.5,-228 1630.5,-228 1630.5,-222 1636.5,-216 1642.5,-216 1642.5,-216 1672.5,-216 1672.5,-216 1678.5,-216 1684.5,-222 1684.5,-228 1684.5,-228 1684.5,-240 1684.5,-240 1684.5,-246 1678.5,-252 1672.5,-252"/>
<text text-anchor="middle" x="1657.5" y="-237" font-family="sans" font-size="10.00">pastml</text>
<text text-anchor="middle" x="1657.5" y="-226" font-family="sans" font-size="10.00">i: 1</text>
</g>
<!-- 12&#45;&gt;11 -->
<g id="edge44" class="edge">
<title>12&#45;&gt;11</title>
<path fill="none" stroke="grey" stroke-width="2" d="M1656.02,-215.7C1655.36,-207.98 1654.56,-198.71 1653.82,-190.11"/>
<polygon fill="grey" stroke="grey" stroke-width="2" points="1657.31,-189.77 1652.97,-180.1 1650.33,-190.37 1657.31,-189.77"/>
</g>
<!-- 66 -->
<g id="node67" class="node">
<title>66</title>
<path fill="none" stroke="#56d0d8" stroke-width="2" stroke-dasharray="5,2" d="M1756,-180C1756,-180 1709,-180 1709,-180 1703,-180 1697,-174 1697,-168 1697,-168 1697,-156 1697,-156 1697,-150 1703,-144 1709,-144 1709,-144 1756,-144 1756,-144 1762,-144 1768,-150 1768,-156 1768,-156 1768,-168 1768,-168 1768,-174 1762,-180 1756,-180"/>
<text text-anchor="middle" x="1732.5" y="-159.5" font-family="sans" font-size="10.00">pastml_itol</text>
</g>
<!-- 12&#45;&gt;66 -->
<g id="edge137" class="edge">
<title>12&#45;&gt;66</title>
<path fill="none" stroke="grey" stroke-width="2" d="M1676.04,-215.7C1685.3,-207.05 1696.66,-196.45 1706.76,-187.03"/>
<polygon fill="grey" stroke="grey" stroke-width="2" points="1709.25,-189.49 1714.17,-180.1 1704.48,-184.37 1709.25,-189.49"/>
</g>
<!-- 13&#45;&gt;12 -->
<g id="edge45" class="edge">
<title>13&#45;&gt;12</title>
<path fill="none" stroke="grey" stroke-width="2" d="M1657.5,-287.7C1657.5,-279.98 1657.5,-270.71 1657.5,-262.11"/>
<polygon fill="grey" stroke="grey" stroke-width="2" points="1661,-262.1 1657.5,-252.1 1654,-262.1 1661,-262.1"/>
</g>
<!-- 13&#45;&gt;66 -->
<g id="edge136" class="edge">
<title>13&#45;&gt;66</title>
<path fill="none" stroke="grey" stroke-width="2" d="M1670.34,-287.85C1677.61,-277.71 1686.61,-264.46 1693.5,-252 1704.72,-231.69 1715.14,-207.52 1722.38,-189.49"/>
<polygon fill="grey" stroke="grey" stroke-width="2" points="1725.65,-190.76 1726.06,-180.17 1719.14,-188.19 1725.65,-190.76"/>
</g>
<!-- 14&#45;&gt;13 -->
<g id="edge46" class="edge">
<title>14&#45;&gt;13</title>
<path fill="none" stroke="grey" stroke-width="2" d="M1581.96,-359.88C1594.8,-350.89 1610.7,-339.76 1624.59,-330.03"/>
<polygon fill="grey" stroke="grey" stroke-width="2" points="1626.76,-332.79 1632.94,-324.19 1622.74,-327.06 1626.76,-332.79"/>
</g>
<!-- 15 -->
<g id="node16" class="node">
<title>15</title>
<path fill="none" stroke="#68d856" stroke-width="2" stroke-dasharray="5,2" d="M2038,-108C2038,-108 1973,-108 1973,-108 1967,-108 1961,-102 1961,-96 1961,-96 1961,-84 1961,-84 1961,-78 1967,-72 1973,-72 1973,-72 2038,-72 2038,-72 2044,-72 2050,-78 2050,-84 2050,-84 2050,-96 2050,-96 2050,-102 2044,-108 2038,-108"/>
<text text-anchor="middle" x="2005.5" y="-93" font-family="sans" font-size="10.00">years2days</text>
<text text-anchor="middle" x="2005.5" y="-82" font-family="sans" font-size="10.00">tree: SLE/SLE.2</text>
</g>
<!-- 15&#45;&gt;0 -->
<g id="edge3" class="edge">
<title>15&#45;&gt;0</title>
<path fill="none" stroke="grey" stroke-width="2" d="M1960.84,-74.03C1958.03,-73.29 1955.24,-72.6 1952.5,-72 1810.33,-40.69 1637.22,-26.36 1562.18,-21.29"/>
<polygon fill="grey" stroke="grey" stroke-width="2" points="1562.05,-17.77 1551.84,-20.61 1561.59,-24.76 1562.05,-17.77"/>
</g>
<!-- 16 -->
<g id="node17" class="node">
<title>16</title>
<path fill="none" stroke="#d8cb56" stroke-width="2" stroke-dasharray="5,2" d="M1951.5,-180C1951.5,-180 1921.5,-180 1921.5,-180 1915.5,-180 1909.5,-174 1909.5,-168 1909.5,-168 1909.5,-156 1909.5,-156 1909.5,-150 1915.5,-144 1921.5,-144 1921.5,-144 1951.5,-144 1951.5,-144 1957.5,-144 1963.5,-150 1963.5,-156 1963.5,-156 1963.5,-168 1963.5,-168 1963.5,-174 1957.5,-180 1951.5,-180"/>
<text text-anchor="middle" x="1936.5" y="-159.5" font-family="sans" font-size="10.00">SLE</text>
</g>
<!-- 16&#45;&gt;15 -->
<g id="edge52" class="edge">
<title>16&#45;&gt;15</title>
<path fill="none" stroke="grey" stroke-width="2" d="M1953.56,-143.7C1962,-135.14 1972.32,-124.66 1981.54,-115.3"/>
<polygon fill="grey" stroke="grey" stroke-width="2" points="1984.11,-117.68 1988.64,-108.1 1979.13,-112.77 1984.11,-117.68"/>
</g>
<!-- 57 -->
<g id="node58" class="node">
<title>57</title>
<path fill="none" stroke="#567bd8" stroke-width="2" stroke-dasharray="5,2" d="M1931,-108C1931,-108 1818,-108 1818,-108 1812,-108 1806,-102 1806,-96 1806,-96 1806,-84 1806,-84 1806,-78 1812,-72 1818,-72 1818,-72 1931,-72 1931,-72 1937,-72 1943,-78 1943,-84 1943,-84 1943,-96 1943,-96 1943,-102 1937,-108 1931,-108"/>
<text text-anchor="middle" x="1874.5" y="-87.5" font-family="sans" font-size="10.00">itol_selected_annotation</text>
</g>
<!-- 16&#45;&gt;57 -->
<g id="edge126" class="edge">
<title>16&#45;&gt;57</title>
<path fill="none" stroke="grey" stroke-width="2" d="M1921.17,-143.7C1913.74,-135.3 1904.68,-125.07 1896.52,-115.86"/>
<polygon fill="grey" stroke="grey" stroke-width="2" points="1898.9,-113.27 1889.65,-108.1 1893.66,-117.91 1898.9,-113.27"/>
</g>
<!-- 17 -->
<g id="node18" class="node">
<title>17</title>
<path fill="none" stroke="#d8a456" stroke-width="2" stroke-dasharray="5,2" d="M1958.5,-252C1958.5,-252 1928.5,-252 1928.5,-252 1922.5,-252 1916.5,-246 1916.5,-240 1916.5,-240 1916.5,-228 1916.5,-228 1916.5,-222 1922.5,-216 1928.5,-216 1928.5,-216 1958.5,-216 1958.5,-216 1964.5,-216 1970.5,-222 1970.5,-228 1970.5,-228 1970.5,-240 1970.5,-240 1970.5,-246 1964.5,-252 1958.5,-252"/>
<text text-anchor="middle" x="1943.5" y="-237" font-family="sans" font-size="10.00">pastml</text>
<text text-anchor="middle" x="1943.5" y="-226" font-family="sans" font-size="10.00">i: 2</text>
</g>
<!-- 17&#45;&gt;16 -->
<g id="edge53" class="edge">
<title>17&#45;&gt;16</title>
<path fill="none" stroke="grey" stroke-width="2" d="M1941.77,-215.7C1941,-207.98 1940.07,-198.71 1939.21,-190.11"/>
<polygon fill="grey" stroke="grey" stroke-width="2" points="1942.69,-189.71 1938.21,-180.1 1935.72,-190.4 1942.69,-189.71"/>
</g>
<!-- 67 -->
<g id="node68" class="node">
<title>67</title>
<path fill="none" stroke="#56d0d8" stroke-width="2" stroke-dasharray="5,2" d="M2041,-180C2041,-180 1994,-180 1994,-180 1988,-180 1982,-174 1982,-168 1982,-168 1982,-156 1982,-156 1982,-150 1988,-144 1994,-144 1994,-144 2041,-144 2041,-144 2047,-144 2053,-150 2053,-156 2053,-156 2053,-168 2053,-168 2053,-174 2047,-180 2041,-180"/>
<text text-anchor="middle" x="2017.5" y="-159.5" font-family="sans" font-size="10.00">pastml_itol</text>
</g>
<!-- 17&#45;&gt;67 -->
<g id="edge139" class="edge">
<title>17&#45;&gt;67</title>
<path fill="none" stroke="grey" stroke-width="2" d="M1961.79,-215.7C1970.93,-207.05 1982.14,-196.45 1992.1,-187.03"/>
<polygon fill="grey" stroke="grey" stroke-width="2" points="1994.56,-189.52 1999.42,-180.1 1989.75,-184.43 1994.56,-189.52"/>
</g>
<!-- 18&#45;&gt;17 -->
<g id="edge54" class="edge">
<title>18&#45;&gt;17</title>
<path fill="none" stroke="grey" stroke-width="2" d="M1943.5,-287.7C1943.5,-279.98 1943.5,-270.71 1943.5,-262.11"/>
<polygon fill="grey" stroke="grey" stroke-width="2" points="1947,-262.1 1943.5,-252.1 1940,-262.1 1947,-262.1"/>
</g>
<!-- 18&#45;&gt;67 -->
<g id="edge138" class="edge">
<title>18&#45;&gt;67</title>
<path fill="none" stroke="grey" stroke-width="2" d="M1956.38,-287.87C1963.67,-277.74 1972.67,-264.49 1979.5,-252 1990.53,-231.82 2000.63,-207.77 2007.64,-189.76"/>
<polygon fill="grey" stroke="grey" stroke-width="2" points="2011,-190.78 2011.3,-180.19 2004.46,-188.28 2011,-190.78"/>
</g>
<!-- 19&#45;&gt;18 -->
<g id="edge55" class="edge">
<title>19&#45;&gt;18</title>
<path fill="none" stroke="grey" stroke-width="2" d="M1659.69,-363.62C1662.95,-362.28 1666.27,-361.04 1669.5,-360 1738.98,-337.68 1821.56,-323.27 1877.76,-315.2"/>
<polygon fill="grey" stroke="grey" stroke-width="2" points="1878.53,-318.63 1887.94,-313.77 1877.55,-311.69 1878.53,-318.63"/>
</g>
<!-- 20 -->
<g id="node21" class="node">
<title>20</title>
<path fill="none" stroke="#68d856" stroke-width="2" stroke-dasharray="5,2" d="M2485,-108C2485,-108 2420,-108 2420,-108 2414,-108 2408,-102 2408,-96 2408,-96 2408,-84 2408,-84 2408,-78 2414,-72 2420,-72 2420,-72 2485,-72 2485,-72 2491,-72 2497,-78 2497,-84 2497,-84 2497,-96 2497,-96 2497,-102 2491,-108 2485,-108"/>
<text text-anchor="middle" x="2452.5" y="-93" font-family="sans" font-size="10.00">years2days</text>
<text text-anchor="middle" x="2452.5" y="-82" font-family="sans" font-size="10.00">tree: SLE/SLE.3</text>
</g>
<!-- 20&#45;&gt;0 -->
<g id="edge4" class="edge">
<title>20&#45;&gt;0</title>
<path fill="none" stroke="grey" stroke-width="2" d="M2407.96,-75.05C2403.12,-73.87 2398.23,-72.81 2393.5,-72 2075.41,-17.16 1683.29,-16.93 1562.01,-18.37"/>
<polygon fill="grey" stroke="grey" stroke-width="2" points="1561.73,-14.87 1551.78,-18.5 1561.83,-21.87 1561.73,-14.87"/>
</g>
<!-- 21 -->
<g id="node22" class="node">
<title>21</title>
<path fill="none" stroke="#d8cb56" stroke-width="2" stroke-dasharray="5,2" d="M2467.5,-180C2467.5,-180 2437.5,-180 2437.5,-180 2431.5,-180 2425.5,-174 2425.5,-168 2425.5,-168 2425.5,-156 2425.5,-156 2425.5,-150 2431.5,-144 2437.5,-144 2437.5,-144 2467.5,-144 2467.5,-144 2473.5,-144 2479.5,-150 2479.5,-156 2479.5,-156 2479.5,-168 2479.5,-168 2479.5,-174 2473.5,-180 2467.5,-180"/>
<text text-anchor="middle" x="2452.5" y="-159.5" font-family="sans" font-size="10.00">SLE</text>
</g>
<!-- 21&#45;&gt;20 -->
<g id="edge61" class="edge">
<title>21&#45;&gt;20</title>
<path fill="none" stroke="grey" stroke-width="2" d="M2452.5,-143.7C2452.5,-135.98 2452.5,-126.71 2452.5,-118.11"/>
<polygon fill="grey" stroke="grey" stroke-width="2" points="2456,-118.1 2452.5,-108.1 2449,-118.1 2456,-118.1"/>
</g>
<!-- 58 -->
<g id="node59" class="node">
<title>58</title>
<path fill="none" stroke="#567bd8" stroke-width="2" stroke-dasharray="5,2" d="M2640,-108C2640,-108 2527,-108 2527,-108 2521,-108 2515,-102 2515,-96 2515,-96 2515,-84 2515,-84 2515,-78 2521,-72 2527,-72 2527,-72 2640,-72 2640,-72 2646,-72 2652,-78 2652,-84 2652,-84 2652,-96 2652,-96 2652,-102 2646,-108 2640,-108"/>
<text text-anchor="middle" x="2583.5" y="-87.5" font-family="sans" font-size="10.00">itol_selected_annotation</text>
</g>
<!-- 21&#45;&gt;58 -->
<g id="edge127" class="edge">
<title>21&#45;&gt;58</title>
<path fill="none" stroke="grey" stroke-width="2" d="M2479.64,-146.5C2497.71,-136.84 2521.79,-123.98 2542.21,-113.06"/>
<polygon fill="grey" stroke="grey" stroke-width="2" points="2544.13,-116 2551.3,-108.2 2540.84,-109.83 2544.13,-116"/>
</g>
<!-- 22 -->
<g id="node23" class="node">
<title>22</title>
<path fill="none" stroke="#d8a456" stroke-width="2" stroke-dasharray="5,2" d="M2467.5,-252C2467.5,-252 2437.5,-252 2437.5,-252 2431.5,-252 2425.5,-246 2425.5,-240 2425.5,-240 2425.5,-228 2425.5,-228 2425.5,-222 2431.5,-216 2437.5,-216 2437.5,-216 2467.5,-216 2467.5,-216 2473.5,-216 2479.5,-222 2479.5,-228 2479.5,-228 2479.5,-240 2479.5,-240 2479.5,-246 2473.5,-252 2467.5,-252"/>
<text text-anchor="middle" x="2452.5" y="-237" font-family="sans" font-size="10.00">pastml</text>
<text text-anchor="middle" x="2452.5" y="-226" font-family="sans" font-size="10.00">i: 3</text>
</g>
<!-- 22&#45;&gt;21 -->
<g id="edge62" class="edge">
<title>22&#45;&gt;21</title>
<path fill="none" stroke="grey" stroke-width="2" d="M2452.5,-215.7C2452.5,-207.98 2452.5,-198.71 2452.5,-190.11"/>
<polygon fill="grey" stroke="grey" stroke-width="2" points="2456,-190.1 2452.5,-180.1 2449,-190.1 2456,-190.1"/>
</g>
<!-- 68 -->
<g id="node69" class="node">
<title>68</title>
<path fill="none" stroke="#56d0d8" stroke-width="2" stroke-dasharray="5,2" d="M2557,-180C2557,-180 2510,-180 2510,-180 2504,-180 2498,-174 2498,-168 2498,-168 2498,-156 2498,-156 2498,-150 2504,-144 2510,-144 2510,-144 2557,-144 2557,-144 2563,-144 2569,-150 2569,-156 2569,-156 2569,-168 2569,-168 2569,-174 2563,-180 2557,-180"/>
<text text-anchor="middle" x="2533.5" y="-159.5" font-family="sans" font-size="10.00">pastml_itol</text>
</g>
<!-- 22&#45;&gt;68 -->
<g id="edge141" class="edge">
<title>22&#45;&gt;68</title>
<path fill="none" stroke="grey" stroke-width="2" d="M2472.52,-215.7C2482.63,-206.97 2495.04,-196.24 2506.02,-186.75"/>
<polygon fill="grey" stroke="grey" stroke-width="2" points="2508.43,-189.29 2513.71,-180.1 2503.85,-183.99 2508.43,-189.29"/>
</g>
<!-- 23&#45;&gt;22 -->
<g id="edge63" class="edge">
<title>23&#45;&gt;22</title>
<path fill="none" stroke="grey" stroke-width="2" d="M2342.97,-287.88C2365.13,-277.18 2393.59,-263.44 2415.94,-252.65"/>
<polygon fill="grey" stroke="grey" stroke-width="2" points="2417.63,-255.72 2425.12,-248.22 2414.59,-249.42 2417.63,-255.72"/>
</g>
<!-- 23&#45;&gt;68 -->
<g id="edge140" class="edge">
<title>23&#45;&gt;68</title>
<path fill="none" stroke="grey" stroke-width="2" d="M2363.13,-289.86C2414.45,-275.72 2483.48,-256.17 2488.5,-252 2507.77,-235.97 2519.64,-209.61 2526.31,-189.73"/>
<polygon fill="grey" stroke="grey" stroke-width="2" points="2529.7,-190.6 2529.34,-180.01 2523.02,-188.52 2529.7,-190.6"/>
</g>
<!-- 24&#45;&gt;23 -->
<g id="edge64" class="edge">
<title>24&#45;&gt;23</title>
<path fill="none" stroke="grey" stroke-width="2" d="M1804.9,-364.29C1809.37,-362.61 1814.01,-361.09 1818.5,-360 2001.38,-315.42 2054.88,-355.25 2240.5,-324 2240.96,-323.92 2241.42,-323.84 2241.88,-323.76"/>
<polygon fill="grey" stroke="grey" stroke-width="2" points="2242.55,-327.2 2251.71,-321.88 2241.23,-320.32 2242.55,-327.2"/>
</g>
<!-- 25 -->
<g id="node26" class="node">
<title>25</title>
<path fill="none" stroke="#68d856" stroke-width="2" stroke-dasharray="5,2" d="M2786,-108C2786,-108 2721,-108 2721,-108 2715,-108 2709,-102 2709,-96 2709,-96 2709,-84 2709,-84 2709,-78 2715,-72 2721,-72 2721,-72 2786,-72 2786,-72 2792,-72 2798,-78 2798,-84 2798,-84 2798,-96 2798,-96 2798,-102 2792,-108 2786,-108"/>
<text text-anchor="middle" x="2753.5" y="-93" font-family="sans" font-size="10.00">years2days</text>
<text text-anchor="middle" x="2753.5" y="-82" font-family="sans" font-size="10.00">tree: SLE/SLE.4</text>
</g>
<!-- 25&#45;&gt;0 -->
<g id="edge5" class="edge">
<title>25&#45;&gt;0</title>
<path fill="none" stroke="grey" stroke-width="2" d="M2708.97,-74.98C2704.13,-73.81 2699.23,-72.78 2694.5,-72 2468.74,-34.89 1735.79,-22.07 1561.8,-19.51"/>
<polygon fill="grey" stroke="grey" stroke-width="2" points="1561.66,-16.01 1551.61,-19.36 1561.56,-23.01 1561.66,-16.01"/>
</g>
<!-- 26 -->
<g id="node27" class="node">
<title>26</title>
<path fill="none" stroke="#d8cb56" stroke-width="2" stroke-dasharray="5,2" d="M2768.5,-180C2768.5,-180 2738.5,-180 2738.5,-180 2732.5,-180 2726.5,-174 2726.5,-168 2726.5,-168 2726.5,-156 2726.5,-156 2726.5,-150 2732.5,-144 2738.5,-144 2738.5,-144 2768.5,-144 2768.5,-144 2774.5,-144 2780.5,-150 2780.5,-156 2780.5,-156 2780.5,-168 2780.5,-168 2780.5,-174 2774.5,-180 2768.5,-180"/>
<text text-anchor="middle" x="2753.5" y="-159.5" font-family="sans" font-size="10.00">SLE</text>
</g>
<!-- 26&#45;&gt;25 -->
<g id="edge70" class="edge">
<title>26&#45;&gt;25</title>
<path fill="none" stroke="grey" stroke-width="2" d="M2753.5,-143.7C2753.5,-135.98 2753.5,-126.71 2753.5,-118.11"/>
<polygon fill="grey" stroke="grey" stroke-width="2" points="2757,-118.1 2753.5,-108.1 2750,-118.1 2757,-118.1"/>
</g>
<!-- 59 -->
<g id="node60" class="node">
<title>59</title>
<path fill="none" stroke="#567bd8" stroke-width="2" stroke-dasharray="5,2" d="M2941,-108C2941,-108 2828,-108 2828,-108 2822,-108 2816,-102 2816,-96 2816,-96 2816,-84 2816,-84 2816,-78 2822,-72 2828,-72 2828,-72 2941,-72 2941,-72 2947,-72 2953,-78 2953,-84 2953,-84 2953,-96 2953,-96 2953,-102 2947,-108 2941,-108"/>
<text text-anchor="middle" x="2884.5" y="-87.5" font-family="sans" font-size="10.00">itol_selected_annotation</text>
</g>
<!-- 26&#45;&gt;59 -->
<g id="edge128" class="edge">
<title>26&#45;&gt;59</title>
<path fill="none" stroke="grey" stroke-width="2" d="M2780.64,-146.5C2798.71,-136.84 2822.79,-123.98 2843.21,-113.06"/>
<polygon fill="grey" stroke="grey" stroke-width="2" points="2845.13,-116 2852.3,-108.2 2841.84,-109.83 2845.13,-116"/>
</g>
<!-- 27 -->
<g id="node28" class="node">
<title>27</title>
<path fill="none" stroke="#d8a456" stroke-width="2" stroke-dasharray="5,2" d="M2768.5,-252C2768.5,-252 2738.5,-252 2738.5,-252 2732.5,-252 2726.5,-246 2726.5,-240 2726.5,-240 2726.5,-228 2726.5,-228 2726.5,-222 2732.5,-216 2738.5,-216 2738.5,-216 2768.5,-216 2768.5,-216 2774.5,-216 2780.5,-222 2780.5,-228 2780.5,-228 2780.5,-240 2780.5,-240 2780.5,-246 2774.5,-252 2768.5,-252"/>
<text text-anchor="middle" x="2753.5" y="-237" font-family="sans" font-size="10.00">pastml</text>
<text text-anchor="middle" x="2753.5" y="-226" font-family="sans" font-size="10.00">i: 4</text>
</g>
<!-- 27&#45;&gt;26 -->
<g id="edge71" class="edge">
<title>27&#45;&gt;26</title>
<path fill="none" stroke="grey" stroke-width="2" d="M2753.5,-215.7C2753.5,-207.98 2753.5,-198.71 2753.5,-190.11"/>
<polygon fill="grey" stroke="grey" stroke-width="2" points="2757,-190.1 2753.5,-180.1 2750,-190.1 2757,-190.1"/>
</g>
<!-- 69 -->
<g id="node70" class="node">
<title>69</title>
<path fill="none" stroke="#56d0d8" stroke-width="2" stroke-dasharray="5,2" d="M2858,-180C2858,-180 2811,-180 2811,-180 2805,-180 2799,-174 2799,-168 2799,-168 2799,-156 2799,-156 2799,-150 2805,-144 2811,-144 2811,-144 2858,-144 2858,-144 2864,-144 2870,-150 2870,-156 2870,-156 2870,-168 2870,-168 2870,-174 2864,-180 2858,-180"/>
<text text-anchor="middle" x="2834.5" y="-159.5" font-family="sans" font-size="10.00">pastml_itol</text>
</g>
<!-- 27&#45;&gt;69 -->
<g id="edge143" class="edge">
<title>27&#45;&gt;69</title>
<path fill="none" stroke="grey" stroke-width="2" d="M2773.52,-215.7C2783.63,-206.97 2796.04,-196.24 2807.02,-186.75"/>
<polygon fill="grey" stroke="grey" stroke-width="2" points="2809.43,-189.29 2814.71,-180.1 2804.85,-183.99 2809.43,-189.29"/>
</g>
<!-- 28&#45;&gt;27 -->
<g id="edge72" class="edge">
<title>28&#45;&gt;27</title>
<path fill="none" stroke="grey" stroke-width="2" d="M2492.08,-292.73C2556.47,-278.51 2660.79,-255.47 2716.17,-243.24"/>
<polygon fill="grey" stroke="grey" stroke-width="2" points="2717.24,-246.59 2726.25,-241.02 2715.73,-239.76 2717.24,-246.59"/>
</g>
<!-- 28&#45;&gt;69 -->
<g id="edge142" class="edge">
<title>28&#45;&gt;69</title>
<path fill="none" stroke="grey" stroke-width="2" d="M2492.18,-302.78C2579.38,-298.3 2743.04,-285.58 2789.5,-252 2810.03,-237.16 2821.79,-210.22 2828.1,-189.85"/>
<polygon fill="grey" stroke="grey" stroke-width="2" points="2831.48,-190.76 2830.85,-180.18 2824.75,-188.85 2831.48,-190.76"/>
</g>
<!-- 29&#45;&gt;28 -->
<g id="edge73" class="edge">
<title>29&#45;&gt;28</title>
<path fill="none" stroke="grey" stroke-width="2" d="M1946.51,-375.2C2015.68,-370.29 2204.87,-355.07 2370.87,-324.17"/>
<polygon fill="grey" stroke="grey" stroke-width="2" points="2371.58,-327.6 2380.76,-322.31 2370.28,-320.72 2371.58,-327.6"/>
</g>
<!-- 30 -->
<g id="node31" class="node">
<title>30</title>
<path fill="none" stroke="#68d856" stroke-width="2" stroke-dasharray="5,2" d="M834,-108C834,-108 769,-108 769,-108 763,-108 757,-102 757,-96 757,-96 757,-84 757,-84 757,-78 763,-72 769,-72 769,-72 834,-72 834,-72 840,-72 846,-78 846,-84 846,-84 846,-96 846,-96 846,-102 840,-108 834,-108"/>
<text text-anchor="middle" x="801.5" y="-93" font-family="sans" font-size="10.00">years2days</text>
<text text-anchor="middle" x="801.5" y="-82" font-family="sans" font-size="10.00">tree: SLE/SLE.5</text>
</g>
<!-- 30&#45;&gt;0 -->
<g id="edge6" class="edge">
<title>30&#45;&gt;0</title>
<path fill="none" stroke="grey" stroke-width="2" d="M846.05,-75.14C850.9,-73.94 855.78,-72.86 860.5,-72 1096.48,-29.04 1385.94,-20.9 1487.32,-19.36"/>
<polygon fill="grey" stroke="grey" stroke-width="2" points="1487.42,-22.86 1497.37,-19.22 1487.32,-15.86 1487.42,-22.86"/>
</g>
<!-- 31 -->
<g id="node32" class="node">
<title>31</title>
<path fill="none" stroke="#d8cb56" stroke-width="2" stroke-dasharray="5,2" d="M815.5,-180C815.5,-180 785.5,-180 785.5,-180 779.5,-180 773.5,-174 773.5,-168 773.5,-168 773.5,-156 773.5,-156 773.5,-150 779.5,-144 785.5,-144 785.5,-144 815.5,-144 815.5,-144 821.5,-144 827.5,-150 827.5,-156 827.5,-156 827.5,-168 827.5,-168 827.5,-174 821.5,-180 815.5,-180"/>
<text text-anchor="middle" x="800.5" y="-159.5" font-family="sans" font-size="10.00">SLE</text>
</g>
<!-- 31&#45;&gt;30 -->
<g id="edge79" class="edge">
<title>31&#45;&gt;30</title>
<path fill="none" stroke="grey" stroke-width="2" d="M800.75,-143.7C800.86,-135.98 800.99,-126.71 801.11,-118.11"/>
<polygon fill="grey" stroke="grey" stroke-width="2" points="804.61,-118.15 801.26,-108.1 797.61,-118.05 804.61,-118.15"/>
</g>
<!-- 60 -->
<g id="node61" class="node">
<title>60</title>
<path fill="none" stroke="#567bd8" stroke-width="2" stroke-dasharray="5,2" d="M727,-108C727,-108 614,-108 614,-108 608,-108 602,-102 602,-96 602,-96 602,-84 602,-84 602,-78 608,-72 614,-72 614,-72 727,-72 727,-72 733,-72 739,-78 739,-84 739,-84 739,-96 739,-96 739,-102 733,-108 727,-108"/>
<text text-anchor="middle" x="670.5" y="-87.5" font-family="sans" font-size="10.00">itol_selected_annotation</text>
</g>
<!-- 31&#45;&gt;60 -->
<g id="edge129" class="edge">
<title>31&#45;&gt;60</title>
<path fill="none" stroke="grey" stroke-width="2" d="M773.25,-146.33C755.3,-136.66 731.47,-123.83 711.28,-112.96"/>
<polygon fill="grey" stroke="grey" stroke-width="2" points="712.76,-109.78 702.3,-108.12 709.44,-115.94 712.76,-109.78"/>
</g>
<!-- 32 -->
<g id="node33" class="node">
<title>32</title>
<path fill="none" stroke="#d8a456" stroke-width="2" stroke-dasharray="5,2" d="M895.5,-252C895.5,-252 865.5,-252 865.5,-252 859.5,-252 853.5,-246 853.5,-240 853.5,-240 853.5,-228 853.5,-228 853.5,-222 859.5,-216 865.5,-216 865.5,-216 895.5,-216 895.5,-216 901.5,-216 907.5,-222 907.5,-228 907.5,-228 907.5,-240 907.5,-240 907.5,-246 901.5,-252 895.5,-252"/>
<text text-anchor="middle" x="880.5" y="-237" font-family="sans" font-size="10.00">pastml</text>
<text text-anchor="middle" x="880.5" y="-226" font-family="sans" font-size="10.00">i: 5</text>
</g>
<!-- 32&#45;&gt;31 -->
<g id="edge80" class="edge">
<title>32&#45;&gt;31</title>
<path fill="none" stroke="grey" stroke-width="2" d="M860.72,-215.7C850.75,-206.97 838.49,-196.24 827.64,-186.75"/>
<polygon fill="grey" stroke="grey" stroke-width="2" points="829.88,-184.06 820.05,-180.1 825.27,-189.32 829.88,-184.06"/>
</g>
<!-- 70 -->
<g id="node71" class="node">
<title>70</title>
<path fill="none" stroke="#56d0d8" stroke-width="2" stroke-dasharray="5,2" d="M905,-180C905,-180 858,-180 858,-180 852,-180 846,-174 846,-168 846,-168 846,-156 846,-156 846,-150 852,-144 858,-144 858,-144 905,-144 905,-144 911,-144 917,-150 917,-156 917,-156 917,-168 917,-168 917,-174 911,-180 905,-180"/>
<text text-anchor="middle" x="881.5" y="-159.5" font-family="sans" font-size="10.00">pastml_itol</text>
</g>
<!-- 32&#45;&gt;70 -->
<g id="edge145" class="edge">
<title>32&#45;&gt;70</title>
<path fill="none" stroke="grey" stroke-width="2" d="M880.75,-215.7C880.86,-207.98 880.99,-198.71 881.11,-190.11"/>
<polygon fill="grey" stroke="grey" stroke-width="2" points="884.61,-190.15 881.26,-180.1 877.61,-190.05 884.61,-190.15"/>
</g>
<!-- 33&#45;&gt;32 -->
<g id="edge81" class="edge">
<title>33&#45;&gt;32</title>
<path fill="none" stroke="grey" stroke-width="2" d="M921.9,-287.7C915.38,-279.39 907.43,-269.28 900.25,-260.14"/>
<polygon fill="grey" stroke="grey" stroke-width="2" points="902.87,-257.81 893.94,-252.1 897.37,-262.13 902.87,-257.81"/>
</g>
<!-- 33&#45;&gt;70 -->
<g id="edge144" class="edge">
<title>33&#45;&gt;70</title>
<path fill="none" stroke="grey" stroke-width="2" d="M933.74,-287.7C931.44,-269.34 926.46,-239.75 916.5,-216 912.51,-206.49 906.77,-196.86 901.08,-188.46"/>
<polygon fill="grey" stroke="grey" stroke-width="2" points="903.88,-186.36 895.25,-180.21 898.17,-190.4 903.88,-186.36"/>
</g>
<!-- 34&#45;&gt;33 -->
<g id="edge82" class="edge">
<title>34&#45;&gt;33</title>
<path fill="none" stroke="grey" stroke-width="2" d="M1293.33,-368.74C1282.83,-365.73 1270.67,-362.46 1259.5,-360 1170.87,-340.46 1067.15,-324.72 1001.39,-315.62"/>
<polygon fill="grey" stroke="grey" stroke-width="2" points="1001.56,-312.11 991.18,-314.21 1000.61,-319.04 1001.56,-312.11"/>
</g>
<!-- 35 -->
<g id="node36" class="node">
<title>35</title>
<path fill="none" stroke="#68d856" stroke-width="2" stroke-dasharray="5,2" d="M533,-108C533,-108 468,-108 468,-108 462,-108 456,-102 456,-96 456,-96 456,-84 456,-84 456,-78 462,-72 468,-72 468,-72 533,-72 533,-72 539,-72 545,-78 545,-84 545,-84 545,-96 545,-96 545,-102 539,-108 533,-108"/>
<text text-anchor="middle" x="500.5" y="-93" font-family="sans" font-size="10.00">years2days</text>
<text text-anchor="middle" x="500.5" y="-82" font-family="sans" font-size="10.00">tree: SLE/SLE.6</text>
</g>
<!-- 35&#45;&gt;0 -->
<g id="edge7" class="edge">
<title>35&#45;&gt;0</title>
<path fill="none" stroke="grey" stroke-width="2" d="M545.03,-75.02C549.88,-73.85 554.77,-72.8 559.5,-72 742.87,-40.96 1332.27,-23.93 1487.01,-19.93"/>
<polygon fill="grey" stroke="grey" stroke-width="2" points="1487.48,-23.42 1497.38,-19.66 1487.3,-16.42 1487.48,-23.42"/>
</g>
<!-- 36 -->
<g id="node37" class="node">
<title>36</title>
<path fill="none" stroke="#d8cb56" stroke-width="2" stroke-dasharray="5,2" d="M515.5,-180C515.5,-180 485.5,-180 485.5,-180 479.5,-180 473.5,-174 473.5,-168 473.5,-168 473.5,-156 473.5,-156 473.5,-150 479.5,-144 485.5,-144 485.5,-144 515.5,-144 515.5,-144 521.5,-144 527.5,-150 527.5,-156 527.5,-156 527.5,-168 527.5,-168 527.5,-174 521.5,-180 515.5,-180"/>
<text text-anchor="middle" x="500.5" y="-159.5" font-family="sans" font-size="10.00">SLE</text>
</g>
<!-- 36&#45;&gt;35 -->
<g id="edge88" class="edge">
<title>36&#45;&gt;35</title>
<path fill="none" stroke="grey" stroke-width="2" d="M500.5,-143.7C500.5,-135.98 500.5,-126.71 500.5,-118.11"/>
<polygon fill="grey" stroke="grey" stroke-width="2" points="504,-118.1 500.5,-108.1 497,-118.1 504,-118.1"/>
</g>
<!-- 61 -->
<g id="node62" class="node">
<title>61</title>
<path fill="none" stroke="#567bd8" stroke-width="2" stroke-dasharray="5,2" d="M426,-108C426,-108 313,-108 313,-108 307,-108 301,-102 301,-96 301,-96 301,-84 301,-84 301,-78 307,-72 313,-72 313,-72 426,-72 426,-72 432,-72 438,-78 438,-84 438,-84 438,-96 438,-96 438,-102 432,-108 426,-108"/>
<text text-anchor="middle" x="369.5" y="-87.5" font-family="sans" font-size="10.00">itol_selected_annotation</text>
</g>
<!-- 36&#45;&gt;61 -->
<g id="edge130" class="edge">
<title>36&#45;&gt;61</title>
<path fill="none" stroke="grey" stroke-width="2" d="M473.36,-146.5C455.29,-136.84 431.21,-123.98 410.79,-113.06"/>
<polygon fill="grey" stroke="grey" stroke-width="2" points="412.16,-109.83 401.7,-108.2 408.87,-116 412.16,-109.83"/>
</g>
<!-- 37 -->
<g id="node38" class="node">
<title>37</title>
<path fill="none" stroke="#d8a456" stroke-width="2" stroke-dasharray="5,2" d="M686.5,-252C686.5,-252 656.5,-252 656.5,-252 650.5,-252 644.5,-246 644.5,-240 644.5,-240 644.5,-228 644.5,-228 644.5,-222 650.5,-216 656.5,-216 656.5,-216 686.5,-216 686.5,-216 692.5,-216 698.5,-222 698.5,-228 698.5,-228 698.5,-240 698.5,-240 698.5,-246 692.5,-252 686.5,-252"/>
<text text-anchor="middle" x="671.5" y="-237" font-family="sans" font-size="10.00">pastml</text>
<text text-anchor="middle" x="671.5" y="-226" font-family="sans" font-size="10.00">i: 6</text>
</g>
<!-- 37&#45;&gt;36 -->
<g id="edge89" class="edge">
<title>37&#45;&gt;36</title>
<path fill="none" stroke="grey" stroke-width="2" d="M644.4,-221.91C615.47,-210.06 569.45,-191.22 537.26,-178.05"/>
<polygon fill="grey" stroke="grey" stroke-width="2" points="538.33,-174.7 527.75,-174.16 535.68,-181.18 538.33,-174.7"/>
</g>
<!-- 71 -->
<g id="node72" class="node">
<title>71</title>
<path fill="none" stroke="#56d0d8" stroke-width="2" stroke-dasharray="5,2" d="M695,-180C695,-180 648,-180 648,-180 642,-180 636,-174 636,-168 636,-168 636,-156 636,-156 636,-150 642,-144 648,-144 648,-144 695,-144 695,-144 701,-144 707,-150 707,-156 707,-156 707,-168 707,-168 707,-174 701,-180 695,-180"/>
<text text-anchor="middle" x="671.5" y="-159.5" font-family="sans" font-size="10.00">pastml_itol</text>
</g>
<!-- 37&#45;&gt;71 -->
<g id="edge147" class="edge">
<title>37&#45;&gt;71</title>
<path fill="none" stroke="grey" stroke-width="2" d="M671.5,-215.7C671.5,-207.98 671.5,-198.71 671.5,-190.11"/>
<polygon fill="grey" stroke="grey" stroke-width="2" points="675,-190.1 671.5,-180.1 668,-190.1 675,-190.1"/>
</g>
<!-- 38&#45;&gt;37 -->
<g id="edge90" class="edge">
<title>38&#45;&gt;37</title>
<path fill="none" stroke="grey" stroke-width="2" d="M770.45,-287.88C751.49,-277.74 727.41,-264.88 707.76,-254.37"/>
<polygon fill="grey" stroke="grey" stroke-width="2" points="709.26,-251.21 698.79,-249.58 705.96,-257.38 709.26,-251.21"/>
</g>
<!-- 38&#45;&gt;71 -->
<g id="edge146" class="edge">
<title>38&#45;&gt;71</title>
<path fill="none" stroke="grey" stroke-width="2" d="M786.7,-287.87C763.68,-262.92 720.81,-216.45 694.35,-187.77"/>
<polygon fill="grey" stroke="grey" stroke-width="2" points="696.71,-185.17 687.36,-180.19 691.57,-189.91 696.71,-185.17"/>
</g>
<!-- 39&#45;&gt;38 -->
<g id="edge91" class="edge">
<title>39&#45;&gt;38</title>
<path fill="none" stroke="grey" stroke-width="2" d="M1196.29,-367.36C1187.8,-364.64 1178.34,-361.91 1169.5,-360 1038.66,-331.78 1002.13,-348.28 870.5,-324 869.74,-323.86 868.97,-323.72 868.2,-323.57"/>
<polygon fill="grey" stroke="grey" stroke-width="2" points="868.54,-320.06 858.04,-321.49 867.14,-326.92 868.54,-320.06"/>
</g>
<!-- 40 -->
<g id="node41" class="node">
<title>40</title>
<path fill="none" stroke="#68d856" stroke-width="2" stroke-dasharray="5,2" d="M1135,-108C1135,-108 1070,-108 1070,-108 1064,-108 1058,-102 1058,-96 1058,-96 1058,-84 1058,-84 1058,-78 1064,-72 1070,-72 1070,-72 1135,-72 1135,-72 1141,-72 1147,-78 1147,-84 1147,-84 1147,-96 1147,-96 1147,-102 1141,-108 1135,-108"/>
<text text-anchor="middle" x="1102.5" y="-93" font-family="sans" font-size="10.00">years2days</text>
<text text-anchor="middle" x="1102.5" y="-82" font-family="sans" font-size="10.00">tree: SLE/SLE.7</text>
</g>
<!-- 40&#45;&gt;0 -->
<g id="edge8" class="edge">
<title>40&#45;&gt;0</title>
<path fill="none" stroke="grey" stroke-width="2" d="M1147.12,-75.46C1151.95,-74.19 1156.81,-73.01 1161.5,-72 1279.15,-46.59 1420.91,-29.81 1487.08,-22.77"/>
<polygon fill="grey" stroke="grey" stroke-width="2" points="1487.83,-26.21 1497.41,-21.68 1487.1,-19.25 1487.83,-26.21"/>
</g>
<!-- 41 -->
<g id="node42" class="node">
<title>41</title>
<path fill="none" stroke="#d8cb56" stroke-width="2" stroke-dasharray="5,2" d="M1113.5,-180C1113.5,-180 1083.5,-180 1083.5,-180 1077.5,-180 1071.5,-174 1071.5,-168 1071.5,-168 1071.5,-156 1071.5,-156 1071.5,-150 1077.5,-144 1083.5,-144 1083.5,-144 1113.5,-144 1113.5,-144 1119.5,-144 1125.5,-150 1125.5,-156 1125.5,-156 1125.5,-168 1125.5,-168 1125.5,-174 1119.5,-180 1113.5,-180"/>
<text text-anchor="middle" x="1098.5" y="-159.5" font-family="sans" font-size="10.00">SLE</text>
</g>
<!-- 41&#45;&gt;40 -->
<g id="edge97" class="edge">
<title>41&#45;&gt;40</title>
<path fill="none" stroke="grey" stroke-width="2" d="M1099.49,-143.7C1099.93,-135.98 1100.46,-126.71 1100.95,-118.11"/>
<polygon fill="grey" stroke="grey" stroke-width="2" points="1104.45,-118.29 1101.52,-108.1 1097.46,-117.89 1104.45,-118.29"/>
</g>
<!-- 62 -->
<g id="node63" class="node">
<title>62</title>
<path fill="none" stroke="#567bd8" stroke-width="2" stroke-dasharray="5,2" d="M1028,-108C1028,-108 915,-108 915,-108 909,-108 903,-102 903,-96 903,-96 903,-84 903,-84 903,-78 909,-72 915,-72 915,-72 1028,-72 1028,-72 1034,-72 1040,-78 1040,-84 1040,-84 1040,-96 1040,-96 1040,-102 1034,-108 1028,-108"/>
<text text-anchor="middle" x="971.5" y="-87.5" font-family="sans" font-size="10.00">itol_selected_annotation</text>
</g>
<!-- 41&#45;&gt;62 -->
<g id="edge131" class="edge">
<title>41&#45;&gt;62</title>
<path fill="none" stroke="grey" stroke-width="2" d="M1071.26,-145.98C1053.89,-136.41 1031.08,-123.84 1011.66,-113.14"/>
<polygon fill="grey" stroke="grey" stroke-width="2" points="1013.17,-109.97 1002.72,-108.21 1009.79,-116.1 1013.17,-109.97"/>
</g>
<!-- 42 -->
<g id="node43" class="node">
<title>42</title>
<path fill="none" stroke="#d8a456" stroke-width="2" stroke-dasharray="5,2" d="M1166.5,-252C1166.5,-252 1136.5,-252 1136.5,-252 1130.5,-252 1124.5,-246 1124.5,-240 1124.5,-240 1124.5,-228 1124.5,-228 1124.5,-222 1130.5,-216 1136.5,-216 1136.5,-216 1166.5,-216 1166.5,-216 1172.5,-216 1178.5,-222 1178.5,-228 1178.5,-228 1178.5,-240 1178.5,-240 1178.5,-246 1172.5,-252 1166.5,-252"/>
<text text-anchor="middle" x="1151.5" y="-237" font-family="sans" font-size="10.00">pastml</text>
<text text-anchor="middle" x="1151.5" y="-226" font-family="sans" font-size="10.00">i: 7</text>
</g>
<!-- 42&#45;&gt;41 -->
<g id="edge98" class="edge">
<title>42&#45;&gt;41</title>
<path fill="none" stroke="grey" stroke-width="2" d="M1138.4,-215.7C1132.11,-207.39 1124.45,-197.28 1117.54,-188.14"/>
<polygon fill="grey" stroke="grey" stroke-width="2" points="1120.28,-185.96 1111.45,-180.1 1114.7,-190.19 1120.28,-185.96"/>
</g>
<!-- 72 -->
<g id="node73" class="node">
<title>72</title>
<path fill="none" stroke="#56d0d8" stroke-width="2" stroke-dasharray="5,2" d="M1203,-180C1203,-180 1156,-180 1156,-180 1150,-180 1144,-174 1144,-168 1144,-168 1144,-156 1144,-156 1144,-150 1150,-144 1156,-144 1156,-144 1203,-144 1203,-144 1209,-144 1215,-150 1215,-156 1215,-156 1215,-168 1215,-168 1215,-174 1209,-180 1203,-180"/>
<text text-anchor="middle" x="1179.5" y="-159.5" font-family="sans" font-size="10.00">pastml_itol</text>
</g>
<!-- 42&#45;&gt;72 -->
<g id="edge149" class="edge">
<title>42&#45;&gt;72</title>
<path fill="none" stroke="grey" stroke-width="2" d="M1158.42,-215.7C1161.57,-207.81 1165.38,-198.3 1168.88,-189.55"/>
<polygon fill="grey" stroke="grey" stroke-width="2" points="1172.19,-190.69 1172.66,-180.1 1165.69,-188.09 1172.19,-190.69"/>
</g>
<!-- 43&#45;&gt;42 -->
<g id="edge99" class="edge">
<title>43&#45;&gt;42</title>
<path fill="none" stroke="grey" stroke-width="2" d="M1192.9,-287.7C1186.38,-279.39 1178.43,-269.28 1171.25,-260.14"/>
<polygon fill="grey" stroke="grey" stroke-width="2" points="1173.87,-257.81 1164.94,-252.1 1168.37,-262.13 1173.87,-257.81"/>
</g>
<!-- 43&#45;&gt;72 -->
<g id="edge148" class="edge">
<title>43&#45;&gt;72</title>
<path fill="none" stroke="grey" stroke-width="2" d="M1203.24,-287.87C1198.64,-263.67 1190.19,-219.21 1184.71,-190.39"/>
<polygon fill="grey" stroke="grey" stroke-width="2" points="1188.07,-189.36 1182.77,-180.19 1181.2,-190.67 1188.07,-189.36"/>
</g>
<!-- 44&#45;&gt;43 -->
<g id="edge100" class="edge">
<title>44&#45;&gt;43</title>
<path fill="none" stroke="grey" stroke-width="2" d="M1377.34,-367.38C1370.54,-364.97 1363.25,-362.39 1356.5,-360 1326.1,-349.25 1292.24,-337.28 1264.39,-327.44"/>
<polygon fill="grey" stroke="grey" stroke-width="2" points="1265.4,-324.09 1254.8,-324.06 1263.07,-330.69 1265.4,-324.09"/>
</g>
<!-- 45 -->
<g id="node46" class="node">
<title>45</title>
<path fill="none" stroke="#68d856" stroke-width="2" stroke-dasharray="5,2" d="M2339,-108C2339,-108 2274,-108 2274,-108 2268,-108 2262,-102 2262,-96 2262,-96 2262,-84 2262,-84 2262,-78 2268,-72 2274,-72 2274,-72 2339,-72 2339,-72 2345,-72 2351,-78 2351,-84 2351,-84 2351,-96 2351,-96 2351,-102 2345,-108 2339,-108"/>
<text text-anchor="middle" x="2306.5" y="-93" font-family="sans" font-size="10.00">years2days</text>
<text text-anchor="middle" x="2306.5" y="-82" font-family="sans" font-size="10.00">tree: SLE/SLE.8</text>
</g>
<!-- 45&#45;&gt;0 -->
<g id="edge9" class="edge">
<title>45&#45;&gt;0</title>
<path fill="none" stroke="grey" stroke-width="2" d="M2261.88,-73.86C2259.06,-73.16 2256.25,-72.53 2253.5,-72 1992.18,-21.34 1669.65,-18.12 1561.68,-18.6"/>
<polygon fill="grey" stroke="grey" stroke-width="2" points="1561.59,-15.11 1551.61,-18.66 1561.63,-22.1 1561.59,-15.11"/>
</g>
<!-- 46 -->
<g id="node47" class="node">
<title>46</title>
<path fill="none" stroke="#d8cb56" stroke-width="2" stroke-dasharray="5,2" d="M2190.5,-180C2190.5,-180 2160.5,-180 2160.5,-180 2154.5,-180 2148.5,-174 2148.5,-168 2148.5,-168 2148.5,-156 2148.5,-156 2148.5,-150 2154.5,-144 2160.5,-144 2160.5,-144 2190.5,-144 2190.5,-144 2196.5,-144 2202.5,-150 2202.5,-156 2202.5,-156 2202.5,-168 2202.5,-168 2202.5,-174 2196.5,-180 2190.5,-180"/>
<text text-anchor="middle" x="2175.5" y="-159.5" font-family="sans" font-size="10.00">SLE</text>
</g>
<!-- 46&#45;&gt;45 -->
<g id="edge106" class="edge">
<title>46&#45;&gt;45</title>
<path fill="none" stroke="grey" stroke-width="2" d="M2202.64,-146.5C2220.71,-136.84 2244.79,-123.98 2265.21,-113.06"/>
<polygon fill="grey" stroke="grey" stroke-width="2" points="2267.13,-116 2274.3,-108.2 2263.84,-109.83 2267.13,-116"/>
</g>
<!-- 63 -->
<g id="node64" class="node">
<title>63</title>
<path fill="none" stroke="#567bd8" stroke-width="2" stroke-dasharray="5,2" d="M2232,-108C2232,-108 2119,-108 2119,-108 2113,-108 2107,-102 2107,-96 2107,-96 2107,-84 2107,-84 2107,-78 2113,-72 2119,-72 2119,-72 2232,-72 2232,-72 2238,-72 2244,-78 2244,-84 2244,-84 2244,-96 2244,-96 2244,-102 2238,-108 2232,-108"/>
<text text-anchor="middle" x="2175.5" y="-87.5" font-family="sans" font-size="10.00">itol_selected_annotation</text>
</g>
<!-- 46&#45;&gt;63 -->
<g id="edge132" class="edge">
<title>46&#45;&gt;63</title>
<path fill="none" stroke="grey" stroke-width="2" d="M2175.5,-143.7C2175.5,-135.98 2175.5,-126.71 2175.5,-118.11"/>
<polygon fill="grey" stroke="grey" stroke-width="2" points="2179,-118.1 2175.5,-108.1 2172,-118.1 2179,-118.1"/>
</g>
<!-- 47 -->
<g id="node48" class="node">
<title>47</title>
<path fill="none" stroke="#d8a456" stroke-width="2" stroke-dasharray="5,2" d="M2190.5,-252C2190.5,-252 2160.5,-252 2160.5,-252 2154.5,-252 2148.5,-246 2148.5,-240 2148.5,-240 2148.5,-228 2148.5,-228 2148.5,-222 2154.5,-216 2160.5,-216 2160.5,-216 2190.5,-216 2190.5,-216 2196.5,-216 2202.5,-222 2202.5,-228 2202.5,-228 2202.5,-240 2202.5,-240 2202.5,-246 2196.5,-252 2190.5,-252"/>
<text text-anchor="middle" x="2175.5" y="-237" font-family="sans" font-size="10.00">pastml</text>
<text text-anchor="middle" x="2175.5" y="-226" font-family="sans" font-size="10.00">i: 8</text>
</g>
<!-- 47&#45;&gt;46 -->
<g id="edge107" class="edge">
<title>47&#45;&gt;46</title>
<path fill="none" stroke="grey" stroke-width="2" d="M2175.5,-215.7C2175.5,-207.98 2175.5,-198.71 2175.5,-190.11"/>
<polygon fill="grey" stroke="grey" stroke-width="2" points="2179,-190.1 2175.5,-180.1 2172,-190.1 2179,-190.1"/>
</g>
<!-- 73 -->
<g id="node74" class="node">
<title>73</title>
<path fill="none" stroke="#56d0d8" stroke-width="2" stroke-dasharray="5,2" d="M2280,-180C2280,-180 2233,-180 2233,-180 2227,-180 2221,-174 2221,-168 2221,-168 2221,-156 2221,-156 2221,-150 2227,-144 2233,-144 2233,-144 2280,-144 2280,-144 2286,-144 2292,-150 2292,-156 2292,-156 2292,-168 2292,-168 2292,-174 2286,-180 2280,-180"/>
<text text-anchor="middle" x="2256.5" y="-159.5" font-family="sans" font-size="10.00">pastml_itol</text>
</g>
<!-- 47&#45;&gt;73 -->
<g id="edge151" class="edge">
<title>47&#45;&gt;73</title>
<path fill="none" stroke="grey" stroke-width="2" d="M2195.52,-215.7C2205.63,-206.97 2218.04,-196.24 2229.02,-186.75"/>
<polygon fill="grey" stroke="grey" stroke-width="2" points="2231.43,-189.29 2236.71,-180.1 2226.85,-183.99 2231.43,-189.29"/>
</g>
<!-- 48&#45;&gt;47 -->
<g id="edge108" class="edge">
<title>48&#45;&gt;47</title>
<path fill="none" stroke="grey" stroke-width="2" d="M2175.5,-287.7C2175.5,-279.98 2175.5,-270.71 2175.5,-262.11"/>
<polygon fill="grey" stroke="grey" stroke-width="2" points="2179,-262.1 2175.5,-252.1 2172,-262.1 2179,-262.1"/>
</g>
<!-- 48&#45;&gt;73 -->
<g id="edge150" class="edge">
<title>48&#45;&gt;73</title>
<path fill="none" stroke="grey" stroke-width="2" d="M2188.08,-287.7C2195.27,-277.52 2204.27,-264.27 2211.5,-252 2223.59,-231.48 2235.67,-207.32 2244.27,-189.36"/>
<polygon fill="grey" stroke="grey" stroke-width="2" points="2247.55,-190.61 2248.67,-180.08 2241.23,-187.62 2247.55,-190.61"/>
</g>
<!-- 49&#45;&gt;48 -->
<g id="edge109" class="edge">
<title>49&#45;&gt;48</title>
<path fill="none" stroke="grey" stroke-width="2" d="M1732.66,-363.07C1735.6,-361.9 1738.58,-360.84 1741.5,-360 1776.02,-350.02 1996.88,-325.81 2109.56,-313.88"/>
<polygon fill="grey" stroke="grey" stroke-width="2" points="2110.22,-317.33 2119.79,-312.8 2109.48,-310.37 2110.22,-317.33"/>
</g>
<!-- 50 -->
<g id="node51" class="node">
<title>50</title>
<path fill="none" stroke="#68d856" stroke-width="2" stroke-dasharray="5,2" d="M1281,-108C1281,-108 1216,-108 1216,-108 1210,-108 1204,-102 1204,-96 1204,-96 1204,-84 1204,-84 1204,-78 1210,-72 1216,-72 1216,-72 1281,-72 1281,-72 1287,-72 1293,-78 1293,-84 1293,-84 1293,-96 1293,-96 1293,-102 1287,-108 1281,-108"/>
<text text-anchor="middle" x="1248.5" y="-93" font-family="sans" font-size="10.00">years2days</text>
<text text-anchor="middle" x="1248.5" y="-82" font-family="sans" font-size="10.00">tree: SLE/SLE.9</text>
</g>
<!-- 50&#45;&gt;0 -->
<g id="edge10" class="edge">
<title>50&#45;&gt;0</title>
<path fill="none" stroke="grey" stroke-width="2" d="M1293.25,-74.38C1296.03,-73.55 1298.8,-72.75 1301.5,-72 1366.4,-53.91 1443,-36.56 1487.43,-26.89"/>
<polygon fill="grey" stroke="grey" stroke-width="2" points="1488.18,-30.31 1497.21,-24.78 1486.69,-23.47 1488.18,-30.31"/>
</g>
<!-- 51 -->
<g id="node52" class="node">
<title>51</title>
<path fill="none" stroke="#d8cb56" stroke-width="2" stroke-dasharray="5,2" d="M1394.5,-180C1394.5,-180 1364.5,-180 1364.5,-180 1358.5,-180 1352.5,-174 1352.5,-168 1352.5,-168 1352.5,-156 1352.5,-156 1352.5,-150 1358.5,-144 1364.5,-144 1364.5,-144 1394.5,-144 1394.5,-144 1400.5,-144 1406.5,-150 1406.5,-156 1406.5,-156 1406.5,-168 1406.5,-168 1406.5,-174 1400.5,-180 1394.5,-180"/>
<text text-anchor="middle" x="1379.5" y="-159.5" font-family="sans" font-size="10.00">SLE</text>
</g>
<!-- 51&#45;&gt;50 -->
<g id="edge115" class="edge">
<title>51&#45;&gt;50</title>
<path fill="none" stroke="grey" stroke-width="2" d="M1352.36,-146.5C1334.29,-136.84 1310.21,-123.98 1289.79,-113.06"/>
<polygon fill="grey" stroke="grey" stroke-width="2" points="1291.16,-109.83 1280.7,-108.2 1287.87,-116 1291.16,-109.83"/>
</g>
<!-- 64 -->
<g id="node65" class="node">
<title>64</title>
<path fill="none" stroke="#567bd8" stroke-width="2" stroke-dasharray="5,2" d="M1436,-108C1436,-108 1323,-108 1323,-108 1317,-108 1311,-102 1311,-96 1311,-96 1311,-84 1311,-84 1311,-78 1317,-72 1323,-72 1323,-72 1436,-72 1436,-72 1442,-72 1448,-78 1448,-84 1448,-84 1448,-96 1448,-96 1448,-102 1442,-108 1436,-108"/>
<text text-anchor="middle" x="1379.5" y="-87.5" font-family="sans" font-size="10.00">itol_selected_annotation</text>
</g>
<!-- 51&#45;&gt;64 -->
<g id="edge133" class="edge">
<title>51&#45;&gt;64</title>
<path fill="none" stroke="grey" stroke-width="2" d="M1379.5,-143.7C1379.5,-135.98 1379.5,-126.71 1379.5,-118.11"/>
<polygon fill="grey" stroke="grey" stroke-width="2" points="1383,-118.1 1379.5,-108.1 1376,-118.1 1383,-118.1"/>
</g>
<!-- 52 -->
<g id="node53" class="node">
<title>52</title>
<path fill="none" stroke="#d8a456" stroke-width="2" stroke-dasharray="5,2" d="M1438.5,-252C1438.5,-252 1408.5,-252 1408.5,-252 1402.5,-252 1396.5,-246 1396.5,-240 1396.5,-240 1396.5,-228 1396.5,-228 1396.5,-222 1402.5,-216 1408.5,-216 1408.5,-216 1438.5,-216 1438.5,-216 1444.5,-216 1450.5,-222 1450.5,-228 1450.5,-228 1450.5,-240 1450.5,-240 1450.5,-246 1444.5,-252 1438.5,-252"/>
<text text-anchor="middle" x="1423.5" y="-237" font-family="sans" font-size="10.00">pastml</text>
<text text-anchor="middle" x="1423.5" y="-226" font-family="sans" font-size="10.00">i: 9</text>
</g>
<!-- 52&#45;&gt;51 -->
<g id="edge116" class="edge">
<title>52&#45;&gt;51</title>
<path fill="none" stroke="grey" stroke-width="2" d="M1412.62,-215.7C1407.51,-207.56 1401.3,-197.69 1395.66,-188.7"/>
<polygon fill="grey" stroke="grey" stroke-width="2" points="1398.54,-186.71 1390.25,-180.1 1392.61,-190.43 1398.54,-186.71"/>
</g>
<!-- 74 -->
<g id="node75" class="node">
<title>74</title>
<path fill="none" stroke="#56d0d8" stroke-width="2" stroke-dasharray="5,2" d="M1500,-180C1500,-180 1453,-180 1453,-180 1447,-180 1441,-174 1441,-168 1441,-168 1441,-156 1441,-156 1441,-150 1447,-144 1453,-144 1453,-144 1500,-144 1500,-144 1506,-144 1512,-150 1512,-156 1512,-156 1512,-168 1512,-168 1512,-174 1506,-180 1500,-180"/>
<text text-anchor="middle" x="1476.5" y="-159.5" font-family="sans" font-size="10.00">pastml_itol</text>
</g>
<!-- 52&#45;&gt;74 -->
<g id="edge153" class="edge">
<title>52&#45;&gt;74</title>
<path fill="none" stroke="grey" stroke-width="2" d="M1436.6,-215.7C1442.89,-207.39 1450.55,-197.28 1457.46,-188.14"/>
<polygon fill="grey" stroke="grey" stroke-width="2" points="1460.3,-190.19 1463.55,-180.1 1454.72,-185.96 1460.3,-190.19"/>
</g>
<!-- 53&#45;&gt;52 -->
<g id="edge117" class="edge">
<title>53&#45;&gt;52</title>
<path fill="none" stroke="grey" stroke-width="2" d="M1464.9,-287.7C1458.38,-279.39 1450.43,-269.28 1443.25,-260.14"/>
<polygon fill="grey" stroke="grey" stroke-width="2" points="1445.87,-257.81 1436.94,-252.1 1440.37,-262.13 1445.87,-257.81"/>
</g>
<!-- 53&#45;&gt;74 -->
<g id="edge152" class="edge">
<title>53&#45;&gt;74</title>
<path fill="none" stroke="grey" stroke-width="2" d="M1478.26,-287.87C1477.92,-263.67 1477.29,-219.21 1476.89,-190.39"/>
<polygon fill="grey" stroke="grey" stroke-width="2" points="1480.38,-190.14 1476.74,-180.19 1473.38,-190.24 1480.38,-190.14"/>
</g>
<!-- 54&#45;&gt;53 -->
<g id="edge118" class="edge">
<title>54&#45;&gt;53</title>
<path fill="none" stroke="grey" stroke-width="2" d="M1481.51,-359.7C1481.07,-351.98 1480.54,-342.71 1480.05,-334.11"/>
<polygon fill="grey" stroke="grey" stroke-width="2" points="1483.54,-333.89 1479.48,-324.1 1476.55,-334.29 1483.54,-333.89"/>
</g>
<!-- 55&#45;&gt;0 -->
<g id="edge11" class="edge">
<title>55&#45;&gt;0</title>
<path fill="none" stroke="grey" stroke-width="2" d="M244.2,-74.05C249.03,-73.27 253.83,-72.57 258.5,-72 505.5,-41.73 1304.71,-23.57 1487.17,-19.75"/>
<polygon fill="grey" stroke="grey" stroke-width="2" points="1487.41,-23.25 1497.33,-19.54 1487.26,-16.25 1487.41,-23.25"/>
</g>
<!-- 56&#45;&gt;0 -->
<g id="edge12" class="edge">
<title>56&#45;&gt;0</title>
<path fill="none" stroke="grey" stroke-width="2" d="M1561.39,-71.7C1555.63,-63.47 1548.64,-53.48 1542.29,-44.42"/>
<polygon fill="grey" stroke="grey" stroke-width="2" points="1545.08,-42.29 1536.47,-36.1 1539.34,-46.3 1545.08,-42.29"/>
</g>
<!-- 57&#45;&gt;0 -->
<g id="edge13" class="edge">
<title>57&#45;&gt;0</title>
<path fill="none" stroke="grey" stroke-width="2" d="M1805.66,-74.87C1800.87,-73.89 1796.11,-72.93 1791.5,-72 1709.59,-55.48 1613.45,-36.5 1561.82,-26.33"/>
<polygon fill="grey" stroke="grey" stroke-width="2" points="1562.29,-22.86 1551.8,-24.36 1560.94,-29.73 1562.29,-22.86"/>
</g>
<!-- 58&#45;&gt;0 -->
<g id="edge14" class="edge">
<title>58&#45;&gt;0</title>
<path fill="none" stroke="grey" stroke-width="2" d="M2514.75,-73.24C2511.97,-72.79 2509.21,-72.37 2506.5,-72 2140.81,-22.1 1692.5,-18.68 1561.86,-18.83"/>
<polygon fill="grey" stroke="grey" stroke-width="2" points="1561.59,-15.33 1551.6,-18.85 1561.61,-22.33 1561.59,-15.33"/>
</g>
<!-- 59&#45;&gt;0 -->
<g id="edge15" class="edge">
<title>59&#45;&gt;0</title>
<path fill="none" stroke="grey" stroke-width="2" d="M2815.76,-73.2C2812.98,-72.75 2810.22,-72.35 2807.5,-72 2557.15,-39.45 1745.54,-23.01 1561.74,-19.65"/>
<polygon fill="grey" stroke="grey" stroke-width="2" points="1561.57,-16.15 1551.51,-19.47 1561.45,-23.15 1561.57,-16.15"/>
</g>
<!-- 60&#45;&gt;0 -->
<g id="edge16" class="edge">
<title>60&#45;&gt;0</title>
<path fill="none" stroke="grey" stroke-width="2" d="M739.25,-73.29C742.03,-72.82 744.79,-72.39 747.5,-72 1029.82,-31.44 1374.44,-21.74 1487,-19.58"/>
<polygon fill="grey" stroke="grey" stroke-width="2" points="1487.23,-23.07 1497.16,-19.39 1487.1,-16.08 1487.23,-23.07"/>
</g>
<!-- 61&#45;&gt;0 -->
<g id="edge17" class="edge">
<title>61&#45;&gt;0</title>
<path fill="none" stroke="grey" stroke-width="2" d="M438.24,-73.22C441.03,-72.77 443.79,-72.36 446.5,-72 851.49,-17.73 1348.73,-17.46 1487.19,-18.57"/>
<polygon fill="grey" stroke="grey" stroke-width="2" points="1487.24,-22.07 1497.27,-18.66 1487.3,-15.07 1487.24,-22.07"/>
</g>
<!-- 62&#45;&gt;0 -->
<g id="edge18" class="edge">
<title>62&#45;&gt;0</title>
<path fill="none" stroke="grey" stroke-width="2" d="M1040.28,-73.44C1043.05,-72.93 1045.8,-72.45 1048.5,-72 1210.81,-45.12 1406.58,-28.13 1487.12,-21.8"/>
<polygon fill="grey" stroke="grey" stroke-width="2" points="1487.56,-25.28 1497.26,-21.01 1487.02,-18.3 1487.56,-25.28"/>
</g>
<!-- 63&#45;&gt;0 -->
<g id="edge19" class="edge">
<title>63&#45;&gt;0</title>
<path fill="none" stroke="grey" stroke-width="2" d="M2106.76,-74.32C2101.94,-73.48 2097.16,-72.69 2092.5,-72 1893.43,-42.42 1652.51,-26.4 1561.61,-21.06"/>
<polygon fill="grey" stroke="grey" stroke-width="2" points="1561.72,-17.56 1551.53,-20.47 1561.31,-24.55 1561.72,-17.56"/>
</g>
<!-- 64&#45;&gt;0 -->
<g id="edge20" class="edge">
<title>64&#45;&gt;0</title>
<path fill="none" stroke="grey" stroke-width="2" d="M1414.97,-71.88C1437.13,-61.18 1465.59,-47.44 1487.94,-36.65"/>
<polygon fill="grey" stroke="grey" stroke-width="2" points="1489.63,-39.72 1497.12,-32.22 1486.59,-33.42 1489.63,-39.72"/>
</g>
<!-- 65&#45;&gt;0 -->
<g id="edge21" class="edge">
<title>65&#45;&gt;0</title>
<path fill="none" stroke="grey" stroke-width="2" d="M323.15,-143.81C299.96,-124.73 270.64,-93.77 291.5,-72 333.91,-27.73 1286.28,-20.25 1487.41,-19.17"/>
<polygon fill="grey" stroke="grey" stroke-width="2" points="1487.49,-22.67 1497.48,-19.12 1487.46,-15.67 1487.49,-22.67"/>
</g>
<!-- 66&#45;&gt;0 -->
<g id="edge22" class="edge">
<title>66&#45;&gt;0</title>
<path fill="none" stroke="grey" stroke-width="2" d="M1745.83,-143.82C1759.1,-124.48 1775.28,-93 1758.5,-72 1734.28,-41.68 1621.37,-27.42 1561.69,-21.9"/>
<polygon fill="grey" stroke="grey" stroke-width="2" points="1561.82,-18.4 1551.55,-21 1561.2,-25.37 1561.82,-18.4"/>
</g>
<!-- 67&#45;&gt;0 -->
<g id="edge23" class="edge">
<title>67&#45;&gt;0</title>
<path fill="none" stroke="grey" stroke-width="2" d="M2036.14,-143.88C2054.95,-124.58 2078.66,-93.15 2059.5,-72 2026.12,-35.15 1677.6,-22.92 1561.73,-19.86"/>
<polygon fill="grey" stroke="grey" stroke-width="2" points="1561.66,-16.36 1551.57,-19.6 1561.48,-23.36 1561.66,-16.36"/>
</g>
<!-- 68&#45;&gt;0 -->
<g id="edge24" class="edge">
<title>68&#45;&gt;0</title>
<path fill="none" stroke="grey" stroke-width="2" d="M2569.06,-157.02C2599.33,-151.55 2641.05,-138.6 2661.5,-108 2670.39,-94.7 2672.55,-83.57 2661.5,-72 2622.67,-31.31 1753.44,-21.08 1561.7,-19.31"/>
<polygon fill="grey" stroke="grey" stroke-width="2" points="1561.59,-15.81 1551.56,-19.22 1561.53,-22.81 1561.59,-15.81"/>
</g>
<!-- 69&#45;&gt;0 -->
<g id="edge25" class="edge">
<title>69&#45;&gt;0</title>
<path fill="none" stroke="grey" stroke-width="2" d="M2870.06,-157.02C2900.33,-151.55 2942.05,-138.6 2962.5,-108 2971.39,-94.7 2973.6,-83.52 2962.5,-72 2912.45,-20.07 1782.19,-18.7 1561.62,-18.93"/>
<polygon fill="grey" stroke="grey" stroke-width="2" points="1561.52,-15.43 1551.53,-18.94 1561.53,-22.43 1561.52,-15.43"/>
</g>
<!-- 70&#45;&gt;0 -->
<g id="edge26" class="edge">
<title>70&#45;&gt;0</title>
<path fill="none" stroke="grey" stroke-width="2" d="M878.15,-143.8C875.3,-123.52 874.29,-90.27 893.5,-72 936.6,-31.01 1357.78,-21.45 1487,-19.47"/>
<polygon fill="grey" stroke="grey" stroke-width="2" points="1487.24,-22.97 1497.19,-19.32 1487.14,-15.97 1487.24,-22.97"/>
</g>
<!-- 71&#45;&gt;0 -->
<g id="edge27" class="edge">
<title>71&#45;&gt;0</title>
<path fill="none" stroke="grey" stroke-width="2" d="M635.79,-146.61C619.47,-138.01 601.75,-125.34 592.5,-108 584.97,-93.88 581.51,-83.63 592.5,-72 623.72,-38.95 1316.55,-23.11 1486.91,-19.71"/>
<polygon fill="grey" stroke="grey" stroke-width="2" points="1487.21,-23.21 1497.14,-19.51 1487.08,-16.21 1487.21,-23.21"/>
</g>
<!-- 72&#45;&gt;0 -->
<g id="edge28" class="edge">
<title>72&#45;&gt;0</title>
<path fill="none" stroke="grey" stroke-width="2" d="M1177.04,-143.97C1175.18,-123.85 1175.59,-90.76 1194.5,-72 1235.17,-31.65 1409.43,-22.01 1487.01,-19.72"/>
<polygon fill="grey" stroke="grey" stroke-width="2" points="1487.38,-23.21 1497.29,-19.44 1487.2,-16.21 1487.38,-23.21"/>
</g>
<!-- 73&#45;&gt;0 -->
<g id="edge29" class="edge">
<title>73&#45;&gt;0</title>
<path fill="none" stroke="grey" stroke-width="2" d="M2292.08,-153.12C2315.96,-145.77 2345.68,-132.19 2360.5,-108 2368.86,-94.36 2371.45,-83.67 2360.5,-72 2332.8,-42.49 1721,-24.22 1561.99,-19.96"/>
<polygon fill="grey" stroke="grey" stroke-width="2" points="1561.85,-16.46 1551.76,-19.69 1561.66,-23.46 1561.85,-16.46"/>
</g>
<!-- 74&#45;&gt;0 -->
<g id="edge30" class="edge">
<title>74&#45;&gt;0</title>
<path fill="none" stroke="grey" stroke-width="2" d="M1478.65,-143.86C1481.28,-125.62 1486.54,-96.14 1495.5,-72 1498.9,-62.86 1503.65,-53.36 1508.33,-44.98"/>
<polygon fill="grey" stroke="grey" stroke-width="2" points="1511.51,-46.47 1513.5,-36.06 1505.46,-42.95 1511.51,-46.47"/>
</g>
</g>
</svg>
