<?xml version="1.0" encoding="UTF-8" standalone="no"?>
<!DOCTYPE svg PUBLIC "-//W3C//DTD SVG 1.1//EN"
 "http://www.w3.org/Graphics/SVG/1.1/DTD/svg11.dtd">
<!-- Generated by graphviz version 2.43.0 (0)
 -->
<!-- Title: snakemake_dag Pages: 1 -->
<svg width="1723pt" height="620pt"
 viewBox="0.00 0.00 1722.53 620.00" xmlns="http://www.w3.org/2000/svg" xmlns:xlink="http://www.w3.org/1999/xlink">
<g id="graph0" class="graph" transform="scale(1 1) rotate(0) translate(4 616)">
<title>snakemake_dag</title>
<polygon fill="white" stroke="transparent" points="-4,4 -4,-616 1718.53,-616 1718.53,4 -4,4"/>
<!-- 0 -->
<g id="node1" class="node">
<title>0</title>
<path fill="none" stroke="#56d8c9" stroke-width="2" d="M964.03,-36C964.03,-36 934.03,-36 934.03,-36 928.03,-36 922.03,-30 922.03,-24 922.03,-24 922.03,-12 922.03,-12 922.03,-6 928.03,0 934.03,0 934.03,0 964.03,0 964.03,0 970.03,0 976.03,-6 976.03,-12 976.03,-12 976.03,-24 976.03,-24 976.03,-30 970.03,-36 964.03,-36"/>
<text text-anchor="middle" x="949.03" y="-15.5" font-family="sans" font-size="10.00">all</text>
</g>
<!-- 1 -->
<g id="node2" class="node">
<title>1</title>
<path fill="none" stroke="#d87d56" stroke-width="2" d="M1518.53,-108C1518.53,-108 1415.53,-108 1415.53,-108 1409.53,-108 1403.53,-102 1403.53,-96 1403.53,-96 1403.53,-84 1403.53,-84 1403.53,-78 1409.53,-72 1415.53,-72 1415.53,-72 1518.53,-72 1518.53,-72 1524.53,-72 1530.53,-78 1530.53,-84 1530.53,-84 1530.53,-96 1530.53,-96 1530.53,-102 1524.53,-108 1518.53,-108"/>
<text text-anchor="middle" x="1467.03" y="-93" font-family="sans" font-size="10.00">years2days</text>
<text text-anchor="middle" x="1467.03" y="-82" font-family="sans" font-size="10.00">tree: SLE/SLE.bottom.0</text>
</g>
<!-- 1&#45;&gt;0 -->
<g id="edge1" class="edge">
<title>1&#45;&gt;0</title>
<path fill="none" stroke="grey" stroke-width="2" d="M1403.51,-73.59C1400.65,-73.03 1397.82,-72.49 1395.03,-72 1244.52,-45.38 1063,-28.45 986.21,-21.98"/>
<polygon fill="grey" stroke="grey" stroke-width="2" points="986.34,-18.48 976.09,-21.14 985.76,-25.45 986.34,-18.48"/>
</g>
<!-- 2 -->
<g id="node3" class="node">
<title>2</title>
<path fill="none" stroke="#d8a456" stroke-width="2" d="M1378.03,-180C1378.03,-180 1334.03,-180 1334.03,-180 1328.03,-180 1322.03,-174 1322.03,-168 1322.03,-168 1322.03,-156 1322.03,-156 1322.03,-150 1328.03,-144 1334.03,-144 1334.03,-144 1378.03,-144 1378.03,-144 1384.03,-144 1390.03,-150 1390.03,-156 1390.03,-156 1390.03,-168 1390.03,-168 1390.03,-174 1384.03,-180 1378.03,-180"/>
<text text-anchor="middle" x="1356.03" y="-159.5" font-family="sans" font-size="10.00">SLE_forest</text>
</g>
<!-- 2&#45;&gt;1 -->
<g id="edge13" class="edge">
<title>2&#45;&gt;1</title>
<path fill="none" stroke="grey" stroke-width="2" d="M1383.19,-143.88C1397.57,-134.81 1415.42,-123.55 1430.95,-113.76"/>
<polygon fill="grey" stroke="grey" stroke-width="2" points="1433.19,-116.48 1439.78,-108.19 1429.45,-110.56 1433.19,-116.48"/>
</g>
<!-- 56 -->
<g id="node57" class="node">
<title>56</title>
<path fill="none" stroke="#56c9d8" stroke-width="2" d="M1373.53,-108C1373.53,-108 1260.53,-108 1260.53,-108 1254.53,-108 1248.53,-102 1248.53,-96 1248.53,-96 1248.53,-84 1248.53,-84 1248.53,-78 1254.53,-72 1260.53,-72 1260.53,-72 1373.53,-72 1373.53,-72 1379.53,-72 1385.53,-78 1385.53,-84 1385.53,-84 1385.53,-96 1385.53,-96 1385.53,-102 1379.53,-108 1373.53,-108"/>
<text text-anchor="middle" x="1317.03" y="-87.5" font-family="sans" font-size="10.00">itol_selected_annotation</text>
</g>
<!-- 2&#45;&gt;56 -->
<g id="edge107" class="edge">
<title>2&#45;&gt;56</title>
<path fill="none" stroke="grey" stroke-width="2" d="M1346.39,-143.7C1341.91,-135.64 1336.48,-125.89 1331.51,-116.98"/>
<polygon fill="grey" stroke="grey" stroke-width="2" points="1334.49,-115.14 1326.56,-108.1 1328.37,-118.54 1334.49,-115.14"/>
</g>
<!-- 3 -->
<g id="node4" class="node">
<title>3</title>
<path fill="none" stroke="#9fd856" stroke-width="2" d="M1381.03,-252C1381.03,-252 1351.03,-252 1351.03,-252 1345.03,-252 1339.03,-246 1339.03,-240 1339.03,-240 1339.03,-228 1339.03,-228 1339.03,-222 1345.03,-216 1351.03,-216 1351.03,-216 1381.03,-216 1381.03,-216 1387.03,-216 1393.03,-222 1393.03,-228 1393.03,-228 1393.03,-240 1393.03,-240 1393.03,-246 1387.03,-252 1381.03,-252"/>
<text text-anchor="middle" x="1366.03" y="-237" font-family="sans" font-size="10.00">pastml</text>
<text text-anchor="middle" x="1366.03" y="-226" font-family="sans" font-size="10.00">i: 0</text>
</g>
<!-- 3&#45;&gt;2 -->
<g id="edge14" class="edge">
<title>3&#45;&gt;2</title>
<path fill="none" stroke="grey" stroke-width="2" d="M1363.56,-215.7C1362.46,-207.98 1361.14,-198.71 1359.91,-190.11"/>
<polygon fill="grey" stroke="grey" stroke-width="2" points="1363.36,-189.51 1358.48,-180.1 1356.43,-190.5 1363.36,-189.51"/>
</g>
<!-- 57 -->
<g id="node58" class="node">
<title>57</title>
<path fill="none" stroke="#d8c356" stroke-width="2" d="M1467.53,-180C1467.53,-180 1420.53,-180 1420.53,-180 1414.53,-180 1408.53,-174 1408.53,-168 1408.53,-168 1408.53,-156 1408.53,-156 1408.53,-150 1414.53,-144 1420.53,-144 1420.53,-144 1467.53,-144 1467.53,-144 1473.53,-144 1479.53,-150 1479.53,-156 1479.53,-156 1479.53,-168 1479.53,-168 1479.53,-174 1473.53,-180 1467.53,-180"/>
<text text-anchor="middle" x="1444.03" y="-159.5" font-family="sans" font-size="10.00">pastml_itol</text>
</g>
<!-- 3&#45;&gt;57 -->
<g id="edge109" class="edge">
<title>3&#45;&gt;57</title>
<path fill="none" stroke="grey" stroke-width="2" d="M1385.32,-215.7C1394.95,-207.05 1406.76,-196.45 1417.26,-187.03"/>
<polygon fill="grey" stroke="grey" stroke-width="2" points="1419.87,-189.39 1424.98,-180.1 1415.2,-184.18 1419.87,-189.39"/>
</g>
<!-- 4 -->
<g id="node5" class="node">
<title>4</title>
<path fill="none" stroke="#59d856" stroke-width="2" stroke-dasharray="5,2" d="M1409.53,-324C1409.53,-324 1322.53,-324 1322.53,-324 1316.53,-324 1310.53,-318 1310.53,-312 1310.53,-312 1310.53,-300 1310.53,-300 1310.53,-294 1316.53,-288 1322.53,-288 1322.53,-288 1409.53,-288 1409.53,-288 1415.53,-288 1421.53,-294 1421.53,-300 1421.53,-300 1421.53,-312 1421.53,-312 1421.53,-318 1415.53,-324 1409.53,-324"/>
<text text-anchor="middle" x="1366.03" y="-309" font-family="sans" font-size="10.00">date_lsd2_resolved</text>
<text text-anchor="middle" x="1366.03" y="-298" font-family="sans" font-size="10.00">tree: tree.0</text>
</g>
<!-- 4&#45;&gt;3 -->
<g id="edge15" class="edge">
<title>4&#45;&gt;3</title>
<path fill="none" stroke="grey" stroke-width="2" d="M1366.03,-287.7C1366.03,-279.98 1366.03,-270.71 1366.03,-262.11"/>
<polygon fill="grey" stroke="grey" stroke-width="2" points="1369.54,-262.1 1366.03,-252.1 1362.54,-262.1 1369.54,-262.1"/>
</g>
<!-- 4&#45;&gt;57 -->
<g id="edge108" class="edge">
<title>4&#45;&gt;57</title>
<path fill="none" stroke="grey" stroke-width="2" d="M1378.74,-287.77C1385.98,-277.61 1394.98,-264.36 1402.03,-252 1413.69,-231.59 1424.94,-207.43 1432.86,-189.43"/>
<polygon fill="grey" stroke="grey" stroke-width="2" points="1436.13,-190.69 1436.9,-180.13 1429.71,-187.91 1436.13,-190.69"/>
</g>
<!-- 5 -->
<g id="node6" class="node">
<title>5</title>
<path fill="none" stroke="#56d8a2" stroke-width="2" stroke-dasharray="5,2" d="M1129.03,-396C1129.03,-396 1099.03,-396 1099.03,-396 1093.03,-396 1087.03,-390 1087.03,-384 1087.03,-384 1087.03,-372 1087.03,-372 1087.03,-366 1093.03,-360 1099.03,-360 1099.03,-360 1129.03,-360 1129.03,-360 1135.03,-360 1141.03,-366 1141.03,-372 1141.03,-372 1141.03,-384 1141.03,-384 1141.03,-390 1135.03,-396 1129.03,-396"/>
<text text-anchor="middle" x="1114.03" y="-381" font-family="sans" font-size="10.00">resolve</text>
<text text-anchor="middle" x="1114.03" y="-370" font-family="sans" font-size="10.00">i: 0</text>
</g>
<!-- 5&#45;&gt;4 -->
<g id="edge16" class="edge">
<title>5&#45;&gt;4</title>
<path fill="none" stroke="grey" stroke-width="2" d="M1141.06,-366.97C1147.87,-364.57 1155.19,-362.1 1162.03,-360 1207.84,-345.97 1260.14,-332.43 1300.32,-322.55"/>
<polygon fill="grey" stroke="grey" stroke-width="2" points="1301.38,-325.89 1310.26,-320.11 1299.71,-319.09 1301.38,-325.89"/>
</g>
<!-- 6 -->
<g id="node7" class="node">
<title>6</title>
<path fill="none" stroke="#c6d856" stroke-width="2" stroke-dasharray="5,2" d="M1003.03,-612C1003.03,-612 973.03,-612 973.03,-612 967.03,-612 961.03,-606 961.03,-600 961.03,-600 961.03,-588 961.03,-588 961.03,-582 967.03,-576 973.03,-576 973.03,-576 1003.03,-576 1003.03,-576 1009.03,-576 1015.03,-582 1015.03,-588 1015.03,-588 1015.03,-600 1015.03,-600 1015.03,-606 1009.03,-612 1003.03,-612"/>
<text text-anchor="middle" x="988.03" y="-591.5" font-family="sans" font-size="10.00">raxml</text>
</g>
<!-- 6&#45;&gt;5 -->
<g id="edge19" class="edge">
<title>6&#45;&gt;5</title>
<path fill="none" stroke="grey" stroke-width="2" d="M1015.04,-588.16C1042.16,-581.85 1083.13,-568.12 1106.03,-540 1136.79,-502.25 1129.43,-441.44 1121.57,-406.35"/>
<polygon fill="grey" stroke="grey" stroke-width="2" points="1124.9,-405.24 1119.15,-396.35 1118.09,-406.89 1124.9,-405.24"/>
</g>
<!-- 8 -->
<g id="node9" class="node">
<title>8</title>
<path fill="none" stroke="#78d856" stroke-width="2" stroke-dasharray="5,2" d="M1018.03,-540C1018.03,-540 958.03,-540 958.03,-540 952.03,-540 946.03,-534 946.03,-528 946.03,-528 946.03,-516 946.03,-516 946.03,-510 952.03,-504 958.03,-504 958.03,-504 1018.03,-504 1018.03,-504 1024.03,-504 1030.03,-510 1030.03,-516 1030.03,-516 1030.03,-528 1030.03,-528 1030.03,-534 1024.03,-540 1018.03,-540"/>
<text text-anchor="middle" x="988.03" y="-519.5" font-family="sans" font-size="10.00">date_full_tree</text>
</g>
<!-- 6&#45;&gt;8 -->
<g id="edge23" class="edge">
<title>6&#45;&gt;8</title>
<path fill="none" stroke="grey" stroke-width="2" d="M988.03,-575.7C988.03,-567.98 988.03,-558.71 988.03,-550.11"/>
<polygon fill="grey" stroke="grey" stroke-width="2" points="991.54,-550.1 988.03,-540.1 984.54,-550.1 991.54,-550.1"/>
</g>
<!-- 15 -->
<g id="node16" class="node">
<title>15</title>
<path fill="none" stroke="#56d8a2" stroke-width="2" d="M1049.03,-396C1049.03,-396 1019.03,-396 1019.03,-396 1013.03,-396 1007.03,-390 1007.03,-384 1007.03,-384 1007.03,-372 1007.03,-372 1007.03,-366 1013.03,-360 1019.03,-360 1019.03,-360 1049.03,-360 1049.03,-360 1055.03,-360 1061.03,-366 1061.03,-372 1061.03,-372 1061.03,-384 1061.03,-384 1061.03,-390 1055.03,-396 1049.03,-396"/>
<text text-anchor="middle" x="1034.03" y="-381" font-family="sans" font-size="10.00">resolve</text>
<text text-anchor="middle" x="1034.03" y="-370" font-family="sans" font-size="10.00">i: 1</text>
</g>
<!-- 6&#45;&gt;15 -->
<g id="edge32" class="edge">
<title>6&#45;&gt;15</title>
<path fill="none" stroke="grey" stroke-width="2" d="M1015.12,-586.95C1038.98,-580.02 1072.33,-566.1 1088.03,-540 1114.55,-495.94 1079.87,-437.19 1055.07,-404.21"/>
<polygon fill="grey" stroke="grey" stroke-width="2" points="1057.61,-401.77 1048.71,-396.02 1052.08,-406.06 1057.61,-401.77"/>
</g>
<!-- 20 -->
<g id="node21" class="node">
<title>20</title>
<path fill="none" stroke="#56d8a2" stroke-width="2" d="M669.03,-396C669.03,-396 639.03,-396 639.03,-396 633.03,-396 627.03,-390 627.03,-384 627.03,-384 627.03,-372 627.03,-372 627.03,-366 633.03,-360 639.03,-360 639.03,-360 669.03,-360 669.03,-360 675.03,-360 681.03,-366 681.03,-372 681.03,-372 681.03,-384 681.03,-384 681.03,-390 675.03,-396 669.03,-396"/>
<text text-anchor="middle" x="654.03" y="-381" font-family="sans" font-size="10.00">resolve</text>
<text text-anchor="middle" x="654.03" y="-370" font-family="sans" font-size="10.00">i: 2</text>
</g>
<!-- 6&#45;&gt;20 -->
<g id="edge41" class="edge">
<title>6&#45;&gt;20</title>
<path fill="none" stroke="grey" stroke-width="2" d="M960.82,-585.39C933.09,-576.89 889.51,-561.46 856.03,-540 836.45,-527.44 837.65,-516.51 818.03,-504 781.36,-480.62 762.17,-493.63 727.03,-468 703.51,-450.84 683.12,-424.39 669.92,-404.78"/>
<polygon fill="grey" stroke="grey" stroke-width="2" points="672.77,-402.75 664.37,-396.31 666.92,-406.59 672.77,-402.75"/>
</g>
<!-- 25 -->
<g id="node26" class="node">
<title>25</title>
<path fill="none" stroke="#56d8a2" stroke-width="2" d="M511.03,-396C511.03,-396 481.03,-396 481.03,-396 475.03,-396 469.03,-390 469.03,-384 469.03,-384 469.03,-372 469.03,-372 469.03,-366 475.03,-360 481.03,-360 481.03,-360 511.03,-360 511.03,-360 517.03,-360 523.03,-366 523.03,-372 523.03,-372 523.03,-384 523.03,-384 523.03,-390 517.03,-396 511.03,-396"/>
<text text-anchor="middle" x="496.03" y="-381" font-family="sans" font-size="10.00">resolve</text>
<text text-anchor="middle" x="496.03" y="-370" font-family="sans" font-size="10.00">i: 3</text>
</g>
<!-- 6&#45;&gt;25 -->
<g id="edge50" class="edge">
<title>6&#45;&gt;25</title>
<path fill="none" stroke="grey" stroke-width="2" d="M960.83,-590.48C919.5,-585.72 839.43,-572.75 780.03,-540 759.66,-528.77 761.99,-515.96 742.03,-504 698.64,-477.98 678.35,-492.42 634.03,-468 611.91,-455.8 610.89,-446.26 590.03,-432 571.6,-419.4 549.94,-407.04 532.07,-397.43"/>
<polygon fill="grey" stroke="grey" stroke-width="2" points="533.58,-394.27 523.11,-392.67 530.3,-400.45 533.58,-394.27"/>
</g>
<!-- 30 -->
<g id="node31" class="node">
<title>30</title>
<path fill="none" stroke="#56d8a2" stroke-width="2" d="M894.03,-396C894.03,-396 864.03,-396 864.03,-396 858.03,-396 852.03,-390 852.03,-384 852.03,-384 852.03,-372 852.03,-372 852.03,-366 858.03,-360 864.03,-360 864.03,-360 894.03,-360 894.03,-360 900.03,-360 906.03,-366 906.03,-372 906.03,-372 906.03,-384 906.03,-384 906.03,-390 900.03,-396 894.03,-396"/>
<text text-anchor="middle" x="879.03" y="-381" font-family="sans" font-size="10.00">resolve</text>
<text text-anchor="middle" x="879.03" y="-370" font-family="sans" font-size="10.00">i: 4</text>
</g>
<!-- 6&#45;&gt;30 -->
<g id="edge59" class="edge">
<title>6&#45;&gt;30</title>
<path fill="none" stroke="grey" stroke-width="2" d="M1011.34,-575.82C1021.94,-566.54 1033.35,-554.09 1039.03,-540 1045.02,-525.16 1046.05,-518.38 1039.03,-504 1013.54,-451.72 954.43,-414.9 915.64,-395.33"/>
<polygon fill="grey" stroke="grey" stroke-width="2" points="916.77,-391.99 906.25,-390.73 913.69,-398.27 916.77,-391.99"/>
</g>
<!-- 35 -->
<g id="node36" class="node">
<title>35</title>
<path fill="none" stroke="#56d8a2" stroke-width="2" d="M421.03,-396C421.03,-396 391.03,-396 391.03,-396 385.03,-396 379.03,-390 379.03,-384 379.03,-384 379.03,-372 379.03,-372 379.03,-366 385.03,-360 391.03,-360 391.03,-360 421.03,-360 421.03,-360 427.03,-360 433.03,-366 433.03,-372 433.03,-372 433.03,-384 433.03,-384 433.03,-390 427.03,-396 421.03,-396"/>
<text text-anchor="middle" x="406.03" y="-381" font-family="sans" font-size="10.00">resolve</text>
<text text-anchor="middle" x="406.03" y="-370" font-family="sans" font-size="10.00">i: 5</text>
</g>
<!-- 6&#45;&gt;35 -->
<g id="edge68" class="edge">
<title>6&#45;&gt;35</title>
<path fill="none" stroke="grey" stroke-width="2" d="M960.92,-589.25C915,-582.44 819.4,-566.26 742.03,-540 671.25,-515.97 657.46,-500.27 590.03,-468 538.76,-443.46 479.61,-414.78 442.52,-396.76"/>
<polygon fill="grey" stroke="grey" stroke-width="2" points="443.65,-393.41 433.13,-392.19 440.59,-399.71 443.65,-393.41"/>
</g>
<!-- 40 -->
<g id="node41" class="node">
<title>40</title>
<path fill="none" stroke="#56d8a2" stroke-width="2" d="M743.03,-396C743.03,-396 713.03,-396 713.03,-396 707.03,-396 701.03,-390 701.03,-384 701.03,-384 701.03,-372 701.03,-372 701.03,-366 707.03,-360 713.03,-360 713.03,-360 743.03,-360 743.03,-360 749.03,-360 755.03,-366 755.03,-372 755.03,-372 755.03,-384 755.03,-384 755.03,-390 749.03,-396 743.03,-396"/>
<text text-anchor="middle" x="728.03" y="-381" font-family="sans" font-size="10.00">resolve</text>
<text text-anchor="middle" x="728.03" y="-370" font-family="sans" font-size="10.00">i: 6</text>
</g>
<!-- 6&#45;&gt;40 -->
<g id="edge77" class="edge">
<title>6&#45;&gt;40</title>
<path fill="none" stroke="grey" stroke-width="2" d="M966.74,-575.93C941.54,-556.39 897.72,-524.45 856.03,-504 810.23,-481.53 781.1,-505.98 747.03,-468 732.08,-451.33 727.86,-425.83 727.08,-406.39"/>
<polygon fill="grey" stroke="grey" stroke-width="2" points="730.57,-406.27 726.94,-396.31 723.57,-406.36 730.57,-406.27"/>
</g>
<!-- 45 -->
<g id="node46" class="node">
<title>45</title>
<path fill="none" stroke="#56d8a2" stroke-width="2" d="M968.03,-396C968.03,-396 938.03,-396 938.03,-396 932.03,-396 926.03,-390 926.03,-384 926.03,-384 926.03,-372 926.03,-372 926.03,-366 932.03,-360 938.03,-360 938.03,-360 968.03,-360 968.03,-360 974.03,-360 980.03,-366 980.03,-372 980.03,-372 980.03,-384 980.03,-384 980.03,-390 974.03,-396 968.03,-396"/>
<text text-anchor="middle" x="953.03" y="-381" font-family="sans" font-size="10.00">resolve</text>
<text text-anchor="middle" x="953.03" y="-370" font-family="sans" font-size="10.00">i: 7</text>
</g>
<!-- 6&#45;&gt;45 -->
<g id="edge86" class="edge">
<title>6&#45;&gt;45</title>
<path fill="none" stroke="grey" stroke-width="2" d="M1015.32,-583.93C1034.96,-575.8 1060.04,-561.74 1072.03,-540 1079.76,-525.99 1077.72,-518.96 1072.03,-504 1055.66,-460.92 1016,-424.48 986.95,-402.26"/>
<polygon fill="grey" stroke="grey" stroke-width="2" points="988.8,-399.27 978.69,-396.1 984.61,-404.88 988.8,-399.27"/>
</g>
<!-- 50 -->
<g id="node51" class="node">
<title>50</title>
<path fill="none" stroke="#56d8a2" stroke-width="2" d="M1213.03,-396C1213.03,-396 1183.03,-396 1183.03,-396 1177.03,-396 1171.03,-390 1171.03,-384 1171.03,-384 1171.03,-372 1171.03,-372 1171.03,-366 1177.03,-360 1183.03,-360 1183.03,-360 1213.03,-360 1213.03,-360 1219.03,-360 1225.03,-366 1225.03,-372 1225.03,-372 1225.03,-384 1225.03,-384 1225.03,-390 1219.03,-396 1213.03,-396"/>
<text text-anchor="middle" x="1198.03" y="-381" font-family="sans" font-size="10.00">resolve</text>
<text text-anchor="middle" x="1198.03" y="-370" font-family="sans" font-size="10.00">i: 8</text>
</g>
<!-- 6&#45;&gt;50 -->
<g id="edge95" class="edge">
<title>6&#45;&gt;50</title>
<path fill="none" stroke="grey" stroke-width="2" d="M1015.09,-589.19C1046.01,-583.53 1096.43,-570.12 1128.03,-540 1166.63,-503.22 1185.16,-441.55 1193.03,-406.16"/>
<polygon fill="grey" stroke="grey" stroke-width="2" points="1196.52,-406.58 1195.14,-396.08 1189.67,-405.15 1196.52,-406.58"/>
</g>
<!-- 55 -->
<g id="node56" class="node">
<title>55</title>
<path fill="none" stroke="#56d8a2" stroke-width="2" stroke-dasharray="5,2" d="M592.03,-396C592.03,-396 562.03,-396 562.03,-396 556.03,-396 550.03,-390 550.03,-384 550.03,-384 550.03,-372 550.03,-372 550.03,-366 556.03,-360 562.03,-360 562.03,-360 592.03,-360 592.03,-360 598.03,-360 604.03,-366 604.03,-372 604.03,-372 604.03,-384 604.03,-384 604.03,-390 598.03,-396 592.03,-396"/>
<text text-anchor="middle" x="577.03" y="-381" font-family="sans" font-size="10.00">resolve</text>
<text text-anchor="middle" x="577.03" y="-370" font-family="sans" font-size="10.00">i: 9</text>
</g>
<!-- 6&#45;&gt;55 -->
<g id="edge104" class="edge">
<title>6&#45;&gt;55</title>
<path fill="none" stroke="grey" stroke-width="2" d="M960.86,-588.49C925.94,-581.83 864.31,-567.13 818.03,-540 797.97,-528.23 799.7,-516.43 780.03,-504 742.57,-480.31 725.39,-490.21 687.03,-468 655.41,-449.69 623.41,-422.62 602.13,-403.14"/>
<polygon fill="grey" stroke="grey" stroke-width="2" points="604.51,-400.57 594.8,-396.34 599.75,-405.71 604.51,-400.57"/>
</g>
<!-- 7 -->
<g id="node8" class="node">
<title>7</title>
<path fill="none" stroke="#d85656" stroke-width="2" stroke-dasharray="5,2" d="M840.03,-468C840.03,-468 768.03,-468 768.03,-468 762.03,-468 756.03,-462 756.03,-456 756.03,-456 756.03,-444 756.03,-444 756.03,-438 762.03,-432 768.03,-432 768.03,-432 840.03,-432 840.03,-432 846.03,-432 852.03,-438 852.03,-444 852.03,-444 852.03,-456 852.03,-456 852.03,-462 846.03,-468 840.03,-468"/>
<text text-anchor="middle" x="804.03" y="-447.5" font-family="sans" font-size="10.00">pastml_full_tree</text>
</g>
<!-- 7&#45;&gt;5 -->
<g id="edge20" class="edge">
<title>7&#45;&gt;5</title>
<path fill="none" stroke="grey" stroke-width="2" d="M852.2,-441.96C905.95,-433.52 995.2,-417.74 1070.03,-396 1072.44,-395.3 1074.91,-394.52 1077.37,-393.7"/>
<polygon fill="grey" stroke="grey" stroke-width="2" points="1078.57,-396.99 1086.82,-390.35 1076.23,-390.39 1078.57,-396.99"/>
</g>
<!-- 7&#45;&gt;15 -->
<g id="edge33" class="edge">
<title>7&#45;&gt;15</title>
<path fill="none" stroke="grey" stroke-width="2" d="M852.28,-436.35C889.81,-426.22 943.05,-411.24 989.03,-396 991.62,-395.14 994.28,-394.23 996.95,-393.28"/>
<polygon fill="grey" stroke="grey" stroke-width="2" points="998.36,-396.5 1006.56,-389.79 995.96,-389.92 998.36,-396.5"/>
</g>
<!-- 7&#45;&gt;20 -->
<g id="edge42" class="edge">
<title>7&#45;&gt;20</title>
<path fill="none" stroke="grey" stroke-width="2" d="M767.34,-431.88C744.01,-420.99 713.93,-406.95 690.62,-396.07"/>
<polygon fill="grey" stroke="grey" stroke-width="2" points="691.95,-392.83 681.41,-391.78 688.99,-399.18 691.95,-392.83"/>
</g>
<!-- 7&#45;&gt;25 -->
<g id="edge51" class="edge">
<title>7&#45;&gt;25</title>
<path fill="none" stroke="grey" stroke-width="2" d="M755.96,-441.72C702.8,-433.12 614.89,-417.24 541.03,-396 538.42,-395.25 535.73,-394.41 533.05,-393.52"/>
<polygon fill="grey" stroke="grey" stroke-width="2" points="534,-390.15 523.4,-390.15 531.69,-396.75 534,-390.15"/>
</g>
<!-- 7&#45;&gt;30 -->
<g id="edge60" class="edge">
<title>7&#45;&gt;30</title>
<path fill="none" stroke="grey" stroke-width="2" d="M822.57,-431.7C831.84,-423.05 843.2,-412.45 853.29,-403.03"/>
<polygon fill="grey" stroke="grey" stroke-width="2" points="855.79,-405.49 860.71,-396.1 851.01,-400.37 855.79,-405.49"/>
</g>
<!-- 7&#45;&gt;35 -->
<g id="edge69" class="edge">
<title>7&#45;&gt;35</title>
<path fill="none" stroke="grey" stroke-width="2" d="M756.02,-443.94C689.12,-436.36 564.35,-420.31 460.03,-396 454.53,-394.72 448.78,-393.15 443.16,-391.5"/>
<polygon fill="grey" stroke="grey" stroke-width="2" points="443.87,-388.06 433.28,-388.46 441.81,-394.75 443.87,-388.06"/>
</g>
<!-- 7&#45;&gt;40 -->
<g id="edge78" class="edge">
<title>7&#45;&gt;40</title>
<path fill="none" stroke="grey" stroke-width="2" d="M785.25,-431.7C775.86,-423.05 764.35,-412.45 754.12,-403.03"/>
<polygon fill="grey" stroke="grey" stroke-width="2" points="756.33,-400.3 746.61,-396.1 751.59,-405.45 756.33,-400.3"/>
</g>
<!-- 7&#45;&gt;45 -->
<g id="edge87" class="edge">
<title>7&#45;&gt;45</title>
<path fill="none" stroke="grey" stroke-width="2" d="M840.48,-431.88C863.66,-420.99 893.54,-406.95 916.69,-396.07"/>
<polygon fill="grey" stroke="grey" stroke-width="2" points="918.28,-399.2 925.84,-391.78 915.3,-392.86 918.28,-399.2"/>
</g>
<!-- 7&#45;&gt;50 -->
<g id="edge96" class="edge">
<title>7&#45;&gt;50</title>
<path fill="none" stroke="grey" stroke-width="2" d="M852.17,-444.52C919.54,-437.6 1045.42,-422.29 1150.03,-396 1153.68,-395.08 1157.44,-394 1161.17,-392.84"/>
<polygon fill="grey" stroke="grey" stroke-width="2" points="1162.5,-396.08 1170.89,-389.61 1160.3,-389.44 1162.5,-396.08"/>
</g>
<!-- 7&#45;&gt;55 -->
<g id="edge105" class="edge">
<title>7&#45;&gt;55</title>
<path fill="none" stroke="grey" stroke-width="2" d="M755.77,-436.89C717.95,-427 664.17,-412.08 618.03,-396 616.63,-395.51 615.19,-394.99 613.75,-394.46"/>
<polygon fill="grey" stroke="grey" stroke-width="2" points="614.8,-391.12 604.21,-390.78 612.28,-397.65 614.8,-391.12"/>
</g>
<!-- 8&#45;&gt;7 -->
<g id="edge22" class="edge">
<title>8&#45;&gt;7</title>
<path fill="none" stroke="grey" stroke-width="2" d="M945.82,-504.94C919.91,-495.08 886.46,-482.36 858.56,-471.74"/>
<polygon fill="grey" stroke="grey" stroke-width="2" points="859.53,-468.37 848.94,-468.08 857.04,-474.91 859.53,-468.37"/>
</g>
<!-- 9 -->
<g id="node10" class="node">
<title>9</title>
<path fill="none" stroke="#567bd8" stroke-width="2" stroke-dasharray="5,2" d="M408.03,-612C408.03,-612 364.03,-612 364.03,-612 358.03,-612 352.03,-606 352.03,-600 352.03,-600 352.03,-588 352.03,-588 352.03,-582 358.03,-576 364.03,-576 364.03,-576 408.03,-576 408.03,-576 414.03,-576 420.03,-582 420.03,-588 420.03,-588 420.03,-600 420.03,-600 420.03,-606 414.03,-612 408.03,-612"/>
<text text-anchor="middle" x="386.03" y="-597" font-family="sans" font-size="10.00">aln_length</text>
<text text-anchor="middle" x="386.03" y="-586" font-family="sans" font-size="10.00">aln: aln</text>
</g>
<!-- 9&#45;&gt;4 -->
<g id="edge17" class="edge">
<title>9&#45;&gt;4</title>
<path fill="none" stroke="grey" stroke-width="2" d="M362.28,-575.91C351.48,-566.65 339.84,-554.2 334.03,-540 303.77,-465.94 278.64,-417.71 334.03,-360 367.88,-324.74 1164.3,-327.7 1213.03,-324 1241.75,-321.82 1273.39,-318.46 1300.41,-315.31"/>
<polygon fill="grey" stroke="grey" stroke-width="2" points="1301.01,-318.76 1310.53,-314.11 1300.18,-311.81 1301.01,-318.76"/>
</g>
<!-- 9&#45;&gt;5 -->
<g id="edge21" class="edge">
<title>9&#45;&gt;5</title>
<path fill="none" stroke="grey" stroke-width="2" d="M420.19,-589.56C510.93,-579.58 764.5,-546.23 960.03,-468 1004.14,-450.36 1050.84,-421.79 1081.09,-401.79"/>
<polygon fill="grey" stroke="grey" stroke-width="2" points="1083.18,-404.6 1089.55,-396.13 1079.29,-398.78 1083.18,-404.6"/>
</g>
<!-- 9&#45;&gt;8 -->
<g id="edge24" class="edge">
<title>9&#45;&gt;8</title>
<path fill="none" stroke="grey" stroke-width="2" d="M420.24,-592.03C506.75,-589.06 740.99,-577.88 932.03,-540 933.3,-539.75 934.57,-539.48 935.85,-539.2"/>
<polygon fill="grey" stroke="grey" stroke-width="2" points="936.87,-542.56 945.76,-536.8 935.21,-535.75 936.87,-542.56"/>
</g>
<!-- 14 -->
<g id="node15" class="node">
<title>14</title>
<path fill="none" stroke="#59d856" stroke-width="2" d="M1191.53,-324C1191.53,-324 1104.53,-324 1104.53,-324 1098.53,-324 1092.53,-318 1092.53,-312 1092.53,-312 1092.53,-300 1092.53,-300 1092.53,-294 1098.53,-288 1104.53,-288 1104.53,-288 1191.53,-288 1191.53,-288 1197.53,-288 1203.53,-294 1203.53,-300 1203.53,-300 1203.53,-312 1203.53,-312 1203.53,-318 1197.53,-324 1191.53,-324"/>
<text text-anchor="middle" x="1148.03" y="-309" font-family="sans" font-size="10.00">date_lsd2_resolved</text>
<text text-anchor="middle" x="1148.03" y="-298" font-family="sans" font-size="10.00">tree: tree.1</text>
</g>
<!-- 9&#45;&gt;14 -->
<g id="edge30" class="edge">
<title>9&#45;&gt;14</title>
<path fill="none" stroke="grey" stroke-width="2" d="M351.96,-582.55C331.83,-574.43 308,-560.94 296.03,-540 256.33,-470.55 240.78,-417.85 296.03,-360 326.19,-328.43 1037.85,-330.4 1081.03,-324 1081.49,-323.93 1081.96,-323.86 1082.42,-323.79"/>
<polygon fill="grey" stroke="grey" stroke-width="2" points="1083.03,-327.24 1092.27,-322.05 1081.82,-320.34 1083.03,-327.24"/>
</g>
<!-- 9&#45;&gt;15 -->
<g id="edge34" class="edge">
<title>9&#45;&gt;15</title>
<path fill="none" stroke="grey" stroke-width="2" d="M420.1,-589.07C466.69,-582.85 552.23,-568.43 620.03,-540 647.32,-528.56 648.34,-514.42 676.03,-504 777.4,-465.87 817.25,-510.1 917.03,-468 953,-452.82 987.76,-424.01 1009.91,-403.27"/>
<polygon fill="grey" stroke="grey" stroke-width="2" points="1012.39,-405.75 1017.2,-396.31 1007.55,-400.68 1012.39,-405.75"/>
</g>
<!-- 19 -->
<g id="node20" class="node">
<title>19</title>
<path fill="none" stroke="#59d856" stroke-width="2" d="M641.53,-324C641.53,-324 554.53,-324 554.53,-324 548.53,-324 542.53,-318 542.53,-312 542.53,-312 542.53,-300 542.53,-300 542.53,-294 548.53,-288 554.53,-288 554.53,-288 641.53,-288 641.53,-288 647.53,-288 653.53,-294 653.53,-300 653.53,-300 653.53,-312 653.53,-312 653.53,-318 647.53,-324 641.53,-324"/>
<text text-anchor="middle" x="598.03" y="-309" font-family="sans" font-size="10.00">date_lsd2_resolved</text>
<text text-anchor="middle" x="598.03" y="-298" font-family="sans" font-size="10.00">tree: tree.2</text>
</g>
<!-- 9&#45;&gt;19 -->
<g id="edge39" class="edge">
<title>9&#45;&gt;19</title>
<path fill="none" stroke="grey" stroke-width="2" d="M351.66,-590.63C291.18,-585.68 169.72,-571.92 144.03,-540 93.88,-477.67 90.17,-419.15 144.03,-360 172.89,-328.32 485.77,-331.08 528.03,-324 529.5,-323.75 530.98,-323.5 532.47,-323.22"/>
<polygon fill="grey" stroke="grey" stroke-width="2" points="533.26,-326.64 542.4,-321.28 531.91,-319.77 533.26,-326.64"/>
</g>
<!-- 9&#45;&gt;20 -->
<g id="edge43" class="edge">
<title>9&#45;&gt;20</title>
<path fill="none" stroke="grey" stroke-width="2" d="M410.34,-575.89C423.22,-566.18 438.85,-553.33 451.03,-540 490.12,-497.24 479,-468.45 524.03,-432 557.2,-405.16 573.55,-412.17 613.03,-396 614.42,-395.43 615.82,-394.86 617.25,-394.27"/>
<polygon fill="grey" stroke="grey" stroke-width="2" points="618.79,-397.42 626.7,-390.37 616.12,-390.95 618.79,-397.42"/>
</g>
<!-- 24 -->
<g id="node25" class="node">
<title>24</title>
<path fill="none" stroke="#59d856" stroke-width="2" d="M360.53,-324C360.53,-324 273.53,-324 273.53,-324 267.53,-324 261.53,-318 261.53,-312 261.53,-312 261.53,-300 261.53,-300 261.53,-294 267.53,-288 273.53,-288 273.53,-288 360.53,-288 360.53,-288 366.53,-288 372.53,-294 372.53,-300 372.53,-300 372.53,-312 372.53,-312 372.53,-318 366.53,-324 360.53,-324"/>
<text text-anchor="middle" x="317.03" y="-309" font-family="sans" font-size="10.00">date_lsd2_resolved</text>
<text text-anchor="middle" x="317.03" y="-298" font-family="sans" font-size="10.00">tree: tree.3</text>
</g>
<!-- 9&#45;&gt;24 -->
<g id="edge48" class="edge">
<title>9&#45;&gt;24</title>
<path fill="none" stroke="grey" stroke-width="2" d="M351.96,-592.63C277.52,-591.01 104.17,-582.65 68.03,-540 16.32,-478.96 17.7,-422.18 68.03,-360 70.97,-356.37 178.61,-334.42 251.39,-319.93"/>
<polygon fill="grey" stroke="grey" stroke-width="2" points="252.29,-323.32 261.41,-317.94 250.92,-316.46 252.29,-323.32"/>
</g>
<!-- 9&#45;&gt;25 -->
<g id="edge52" class="edge">
<title>9&#45;&gt;25</title>
<path fill="none" stroke="grey" stroke-width="2" d="M392.91,-575.84C397.04,-565.48 402.38,-552 407.03,-540 425.6,-492.13 421.23,-475.79 448.03,-432 454.19,-421.95 462.38,-412.06 470.25,-403.6"/>
<polygon fill="grey" stroke="grey" stroke-width="2" points="472.9,-405.9 477.32,-396.27 467.86,-401.04 472.9,-405.9"/>
</g>
<!-- 29 -->
<g id="node30" class="node">
<title>29</title>
<path fill="none" stroke="#59d856" stroke-width="2" d="M922.53,-324C922.53,-324 835.53,-324 835.53,-324 829.53,-324 823.53,-318 823.53,-312 823.53,-312 823.53,-300 823.53,-300 823.53,-294 829.53,-288 835.53,-288 835.53,-288 922.53,-288 922.53,-288 928.53,-288 934.53,-294 934.53,-300 934.53,-300 934.53,-312 934.53,-312 934.53,-318 928.53,-324 922.53,-324"/>
<text text-anchor="middle" x="879.03" y="-309" font-family="sans" font-size="10.00">date_lsd2_resolved</text>
<text text-anchor="middle" x="879.03" y="-298" font-family="sans" font-size="10.00">tree: tree.4</text>
</g>
<!-- 9&#45;&gt;29 -->
<g id="edge57" class="edge">
<title>9&#45;&gt;29</title>
<path fill="none" stroke="grey" stroke-width="2" d="M352,-593.1C312.88,-591.16 250.19,-581.29 220.03,-540 172.85,-475.4 165.27,-418.32 220.03,-360 263.63,-313.58 728.87,-332.12 792.03,-324 799.07,-323.1 806.38,-321.97 813.66,-320.72"/>
<polygon fill="grey" stroke="grey" stroke-width="2" points="814.29,-324.17 823.52,-318.97 813.06,-317.27 814.29,-324.17"/>
</g>
<!-- 9&#45;&gt;30 -->
<g id="edge61" class="edge">
<title>9&#45;&gt;30</title>
<path fill="none" stroke="grey" stroke-width="2" d="M420.08,-580.03C447.27,-569.56 486.27,-554.26 520.03,-540 555.95,-524.83 562.56,-514.77 600.03,-504 656.3,-487.82 818.36,-508.09 861.03,-468 877.59,-452.45 881.21,-426.2 881.21,-406.23"/>
<polygon fill="grey" stroke="grey" stroke-width="2" points="884.71,-406.06 880.92,-396.17 877.71,-406.27 884.71,-406.06"/>
</g>
<!-- 34 -->
<g id="node35" class="node">
<title>34</title>
<path fill="none" stroke="#59d856" stroke-width="2" d="M209.53,-324C209.53,-324 122.53,-324 122.53,-324 116.53,-324 110.53,-318 110.53,-312 110.53,-312 110.53,-300 110.53,-300 110.53,-294 116.53,-288 122.53,-288 122.53,-288 209.53,-288 209.53,-288 215.53,-288 221.53,-294 221.53,-300 221.53,-300 221.53,-312 221.53,-312 221.53,-318 215.53,-324 209.53,-324"/>
<text text-anchor="middle" x="166.03" y="-309" font-family="sans" font-size="10.00">date_lsd2_resolved</text>
<text text-anchor="middle" x="166.03" y="-298" font-family="sans" font-size="10.00">tree: tree.5</text>
</g>
<!-- 9&#45;&gt;34 -->
<g id="edge66" class="edge">
<title>9&#45;&gt;34</title>
<path fill="none" stroke="grey" stroke-width="2" d="M351.81,-592.53C273.64,-590.72 85.33,-582.01 41.03,-540 -17.01,-484.95 -9.74,-421.82 41.03,-360 56.15,-341.59 78.81,-329.46 100.7,-321.52"/>
<polygon fill="grey" stroke="grey" stroke-width="2" points="101.99,-324.78 110.34,-318.26 99.75,-318.14 101.99,-324.78"/>
</g>
<!-- 9&#45;&gt;35 -->
<g id="edge70" class="edge">
<title>9&#45;&gt;35</title>
<path fill="none" stroke="grey" stroke-width="2" d="M387.64,-575.85C391.1,-538.83 399.29,-451.18 403.48,-406.39"/>
<polygon fill="grey" stroke="grey" stroke-width="2" points="406.98,-406.51 404.42,-396.23 400.01,-405.86 406.98,-406.51"/>
</g>
<!-- 39 -->
<g id="node40" class="node">
<title>39</title>
<path fill="none" stroke="#59d856" stroke-width="2" d="M771.53,-324C771.53,-324 684.53,-324 684.53,-324 678.53,-324 672.53,-318 672.53,-312 672.53,-312 672.53,-300 672.53,-300 672.53,-294 678.53,-288 684.53,-288 684.53,-288 771.53,-288 771.53,-288 777.53,-288 783.53,-294 783.53,-300 783.53,-300 783.53,-312 783.53,-312 783.53,-318 777.53,-324 771.53,-324"/>
<text text-anchor="middle" x="728.03" y="-309" font-family="sans" font-size="10.00">date_lsd2_resolved</text>
<text text-anchor="middle" x="728.03" y="-298" font-family="sans" font-size="10.00">tree: tree.6</text>
</g>
<!-- 9&#45;&gt;39 -->
<g id="edge75" class="edge">
<title>9&#45;&gt;39</title>
<path fill="none" stroke="grey" stroke-width="2" d="M352.02,-589.16C299.53,-582.44 202.69,-566.7 182.03,-540 133.09,-476.72 127.62,-418.65 182.03,-360 218.41,-320.79 609.26,-332.7 662.03,-324 662.14,-323.98 662.25,-323.97 662.35,-323.95"/>
<polygon fill="grey" stroke="grey" stroke-width="2" points="663.18,-327.35 672.37,-322.08 661.9,-320.47 663.18,-327.35"/>
</g>
<!-- 9&#45;&gt;40 -->
<g id="edge79" class="edge">
<title>9&#45;&gt;40</title>
<path fill="none" stroke="grey" stroke-width="2" d="M416.5,-575.95C434.53,-565.74 457.73,-552.38 478.03,-540 556.26,-492.32 646.16,-433.38 693.97,-401.7"/>
<polygon fill="grey" stroke="grey" stroke-width="2" points="695.99,-404.56 702.39,-396.11 692.12,-398.73 695.99,-404.56"/>
</g>
<!-- 44 -->
<g id="node45" class="node">
<title>44</title>
<path fill="none" stroke="#59d856" stroke-width="2" d="M1059.53,-324C1059.53,-324 972.53,-324 972.53,-324 966.53,-324 960.53,-318 960.53,-312 960.53,-312 960.53,-300 960.53,-300 960.53,-294 966.53,-288 972.53,-288 972.53,-288 1059.53,-288 1059.53,-288 1065.53,-288 1071.53,-294 1071.53,-300 1071.53,-300 1071.53,-312 1071.53,-312 1071.53,-318 1065.53,-324 1059.53,-324"/>
<text text-anchor="middle" x="1016.03" y="-309" font-family="sans" font-size="10.00">date_lsd2_resolved</text>
<text text-anchor="middle" x="1016.03" y="-298" font-family="sans" font-size="10.00">tree: tree.7</text>
</g>
<!-- 9&#45;&gt;44 -->
<g id="edge84" class="edge">
<title>9&#45;&gt;44</title>
<path fill="none" stroke="grey" stroke-width="2" d="M351.95,-589.29C321.58,-583.97 278.82,-571.1 258.03,-540 213.58,-473.49 202.97,-418.03 258.03,-360 310.49,-304.71 867.57,-334.68 943.03,-324 945.52,-323.65 948.04,-323.25 950.57,-322.83"/>
<polygon fill="grey" stroke="grey" stroke-width="2" points="951.22,-326.26 960.43,-321.01 949.96,-319.38 951.22,-326.26"/>
</g>
<!-- 9&#45;&gt;45 -->
<g id="edge88" class="edge">
<title>9&#45;&gt;45</title>
<path fill="none" stroke="grey" stroke-width="2" d="M420.13,-585.96C458.43,-577.46 522.05,-561.59 574.03,-540 604.18,-527.48 607.15,-514.54 638.03,-504 742.61,-468.31 788.6,-523.7 884.03,-468 909.07,-453.39 928.26,-425.84 939.97,-405.25"/>
<polygon fill="grey" stroke="grey" stroke-width="2" points="943.11,-406.8 944.82,-396.35 936.96,-403.45 943.11,-406.8"/>
</g>
<!-- 49 -->
<g id="node50" class="node">
<title>49</title>
<path fill="none" stroke="#59d856" stroke-width="2" d="M1545.53,-324C1545.53,-324 1458.53,-324 1458.53,-324 1452.53,-324 1446.53,-318 1446.53,-312 1446.53,-312 1446.53,-300 1446.53,-300 1446.53,-294 1452.53,-288 1458.53,-288 1458.53,-288 1545.53,-288 1545.53,-288 1551.53,-288 1557.53,-294 1557.53,-300 1557.53,-300 1557.53,-312 1557.53,-312 1557.53,-318 1551.53,-324 1545.53,-324"/>
<text text-anchor="middle" x="1502.03" y="-309" font-family="sans" font-size="10.00">date_lsd2_resolved</text>
<text text-anchor="middle" x="1502.03" y="-298" font-family="sans" font-size="10.00">tree: tree.8</text>
</g>
<!-- 9&#45;&gt;49 -->
<g id="edge93" class="edge">
<title>9&#45;&gt;49</title>
<path fill="none" stroke="grey" stroke-width="2" d="M377.36,-575.74C357.06,-532.67 312.41,-419.62 370.03,-360 411.03,-317.59 1372.59,-331.91 1431.03,-324 1432.76,-323.77 1434.51,-323.51 1436.27,-323.23"/>
<polygon fill="grey" stroke="grey" stroke-width="2" points="1437.19,-326.62 1446.42,-321.43 1435.97,-319.73 1437.19,-326.62"/>
</g>
<!-- 9&#45;&gt;50 -->
<g id="edge97" class="edge">
<title>9&#45;&gt;50</title>
<path fill="none" stroke="grey" stroke-width="2" d="M420.15,-591.16C492.12,-586.73 664.48,-573.29 805.03,-540 898.59,-517.84 920.1,-504.53 1009.03,-468 1063.16,-445.77 1124.13,-416.21 1161.82,-397.39"/>
<polygon fill="grey" stroke="grey" stroke-width="2" points="1163.51,-400.46 1170.88,-392.85 1160.37,-394.2 1163.51,-400.46"/>
</g>
<!-- 54 -->
<g id="node55" class="node">
<title>54</title>
<path fill="none" stroke="#59d856" stroke-width="2" stroke-dasharray="5,2" d="M507.53,-324C507.53,-324 420.53,-324 420.53,-324 414.53,-324 408.53,-318 408.53,-312 408.53,-312 408.53,-300 408.53,-300 408.53,-294 414.53,-288 420.53,-288 420.53,-288 507.53,-288 507.53,-288 513.53,-288 519.53,-294 519.53,-300 519.53,-300 519.53,-312 519.53,-312 519.53,-318 513.53,-324 507.53,-324"/>
<text text-anchor="middle" x="464.03" y="-309" font-family="sans" font-size="10.00">date_lsd2_resolved</text>
<text text-anchor="middle" x="464.03" y="-298" font-family="sans" font-size="10.00">tree: tree.9</text>
</g>
<!-- 9&#45;&gt;54 -->
<g id="edge102" class="edge">
<title>9&#45;&gt;54</title>
<path fill="none" stroke="grey" stroke-width="2" d="M351.94,-591.77C284.29,-588.54 136.93,-577.29 106.03,-540 55,-478.4 53.27,-420.13 106.03,-360 146.69,-313.68 320.25,-334.19 381.03,-324 386.7,-323.05 392.58,-321.99 398.46,-320.89"/>
<polygon fill="grey" stroke="grey" stroke-width="2" points="399.17,-324.31 408.33,-318.98 397.85,-317.44 399.17,-324.31"/>
</g>
<!-- 9&#45;&gt;55 -->
<g id="edge106" class="edge">
<title>9&#45;&gt;55</title>
<path fill="none" stroke="grey" stroke-width="2" d="M400.42,-575.85C408.63,-565.71 418.88,-552.46 427.03,-540 456.97,-494.23 447.89,-471.2 486.03,-432 501.45,-416.15 522.61,-403.45 540.64,-394.46"/>
<polygon fill="grey" stroke="grey" stroke-width="2" points="542.24,-397.58 549.74,-390.1 539.21,-391.27 542.24,-397.58"/>
</g>
<!-- 10 -->
<g id="node11" class="node">
<title>10</title>
<path fill="none" stroke="#56a2d8" stroke-width="2" stroke-dasharray="5,2" d="M1454.53,-612C1454.53,-612 1369.53,-612 1369.53,-612 1363.53,-612 1357.53,-606 1357.53,-600 1357.53,-600 1357.53,-588 1357.53,-588 1357.53,-582 1363.53,-576 1369.53,-576 1369.53,-576 1454.53,-576 1454.53,-576 1460.53,-576 1466.53,-582 1466.53,-588 1466.53,-588 1466.53,-600 1466.53,-600 1466.53,-606 1460.53,-612 1454.53,-612"/>
<text text-anchor="middle" x="1412.03" y="-591.5" font-family="sans" font-size="10.00">extract_dates_lsd2</text>
</g>
<!-- 10&#45;&gt;4 -->
<g id="edge18" class="edge">
<title>10&#45;&gt;4</title>
<path fill="none" stroke="grey" stroke-width="2" d="M1466.8,-584.78C1493.65,-577.69 1523.66,-564.5 1540.03,-540 1584.48,-473.49 1587.65,-424.28 1540.03,-360 1533.19,-350.76 1477.82,-334.88 1431.35,-322.91"/>
<polygon fill="grey" stroke="grey" stroke-width="2" points="1432.14,-319.5 1421.59,-320.41 1430.41,-326.28 1432.14,-319.5"/>
</g>
<!-- 10&#45;&gt;8 -->
<g id="edge25" class="edge">
<title>10&#45;&gt;8</title>
<path fill="none" stroke="grey" stroke-width="2" d="M1357.47,-583.99C1275.32,-570.43 1120.92,-544.94 1040.2,-531.61"/>
<polygon fill="grey" stroke="grey" stroke-width="2" points="1040.7,-528.15 1030.26,-529.97 1039.56,-535.05 1040.7,-528.15"/>
</g>
<!-- 10&#45;&gt;14 -->
<g id="edge31" class="edge">
<title>10&#45;&gt;14</title>
<path fill="none" stroke="grey" stroke-width="2" d="M1460.59,-575.97C1476.7,-567.73 1492.86,-556.06 1502.03,-540 1541.74,-470.55 1554.25,-420.61 1502.03,-360 1492.7,-349.16 1313.57,-326.49 1213.79,-314.62"/>
<polygon fill="grey" stroke="grey" stroke-width="2" points="1214.14,-311.13 1203.8,-313.43 1213.32,-318.08 1214.14,-311.13"/>
</g>
<!-- 10&#45;&gt;19 -->
<g id="edge40" class="edge">
<title>10&#45;&gt;19</title>
<path fill="none" stroke="grey" stroke-width="2" d="M1413.55,-575.7C1416.34,-531.52 1416.84,-414.19 1350.03,-360 1292.64,-313.44 774.69,-334.22 663.53,-323.53"/>
<polygon fill="grey" stroke="grey" stroke-width="2" points="663.9,-320.05 653.55,-322.31 663.05,-327 663.9,-320.05"/>
</g>
<!-- 10&#45;&gt;24 -->
<g id="edge49" class="edge">
<title>10&#45;&gt;24</title>
<path fill="none" stroke="grey" stroke-width="2" d="M1404.53,-575.94C1382.44,-526.56 1316.51,-385.38 1274.03,-360 1190.51,-310.09 495.61,-335.92 399.03,-324 393.71,-323.34 388.22,-322.52 382.73,-321.6"/>
<polygon fill="grey" stroke="grey" stroke-width="2" points="383.31,-318.15 372.85,-319.84 382.08,-325.04 383.31,-318.15"/>
</g>
<!-- 10&#45;&gt;29 -->
<g id="edge58" class="edge">
<title>10&#45;&gt;29</title>
<path fill="none" stroke="grey" stroke-width="2" d="M1420.35,-575.88C1439.77,-533.14 1482.37,-420.78 1426.03,-360 1390.13,-321.26 1004.24,-332.01 952.03,-324 949.56,-323.62 947.04,-323.2 944.51,-322.75"/>
<polygon fill="grey" stroke="grey" stroke-width="2" points="945.14,-319.31 934.66,-320.88 943.83,-326.19 945.14,-319.31"/>
</g>
<!-- 10&#45;&gt;34 -->
<g id="edge67" class="edge">
<title>10&#45;&gt;34</title>
<path fill="none" stroke="grey" stroke-width="2" d="M1396.73,-575.58C1387.88,-565.36 1376.63,-552.11 1367.03,-540 1336.14,-501.02 1278.02,-383.21 1234.03,-360 1137.47,-309.04 360.49,-336.63 252.03,-324 245.43,-323.23 238.58,-322.23 231.76,-321.1"/>
<polygon fill="grey" stroke="grey" stroke-width="2" points="232.26,-317.63 221.81,-319.36 231.06,-324.53 232.26,-317.63"/>
</g>
<!-- 10&#45;&gt;39 -->
<g id="edge76" class="edge">
<title>10&#45;&gt;39</title>
<path fill="none" stroke="grey" stroke-width="2" d="M1416.71,-575.82C1427.38,-532.42 1448.15,-417.76 1388.03,-360 1341.95,-315.73 877.41,-332.21 814.03,-324 807.44,-323.15 800.6,-322.09 793.78,-320.92"/>
<polygon fill="grey" stroke="grey" stroke-width="2" points="794.29,-317.46 783.83,-319.15 793.06,-324.35 794.29,-317.46"/>
</g>
<!-- 10&#45;&gt;44 -->
<g id="edge85" class="edge">
<title>10&#45;&gt;44</title>
<path fill="none" stroke="grey" stroke-width="2" d="M1435.79,-575.91C1446.59,-566.65 1458.23,-554.2 1464.03,-540 1494.3,-465.94 1517.87,-419.18 1464.03,-360 1435.49,-328.63 1125.84,-331.16 1084.03,-324 1083.27,-323.87 1082.5,-323.73 1081.73,-323.6"/>
<polygon fill="grey" stroke="grey" stroke-width="2" points="1082.04,-320.09 1071.56,-321.6 1080.7,-326.96 1082.04,-320.09"/>
</g>
<!-- 10&#45;&gt;49 -->
<g id="edge94" class="edge">
<title>10&#45;&gt;49</title>
<path fill="none" stroke="grey" stroke-width="2" d="M1466.62,-585.98C1498.56,-579.21 1537.5,-565.94 1563.03,-540 1586.7,-515.96 1581.63,-501.3 1587.03,-468 1594.9,-419.56 1591.19,-400.88 1564.03,-360 1556.68,-348.92 1546.38,-338.84 1536.28,-330.52"/>
<polygon fill="grey" stroke="grey" stroke-width="2" points="1538.31,-327.66 1528.29,-324.23 1533.98,-333.16 1538.31,-327.66"/>
</g>
<!-- 10&#45;&gt;54 -->
<g id="edge103" class="edge">
<title>10&#45;&gt;54</title>
<path fill="none" stroke="grey" stroke-width="2" d="M1410.61,-575.72C1405.91,-531.04 1386.58,-411.63 1312.03,-360 1240.81,-310.66 618.79,-336.42 533.03,-324 531.94,-323.84 530.83,-323.67 529.72,-323.49"/>
<polygon fill="grey" stroke="grey" stroke-width="2" points="530.05,-320 519.59,-321.68 528.81,-326.89 530.05,-320"/>
</g>
<!-- 11 -->
<g id="node12" class="node">
<title>11</title>
<path fill="none" stroke="#d87d56" stroke-width="2" d="M1218.53,-108C1218.53,-108 1115.53,-108 1115.53,-108 1109.53,-108 1103.53,-102 1103.53,-96 1103.53,-96 1103.53,-84 1103.53,-84 1103.53,-78 1109.53,-72 1115.53,-72 1115.53,-72 1218.53,-72 1218.53,-72 1224.53,-72 1230.53,-78 1230.53,-84 1230.53,-84 1230.53,-96 1230.53,-96 1230.53,-102 1224.53,-108 1218.53,-108"/>
<text text-anchor="middle" x="1167.03" y="-93" font-family="sans" font-size="10.00">years2days</text>
<text text-anchor="middle" x="1167.03" y="-82" font-family="sans" font-size="10.00">tree: SLE/SLE.bottom.1</text>
</g>
<!-- 11&#45;&gt;0 -->
<g id="edge2" class="edge">
<title>11&#45;&gt;0</title>
<path fill="none" stroke="grey" stroke-width="2" d="M1113.98,-71.97C1074.3,-59.22 1021.03,-42.12 985.9,-30.84"/>
<polygon fill="grey" stroke="grey" stroke-width="2" points="986.65,-27.4 976.06,-27.68 984.51,-34.07 986.65,-27.4"/>
</g>
<!-- 12 -->
<g id="node13" class="node">
<title>12</title>
<path fill="none" stroke="#d8a456" stroke-width="2" d="M1184.03,-180C1184.03,-180 1140.03,-180 1140.03,-180 1134.03,-180 1128.03,-174 1128.03,-168 1128.03,-168 1128.03,-156 1128.03,-156 1128.03,-150 1134.03,-144 1140.03,-144 1140.03,-144 1184.03,-144 1184.03,-144 1190.03,-144 1196.03,-150 1196.03,-156 1196.03,-156 1196.03,-168 1196.03,-168 1196.03,-174 1190.03,-180 1184.03,-180"/>
<text text-anchor="middle" x="1162.03" y="-159.5" font-family="sans" font-size="10.00">SLE_forest</text>
</g>
<!-- 12&#45;&gt;11 -->
<g id="edge26" class="edge">
<title>12&#45;&gt;11</title>
<path fill="none" stroke="grey" stroke-width="2" d="M1163.27,-143.7C1163.82,-135.98 1164.48,-126.71 1165.1,-118.11"/>
<polygon fill="grey" stroke="grey" stroke-width="2" points="1168.59,-118.33 1165.81,-108.1 1161.61,-117.83 1168.59,-118.33"/>
</g>
<!-- 13 -->
<g id="node14" class="node">
<title>13</title>
<path fill="none" stroke="#9fd856" stroke-width="2" d="M1165.03,-252C1165.03,-252 1135.03,-252 1135.03,-252 1129.03,-252 1123.03,-246 1123.03,-240 1123.03,-240 1123.03,-228 1123.03,-228 1123.03,-222 1129.03,-216 1135.03,-216 1135.03,-216 1165.03,-216 1165.03,-216 1171.03,-216 1177.03,-222 1177.03,-228 1177.03,-228 1177.03,-240 1177.03,-240 1177.03,-246 1171.03,-252 1165.03,-252"/>
<text text-anchor="middle" x="1150.03" y="-237" font-family="sans" font-size="10.00">pastml</text>
<text text-anchor="middle" x="1150.03" y="-226" font-family="sans" font-size="10.00">i: 1</text>
</g>
<!-- 13&#45;&gt;12 -->
<g id="edge27" class="edge">
<title>13&#45;&gt;12</title>
<path fill="none" stroke="grey" stroke-width="2" d="M1153,-215.7C1154.32,-207.98 1155.91,-198.71 1157.39,-190.11"/>
<polygon fill="grey" stroke="grey" stroke-width="2" points="1160.86,-190.55 1159.1,-180.1 1153.96,-189.37 1160.86,-190.55"/>
</g>
<!-- 14&#45;&gt;13 -->
<g id="edge28" class="edge">
<title>14&#45;&gt;13</title>
<path fill="none" stroke="grey" stroke-width="2" d="M1148.53,-287.7C1148.75,-279.98 1149.01,-270.71 1149.26,-262.11"/>
<polygon fill="grey" stroke="grey" stroke-width="2" points="1152.76,-262.2 1149.55,-252.1 1145.76,-262 1152.76,-262.2"/>
</g>
<!-- 15&#45;&gt;14 -->
<g id="edge29" class="edge">
<title>15&#45;&gt;14</title>
<path fill="none" stroke="grey" stroke-width="2" d="M1061.05,-360.41C1076.05,-351.2 1094.92,-339.61 1111.25,-329.59"/>
<polygon fill="grey" stroke="grey" stroke-width="2" points="1113.33,-332.42 1120.02,-324.2 1109.67,-326.45 1113.33,-332.42"/>
</g>
<!-- 16 -->
<g id="node17" class="node">
<title>16</title>
<path fill="none" stroke="#d87d56" stroke-width="2" d="M638.53,-108C638.53,-108 535.53,-108 535.53,-108 529.53,-108 523.53,-102 523.53,-96 523.53,-96 523.53,-84 523.53,-84 523.53,-78 529.53,-72 535.53,-72 535.53,-72 638.53,-72 638.53,-72 644.53,-72 650.53,-78 650.53,-84 650.53,-84 650.53,-96 650.53,-96 650.53,-102 644.53,-108 638.53,-108"/>
<text text-anchor="middle" x="587.03" y="-93" font-family="sans" font-size="10.00">years2days</text>
<text text-anchor="middle" x="587.03" y="-82" font-family="sans" font-size="10.00">tree: SLE/SLE.bottom.2</text>
</g>
<!-- 16&#45;&gt;0 -->
<g id="edge3" class="edge">
<title>16&#45;&gt;0</title>
<path fill="none" stroke="grey" stroke-width="2" d="M650.6,-73.81C653.45,-73.18 656.27,-72.58 659.03,-72 749.4,-53.09 856.39,-34.51 911.72,-25.19"/>
<polygon fill="grey" stroke="grey" stroke-width="2" points="912.47,-28.61 921.76,-23.51 911.32,-21.71 912.47,-28.61"/>
</g>
<!-- 17 -->
<g id="node18" class="node">
<title>17</title>
<path fill="none" stroke="#d8a456" stroke-width="2" d="M611.03,-180C611.03,-180 567.03,-180 567.03,-180 561.03,-180 555.03,-174 555.03,-168 555.03,-168 555.03,-156 555.03,-156 555.03,-150 561.03,-144 567.03,-144 567.03,-144 611.03,-144 611.03,-144 617.03,-144 623.03,-150 623.03,-156 623.03,-156 623.03,-168 623.03,-168 623.03,-174 617.03,-180 611.03,-180"/>
<text text-anchor="middle" x="589.03" y="-159.5" font-family="sans" font-size="10.00">SLE_forest</text>
</g>
<!-- 17&#45;&gt;16 -->
<g id="edge35" class="edge">
<title>17&#45;&gt;16</title>
<path fill="none" stroke="grey" stroke-width="2" d="M588.54,-143.7C588.32,-135.98 588.06,-126.71 587.81,-118.11"/>
<polygon fill="grey" stroke="grey" stroke-width="2" points="591.31,-118 587.52,-108.1 584.31,-118.2 591.31,-118"/>
</g>
<!-- 18 -->
<g id="node19" class="node">
<title>18</title>
<path fill="none" stroke="#9fd856" stroke-width="2" d="M607.03,-252C607.03,-252 577.03,-252 577.03,-252 571.03,-252 565.03,-246 565.03,-240 565.03,-240 565.03,-228 565.03,-228 565.03,-222 571.03,-216 577.03,-216 577.03,-216 607.03,-216 607.03,-216 613.03,-216 619.03,-222 619.03,-228 619.03,-228 619.03,-240 619.03,-240 619.03,-246 613.03,-252 607.03,-252"/>
<text text-anchor="middle" x="592.03" y="-237" font-family="sans" font-size="10.00">pastml</text>
<text text-anchor="middle" x="592.03" y="-226" font-family="sans" font-size="10.00">i: 2</text>
</g>
<!-- 18&#45;&gt;17 -->
<g id="edge36" class="edge">
<title>18&#45;&gt;17</title>
<path fill="none" stroke="grey" stroke-width="2" d="M591.29,-215.7C590.96,-207.98 590.57,-198.71 590.2,-190.11"/>
<polygon fill="grey" stroke="grey" stroke-width="2" points="593.69,-189.95 589.77,-180.1 586.7,-190.25 593.69,-189.95"/>
</g>
<!-- 19&#45;&gt;18 -->
<g id="edge37" class="edge">
<title>19&#45;&gt;18</title>
<path fill="none" stroke="grey" stroke-width="2" d="M596.55,-287.7C595.89,-279.98 595.1,-270.71 594.36,-262.11"/>
<polygon fill="grey" stroke="grey" stroke-width="2" points="597.84,-261.77 593.5,-252.1 590.87,-262.37 597.84,-261.77"/>
</g>
<!-- 20&#45;&gt;19 -->
<g id="edge38" class="edge">
<title>20&#45;&gt;19</title>
<path fill="none" stroke="grey" stroke-width="2" d="M640.19,-359.7C633.55,-351.39 625.46,-341.28 618.15,-332.14"/>
<polygon fill="grey" stroke="grey" stroke-width="2" points="620.7,-329.73 611.72,-324.1 615.23,-334.1 620.7,-329.73"/>
</g>
<!-- 21 -->
<g id="node22" class="node">
<title>21</title>
<path fill="none" stroke="#d87d56" stroke-width="2" d="M348.53,-108C348.53,-108 245.53,-108 245.53,-108 239.53,-108 233.53,-102 233.53,-96 233.53,-96 233.53,-84 233.53,-84 233.53,-78 239.53,-72 245.53,-72 245.53,-72 348.53,-72 348.53,-72 354.53,-72 360.53,-78 360.53,-84 360.53,-84 360.53,-96 360.53,-96 360.53,-102 354.53,-108 348.53,-108"/>
<text text-anchor="middle" x="297.03" y="-93" font-family="sans" font-size="10.00">years2days</text>
<text text-anchor="middle" x="297.03" y="-82" font-family="sans" font-size="10.00">tree: SLE/SLE.bottom.3</text>
</g>
<!-- 21&#45;&gt;0 -->
<g id="edge4" class="edge">
<title>21&#45;&gt;0</title>
<path fill="none" stroke="grey" stroke-width="2" d="M360.54,-73.49C363.4,-72.96 366.25,-72.45 369.03,-72 572.31,-38.88 819.29,-24.91 911.74,-20.59"/>
<polygon fill="grey" stroke="grey" stroke-width="2" points="912.15,-24.07 921.98,-20.12 911.83,-17.08 912.15,-24.07"/>
</g>
<!-- 22 -->
<g id="node23" class="node">
<title>22</title>
<path fill="none" stroke="#d8a456" stroke-width="2" d="M323.03,-180C323.03,-180 279.03,-180 279.03,-180 273.03,-180 267.03,-174 267.03,-168 267.03,-168 267.03,-156 267.03,-156 267.03,-150 273.03,-144 279.03,-144 279.03,-144 323.03,-144 323.03,-144 329.03,-144 335.03,-150 335.03,-156 335.03,-156 335.03,-168 335.03,-168 335.03,-174 329.03,-180 323.03,-180"/>
<text text-anchor="middle" x="301.03" y="-159.5" font-family="sans" font-size="10.00">SLE_forest</text>
</g>
<!-- 22&#45;&gt;21 -->
<g id="edge44" class="edge">
<title>22&#45;&gt;21</title>
<path fill="none" stroke="grey" stroke-width="2" d="M300.05,-143.7C299.61,-135.98 299.08,-126.71 298.58,-118.11"/>
<polygon fill="grey" stroke="grey" stroke-width="2" points="302.08,-117.89 298.01,-108.1 295.09,-118.29 302.08,-117.89"/>
</g>
<!-- 23 -->
<g id="node24" class="node">
<title>23</title>
<path fill="none" stroke="#9fd856" stroke-width="2" d="M324.03,-252C324.03,-252 294.03,-252 294.03,-252 288.03,-252 282.03,-246 282.03,-240 282.03,-240 282.03,-228 282.03,-228 282.03,-222 288.03,-216 294.03,-216 294.03,-216 324.03,-216 324.03,-216 330.03,-216 336.03,-222 336.03,-228 336.03,-228 336.03,-240 336.03,-240 336.03,-246 330.03,-252 324.03,-252"/>
<text text-anchor="middle" x="309.03" y="-237" font-family="sans" font-size="10.00">pastml</text>
<text text-anchor="middle" x="309.03" y="-226" font-family="sans" font-size="10.00">i: 3</text>
</g>
<!-- 23&#45;&gt;22 -->
<g id="edge45" class="edge">
<title>23&#45;&gt;22</title>
<path fill="none" stroke="grey" stroke-width="2" d="M307.06,-215.7C306.18,-207.98 305.12,-198.71 304.13,-190.11"/>
<polygon fill="grey" stroke="grey" stroke-width="2" points="307.6,-189.64 302.99,-180.1 300.65,-190.44 307.6,-189.64"/>
</g>
<!-- 24&#45;&gt;23 -->
<g id="edge46" class="edge">
<title>24&#45;&gt;23</title>
<path fill="none" stroke="grey" stroke-width="2" d="M315.06,-287.7C314.18,-279.98 313.12,-270.71 312.13,-262.11"/>
<polygon fill="grey" stroke="grey" stroke-width="2" points="315.6,-261.64 310.99,-252.1 308.65,-262.44 315.6,-261.64"/>
</g>
<!-- 25&#45;&gt;24 -->
<g id="edge47" class="edge">
<title>25&#45;&gt;24</title>
<path fill="none" stroke="grey" stroke-width="2" d="M468.85,-366.37C442.68,-356.13 402.4,-340.38 369.9,-327.67"/>
<polygon fill="grey" stroke="grey" stroke-width="2" points="371.11,-324.39 360.53,-324.01 368.56,-330.91 371.11,-324.39"/>
</g>
<!-- 26 -->
<g id="node27" class="node">
<title>26</title>
<path fill="none" stroke="#d87d56" stroke-width="2" d="M928.53,-108C928.53,-108 825.53,-108 825.53,-108 819.53,-108 813.53,-102 813.53,-96 813.53,-96 813.53,-84 813.53,-84 813.53,-78 819.53,-72 825.53,-72 825.53,-72 928.53,-72 928.53,-72 934.53,-72 940.53,-78 940.53,-84 940.53,-84 940.53,-96 940.53,-96 940.53,-102 934.53,-108 928.53,-108"/>
<text text-anchor="middle" x="877.03" y="-93" font-family="sans" font-size="10.00">years2days</text>
<text text-anchor="middle" x="877.03" y="-82" font-family="sans" font-size="10.00">tree: SLE/SLE.bottom.4</text>
</g>
<!-- 26&#45;&gt;0 -->
<g id="edge5" class="edge">
<title>26&#45;&gt;0</title>
<path fill="none" stroke="grey" stroke-width="2" d="M894.83,-71.7C903.64,-63.14 914.42,-52.66 924.04,-43.3"/>
<polygon fill="grey" stroke="grey" stroke-width="2" points="926.71,-45.58 931.44,-36.1 921.83,-40.57 926.71,-45.58"/>
</g>
<!-- 27 -->
<g id="node28" class="node">
<title>27</title>
<path fill="none" stroke="#d8a456" stroke-width="2" d="M899.03,-180C899.03,-180 855.03,-180 855.03,-180 849.03,-180 843.03,-174 843.03,-168 843.03,-168 843.03,-156 843.03,-156 843.03,-150 849.03,-144 855.03,-144 855.03,-144 899.03,-144 899.03,-144 905.03,-144 911.03,-150 911.03,-156 911.03,-156 911.03,-168 911.03,-168 911.03,-174 905.03,-180 899.03,-180"/>
<text text-anchor="middle" x="877.03" y="-159.5" font-family="sans" font-size="10.00">SLE_forest</text>
</g>
<!-- 27&#45;&gt;26 -->
<g id="edge53" class="edge">
<title>27&#45;&gt;26</title>
<path fill="none" stroke="grey" stroke-width="2" d="M877.03,-143.7C877.03,-135.98 877.03,-126.71 877.03,-118.11"/>
<polygon fill="grey" stroke="grey" stroke-width="2" points="880.54,-118.1 877.03,-108.1 873.54,-118.1 880.54,-118.1"/>
</g>
<!-- 28 -->
<g id="node29" class="node">
<title>28</title>
<path fill="none" stroke="#9fd856" stroke-width="2" d="M892.03,-252C892.03,-252 862.03,-252 862.03,-252 856.03,-252 850.03,-246 850.03,-240 850.03,-240 850.03,-228 850.03,-228 850.03,-222 856.03,-216 862.03,-216 862.03,-216 892.03,-216 892.03,-216 898.03,-216 904.03,-222 904.03,-228 904.03,-228 904.03,-240 904.03,-240 904.03,-246 898.03,-252 892.03,-252"/>
<text text-anchor="middle" x="877.03" y="-237" font-family="sans" font-size="10.00">pastml</text>
<text text-anchor="middle" x="877.03" y="-226" font-family="sans" font-size="10.00">i: 4</text>
</g>
<!-- 28&#45;&gt;27 -->
<g id="edge54" class="edge">
<title>28&#45;&gt;27</title>
<path fill="none" stroke="grey" stroke-width="2" d="M877.03,-215.7C877.03,-207.98 877.03,-198.71 877.03,-190.11"/>
<polygon fill="grey" stroke="grey" stroke-width="2" points="880.54,-190.1 877.03,-180.1 873.54,-190.1 880.54,-190.1"/>
</g>
<!-- 29&#45;&gt;28 -->
<g id="edge55" class="edge">
<title>29&#45;&gt;28</title>
<path fill="none" stroke="grey" stroke-width="2" d="M878.54,-287.7C878.32,-279.98 878.06,-270.71 877.81,-262.11"/>
<polygon fill="grey" stroke="grey" stroke-width="2" points="881.31,-262 877.52,-252.1 874.31,-262.2 881.31,-262"/>
</g>
<!-- 30&#45;&gt;29 -->
<g id="edge56" class="edge">
<title>30&#45;&gt;29</title>
<path fill="none" stroke="grey" stroke-width="2" d="M879.03,-359.7C879.03,-351.98 879.03,-342.71 879.03,-334.11"/>
<polygon fill="grey" stroke="grey" stroke-width="2" points="882.54,-334.1 879.03,-324.1 875.54,-334.1 882.54,-334.1"/>
</g>
<!-- 31 -->
<g id="node32" class="node">
<title>31</title>
<path fill="none" stroke="#d87d56" stroke-width="2" d="M203.53,-108C203.53,-108 100.53,-108 100.53,-108 94.53,-108 88.53,-102 88.53,-96 88.53,-96 88.53,-84 88.53,-84 88.53,-78 94.53,-72 100.53,-72 100.53,-72 203.53,-72 203.53,-72 209.53,-72 215.53,-78 215.53,-84 215.53,-84 215.53,-96 215.53,-96 215.53,-102 209.53,-108 203.53,-108"/>
<text text-anchor="middle" x="152.03" y="-93" font-family="sans" font-size="10.00">years2days</text>
<text text-anchor="middle" x="152.03" y="-82" font-family="sans" font-size="10.00">tree: SLE/SLE.bottom.5</text>
</g>
<!-- 31&#45;&gt;0 -->
<g id="edge6" class="edge">
<title>31&#45;&gt;0</title>
<path fill="none" stroke="grey" stroke-width="2" d="M215.92,-73.36C218.66,-72.87 221.37,-72.41 224.03,-72 485.4,-31.85 804.58,-21.92 911.87,-19.64"/>
<polygon fill="grey" stroke="grey" stroke-width="2" points="911.94,-23.14 921.87,-19.43 911.8,-16.14 911.94,-23.14"/>
</g>
<!-- 32 -->
<g id="node33" class="node">
<title>32</title>
<path fill="none" stroke="#d8a456" stroke-width="2" d="M182.03,-180C182.03,-180 138.03,-180 138.03,-180 132.03,-180 126.03,-174 126.03,-168 126.03,-168 126.03,-156 126.03,-156 126.03,-150 132.03,-144 138.03,-144 138.03,-144 182.03,-144 182.03,-144 188.03,-144 194.03,-150 194.03,-156 194.03,-156 194.03,-168 194.03,-168 194.03,-174 188.03,-180 182.03,-180"/>
<text text-anchor="middle" x="160.03" y="-159.5" font-family="sans" font-size="10.00">SLE_forest</text>
</g>
<!-- 32&#45;&gt;31 -->
<g id="edge62" class="edge">
<title>32&#45;&gt;31</title>
<path fill="none" stroke="grey" stroke-width="2" d="M158.06,-143.7C157.18,-135.98 156.12,-126.71 155.13,-118.11"/>
<polygon fill="grey" stroke="grey" stroke-width="2" points="158.6,-117.64 153.99,-108.1 151.65,-118.44 158.6,-117.64"/>
</g>
<!-- 33 -->
<g id="node34" class="node">
<title>33</title>
<path fill="none" stroke="#9fd856" stroke-width="2" d="M179.03,-252C179.03,-252 149.03,-252 149.03,-252 143.03,-252 137.03,-246 137.03,-240 137.03,-240 137.03,-228 137.03,-228 137.03,-222 143.03,-216 149.03,-216 149.03,-216 179.03,-216 179.03,-216 185.03,-216 191.03,-222 191.03,-228 191.03,-228 191.03,-240 191.03,-240 191.03,-246 185.03,-252 179.03,-252"/>
<text text-anchor="middle" x="164.03" y="-237" font-family="sans" font-size="10.00">pastml</text>
<text text-anchor="middle" x="164.03" y="-226" font-family="sans" font-size="10.00">i: 5</text>
</g>
<!-- 33&#45;&gt;32 -->
<g id="edge63" class="edge">
<title>33&#45;&gt;32</title>
<path fill="none" stroke="grey" stroke-width="2" d="M163.05,-215.7C162.61,-207.98 162.08,-198.71 161.58,-190.11"/>
<polygon fill="grey" stroke="grey" stroke-width="2" points="165.08,-189.89 161.01,-180.1 158.09,-190.29 165.08,-189.89"/>
</g>
<!-- 34&#45;&gt;33 -->
<g id="edge64" class="edge">
<title>34&#45;&gt;33</title>
<path fill="none" stroke="grey" stroke-width="2" d="M165.54,-287.7C165.32,-279.98 165.06,-270.71 164.81,-262.11"/>
<polygon fill="grey" stroke="grey" stroke-width="2" points="168.31,-262 164.52,-252.1 161.31,-262.2 168.31,-262"/>
</g>
<!-- 35&#45;&gt;34 -->
<g id="edge65" class="edge">
<title>35&#45;&gt;34</title>
<path fill="none" stroke="grey" stroke-width="2" d="M378.97,-369.11C343.42,-358.74 279.82,-340.19 231.36,-326.05"/>
<polygon fill="grey" stroke="grey" stroke-width="2" points="232.15,-322.64 221.57,-323.2 230.19,-329.36 232.15,-322.64"/>
</g>
<!-- 36 -->
<g id="node37" class="node">
<title>36</title>
<path fill="none" stroke="#d87d56" stroke-width="2" d="M783.53,-108C783.53,-108 680.53,-108 680.53,-108 674.53,-108 668.53,-102 668.53,-96 668.53,-96 668.53,-84 668.53,-84 668.53,-78 674.53,-72 680.53,-72 680.53,-72 783.53,-72 783.53,-72 789.53,-72 795.53,-78 795.53,-84 795.53,-84 795.53,-96 795.53,-96 795.53,-102 789.53,-108 783.53,-108"/>
<text text-anchor="middle" x="732.03" y="-93" font-family="sans" font-size="10.00">years2days</text>
<text text-anchor="middle" x="732.03" y="-82" font-family="sans" font-size="10.00">tree: SLE/SLE.bottom.6</text>
</g>
<!-- 36&#45;&gt;0 -->
<g id="edge7" class="edge">
<title>36&#45;&gt;0</title>
<path fill="none" stroke="grey" stroke-width="2" d="M784.84,-71.97C824.23,-59.26 877.07,-42.22 912.04,-30.94"/>
<polygon fill="grey" stroke="grey" stroke-width="2" points="913.4,-34.17 921.84,-27.77 911.25,-27.51 913.4,-34.17"/>
</g>
<!-- 37 -->
<g id="node38" class="node">
<title>37</title>
<path fill="none" stroke="#d8a456" stroke-width="2" d="M753.03,-180C753.03,-180 709.03,-180 709.03,-180 703.03,-180 697.03,-174 697.03,-168 697.03,-168 697.03,-156 697.03,-156 697.03,-150 703.03,-144 709.03,-144 709.03,-144 753.03,-144 753.03,-144 759.03,-144 765.03,-150 765.03,-156 765.03,-156 765.03,-168 765.03,-168 765.03,-174 759.03,-180 753.03,-180"/>
<text text-anchor="middle" x="731.03" y="-159.5" font-family="sans" font-size="10.00">SLE_forest</text>
</g>
<!-- 37&#45;&gt;36 -->
<g id="edge71" class="edge">
<title>37&#45;&gt;36</title>
<path fill="none" stroke="grey" stroke-width="2" d="M731.28,-143.7C731.39,-135.98 731.52,-126.71 731.65,-118.11"/>
<polygon fill="grey" stroke="grey" stroke-width="2" points="735.15,-118.15 731.79,-108.1 728.15,-118.05 735.15,-118.15"/>
</g>
<!-- 38 -->
<g id="node39" class="node">
<title>38</title>
<path fill="none" stroke="#9fd856" stroke-width="2" d="M743.03,-252C743.03,-252 713.03,-252 713.03,-252 707.03,-252 701.03,-246 701.03,-240 701.03,-240 701.03,-228 701.03,-228 701.03,-222 707.03,-216 713.03,-216 713.03,-216 743.03,-216 743.03,-216 749.03,-216 755.03,-222 755.03,-228 755.03,-228 755.03,-240 755.03,-240 755.03,-246 749.03,-252 743.03,-252"/>
<text text-anchor="middle" x="728.03" y="-237" font-family="sans" font-size="10.00">pastml</text>
<text text-anchor="middle" x="728.03" y="-226" font-family="sans" font-size="10.00">i: 6</text>
</g>
<!-- 38&#45;&gt;37 -->
<g id="edge72" class="edge">
<title>38&#45;&gt;37</title>
<path fill="none" stroke="grey" stroke-width="2" d="M728.78,-215.7C729.11,-207.98 729.5,-198.71 729.87,-190.11"/>
<polygon fill="grey" stroke="grey" stroke-width="2" points="733.37,-190.25 730.3,-180.1 726.38,-189.95 733.37,-190.25"/>
</g>
<!-- 39&#45;&gt;38 -->
<g id="edge73" class="edge">
<title>39&#45;&gt;38</title>
<path fill="none" stroke="grey" stroke-width="2" d="M728.03,-287.7C728.03,-279.98 728.03,-270.71 728.03,-262.11"/>
<polygon fill="grey" stroke="grey" stroke-width="2" points="731.54,-262.1 728.03,-252.1 724.54,-262.1 731.54,-262.1"/>
</g>
<!-- 40&#45;&gt;39 -->
<g id="edge74" class="edge">
<title>40&#45;&gt;39</title>
<path fill="none" stroke="grey" stroke-width="2" d="M728.03,-359.7C728.03,-351.98 728.03,-342.71 728.03,-334.11"/>
<polygon fill="grey" stroke="grey" stroke-width="2" points="731.54,-334.1 728.03,-324.1 724.54,-334.1 731.54,-334.1"/>
</g>
<!-- 41 -->
<g id="node42" class="node">
<title>41</title>
<path fill="none" stroke="#d87d56" stroke-width="2" d="M1073.53,-108C1073.53,-108 970.53,-108 970.53,-108 964.53,-108 958.53,-102 958.53,-96 958.53,-96 958.53,-84 958.53,-84 958.53,-78 964.53,-72 970.53,-72 970.53,-72 1073.53,-72 1073.53,-72 1079.53,-72 1085.53,-78 1085.53,-84 1085.53,-84 1085.53,-96 1085.53,-96 1085.53,-102 1079.53,-108 1073.53,-108"/>
<text text-anchor="middle" x="1022.03" y="-93" font-family="sans" font-size="10.00">years2days</text>
<text text-anchor="middle" x="1022.03" y="-82" font-family="sans" font-size="10.00">tree: SLE/SLE.bottom.7</text>
</g>
<!-- 41&#45;&gt;0 -->
<g id="edge8" class="edge">
<title>41&#45;&gt;0</title>
<path fill="none" stroke="grey" stroke-width="2" d="M1003.99,-71.7C994.97,-63.05 983.92,-52.45 974.09,-43.03"/>
<polygon fill="grey" stroke="grey" stroke-width="2" points="976.51,-40.5 966.87,-36.1 971.67,-45.55 976.51,-40.5"/>
</g>
<!-- 42 -->
<g id="node43" class="node">
<title>42</title>
<path fill="none" stroke="#d8a456" stroke-width="2" d="M1040.03,-180C1040.03,-180 996.03,-180 996.03,-180 990.03,-180 984.03,-174 984.03,-168 984.03,-168 984.03,-156 984.03,-156 984.03,-150 990.03,-144 996.03,-144 996.03,-144 1040.03,-144 1040.03,-144 1046.03,-144 1052.03,-150 1052.03,-156 1052.03,-156 1052.03,-168 1052.03,-168 1052.03,-174 1046.03,-180 1040.03,-180"/>
<text text-anchor="middle" x="1018.03" y="-159.5" font-family="sans" font-size="10.00">SLE_forest</text>
</g>
<!-- 42&#45;&gt;41 -->
<g id="edge80" class="edge">
<title>42&#45;&gt;41</title>
<path fill="none" stroke="grey" stroke-width="2" d="M1019.02,-143.7C1019.46,-135.98 1019.99,-126.71 1020.49,-118.11"/>
<polygon fill="grey" stroke="grey" stroke-width="2" points="1023.98,-118.29 1021.06,-108.1 1016.99,-117.89 1023.98,-118.29"/>
</g>
<!-- 43 -->
<g id="node44" class="node">
<title>43</title>
<path fill="none" stroke="#9fd856" stroke-width="2" d="M1032.03,-252C1032.03,-252 1002.03,-252 1002.03,-252 996.03,-252 990.03,-246 990.03,-240 990.03,-240 990.03,-228 990.03,-228 990.03,-222 996.03,-216 1002.03,-216 1002.03,-216 1032.03,-216 1032.03,-216 1038.03,-216 1044.03,-222 1044.03,-228 1044.03,-228 1044.03,-240 1044.03,-240 1044.03,-246 1038.03,-252 1032.03,-252"/>
<text text-anchor="middle" x="1017.03" y="-237" font-family="sans" font-size="10.00">pastml</text>
<text text-anchor="middle" x="1017.03" y="-226" font-family="sans" font-size="10.00">i: 7</text>
</g>
<!-- 43&#45;&gt;42 -->
<g id="edge81" class="edge">
<title>43&#45;&gt;42</title>
<path fill="none" stroke="grey" stroke-width="2" d="M1017.28,-215.7C1017.39,-207.98 1017.52,-198.71 1017.65,-190.11"/>
<polygon fill="grey" stroke="grey" stroke-width="2" points="1021.15,-190.15 1017.79,-180.1 1014.15,-190.05 1021.15,-190.15"/>
</g>
<!-- 44&#45;&gt;43 -->
<g id="edge82" class="edge">
<title>44&#45;&gt;43</title>
<path fill="none" stroke="grey" stroke-width="2" d="M1016.28,-287.7C1016.39,-279.98 1016.52,-270.71 1016.65,-262.11"/>
<polygon fill="grey" stroke="grey" stroke-width="2" points="1020.15,-262.15 1016.79,-252.1 1013.15,-262.05 1020.15,-262.15"/>
</g>
<!-- 45&#45;&gt;44 -->
<g id="edge83" class="edge">
<title>45&#45;&gt;44</title>
<path fill="none" stroke="grey" stroke-width="2" d="M968.61,-359.7C976.24,-351.22 985.56,-340.86 993.91,-331.58"/>
<polygon fill="grey" stroke="grey" stroke-width="2" points="996.55,-333.88 1000.64,-324.1 991.35,-329.2 996.55,-333.88"/>
</g>
<!-- 46 -->
<g id="node47" class="node">
<title>46</title>
<path fill="none" stroke="#d87d56" stroke-width="2" d="M1702.53,-108C1702.53,-108 1599.53,-108 1599.53,-108 1593.53,-108 1587.53,-102 1587.53,-96 1587.53,-96 1587.53,-84 1587.53,-84 1587.53,-78 1593.53,-72 1599.53,-72 1599.53,-72 1702.53,-72 1702.53,-72 1708.53,-72 1714.53,-78 1714.53,-84 1714.53,-84 1714.53,-96 1714.53,-96 1714.53,-102 1708.53,-108 1702.53,-108"/>
<text text-anchor="middle" x="1651.03" y="-93" font-family="sans" font-size="10.00">years2days</text>
<text text-anchor="middle" x="1651.03" y="-82" font-family="sans" font-size="10.00">tree: SLE/SLE.bottom.8</text>
</g>
<!-- 46&#45;&gt;0 -->
<g id="edge9" class="edge">
<title>46&#45;&gt;0</title>
<path fill="none" stroke="grey" stroke-width="2" d="M1587.31,-74.41C1582.49,-73.52 1577.69,-72.7 1573.03,-72 1352.06,-38.68 1083.66,-24.7 986.45,-20.48"/>
<polygon fill="grey" stroke="grey" stroke-width="2" points="986.39,-16.98 976.25,-20.05 986.09,-23.97 986.39,-16.98"/>
</g>
<!-- 47 -->
<g id="node48" class="node">
<title>47</title>
<path fill="none" stroke="#d8a456" stroke-width="2" d="M1633.03,-180C1633.03,-180 1589.03,-180 1589.03,-180 1583.03,-180 1577.03,-174 1577.03,-168 1577.03,-168 1577.03,-156 1577.03,-156 1577.03,-150 1583.03,-144 1589.03,-144 1589.03,-144 1633.03,-144 1633.03,-144 1639.03,-144 1645.03,-150 1645.03,-156 1645.03,-156 1645.03,-168 1645.03,-168 1645.03,-174 1639.03,-180 1633.03,-180"/>
<text text-anchor="middle" x="1611.03" y="-159.5" font-family="sans" font-size="10.00">SLE_forest</text>
</g>
<!-- 47&#45;&gt;46 -->
<g id="edge89" class="edge">
<title>47&#45;&gt;46</title>
<path fill="none" stroke="grey" stroke-width="2" d="M1620.92,-143.7C1625.52,-135.64 1631.1,-125.89 1636.19,-116.98"/>
<polygon fill="grey" stroke="grey" stroke-width="2" points="1639.34,-118.52 1641.26,-108.1 1633.26,-115.05 1639.34,-118.52"/>
</g>
<!-- 48 -->
<g id="node49" class="node">
<title>48</title>
<path fill="none" stroke="#9fd856" stroke-width="2" d="M1522.03,-252C1522.03,-252 1492.03,-252 1492.03,-252 1486.03,-252 1480.03,-246 1480.03,-240 1480.03,-240 1480.03,-228 1480.03,-228 1480.03,-222 1486.03,-216 1492.03,-216 1492.03,-216 1522.03,-216 1522.03,-216 1528.03,-216 1534.03,-222 1534.03,-228 1534.03,-228 1534.03,-240 1534.03,-240 1534.03,-246 1528.03,-252 1522.03,-252"/>
<text text-anchor="middle" x="1507.03" y="-237" font-family="sans" font-size="10.00">pastml</text>
<text text-anchor="middle" x="1507.03" y="-226" font-family="sans" font-size="10.00">i: 8</text>
</g>
<!-- 48&#45;&gt;47 -->
<g id="edge90" class="edge">
<title>48&#45;&gt;47</title>
<path fill="none" stroke="grey" stroke-width="2" d="M1532.48,-215.88C1545.82,-206.89 1562.36,-195.76 1576.81,-186.03"/>
<polygon fill="grey" stroke="grey" stroke-width="2" points="1579.15,-188.68 1585.5,-180.19 1575.25,-182.87 1579.15,-188.68"/>
</g>
<!-- 49&#45;&gt;48 -->
<g id="edge91" class="edge">
<title>49&#45;&gt;48</title>
<path fill="none" stroke="grey" stroke-width="2" d="M1503.27,-287.7C1503.82,-279.98 1504.48,-270.71 1505.1,-262.11"/>
<polygon fill="grey" stroke="grey" stroke-width="2" points="1508.59,-262.33 1505.81,-252.1 1501.61,-261.83 1508.59,-262.33"/>
</g>
<!-- 50&#45;&gt;49 -->
<g id="edge92" class="edge">
<title>50&#45;&gt;49</title>
<path fill="none" stroke="grey" stroke-width="2" d="M1225.32,-370.9C1268.85,-361.14 1356.7,-341.35 1431.03,-324 1432.73,-323.6 1434.45,-323.2 1436.19,-322.79"/>
<polygon fill="grey" stroke="grey" stroke-width="2" points="1437.31,-326.13 1446.24,-320.42 1435.7,-319.31 1437.31,-326.13"/>
</g>
<!-- 51 -->
<g id="node52" class="node">
<title>51</title>
<path fill="none" stroke="#d87d56" stroke-width="2" stroke-dasharray="5,2" d="M493.53,-108C493.53,-108 390.53,-108 390.53,-108 384.53,-108 378.53,-102 378.53,-96 378.53,-96 378.53,-84 378.53,-84 378.53,-78 384.53,-72 390.53,-72 390.53,-72 493.53,-72 493.53,-72 499.53,-72 505.53,-78 505.53,-84 505.53,-84 505.53,-96 505.53,-96 505.53,-102 499.53,-108 493.53,-108"/>
<text text-anchor="middle" x="442.03" y="-93" font-family="sans" font-size="10.00">years2days</text>
<text text-anchor="middle" x="442.03" y="-82" font-family="sans" font-size="10.00">tree: SLE/SLE.bottom.9</text>
</g>
<!-- 51&#45;&gt;0 -->
<g id="edge10" class="edge">
<title>51&#45;&gt;0</title>
<path fill="none" stroke="grey" stroke-width="2" d="M505.56,-73.6C508.42,-73.03 511.25,-72.5 514.03,-72 660.02,-45.95 835.87,-28.85 911.49,-22.16"/>
<polygon fill="grey" stroke="grey" stroke-width="2" points="912.24,-25.61 921.9,-21.25 911.63,-18.64 912.24,-25.61"/>
</g>
<!-- 52 -->
<g id="node53" class="node">
<title>52</title>
<path fill="none" stroke="#d8a456" stroke-width="2" stroke-dasharray="5,2" d="M469.03,-180C469.03,-180 425.03,-180 425.03,-180 419.03,-180 413.03,-174 413.03,-168 413.03,-168 413.03,-156 413.03,-156 413.03,-150 419.03,-144 425.03,-144 425.03,-144 469.03,-144 469.03,-144 475.03,-144 481.03,-150 481.03,-156 481.03,-156 481.03,-168 481.03,-168 481.03,-174 475.03,-180 469.03,-180"/>
<text text-anchor="middle" x="447.03" y="-159.5" font-family="sans" font-size="10.00">SLE_forest</text>
</g>
<!-- 52&#45;&gt;51 -->
<g id="edge98" class="edge">
<title>52&#45;&gt;51</title>
<path fill="none" stroke="grey" stroke-width="2" d="M445.8,-143.7C445.25,-135.98 444.59,-126.71 443.97,-118.11"/>
<polygon fill="grey" stroke="grey" stroke-width="2" points="447.46,-117.83 443.26,-108.1 440.48,-118.33 447.46,-117.83"/>
</g>
<!-- 53 -->
<g id="node54" class="node">
<title>53</title>
<path fill="none" stroke="#9fd856" stroke-width="2" stroke-dasharray="5,2" d="M471.03,-252C471.03,-252 441.03,-252 441.03,-252 435.03,-252 429.03,-246 429.03,-240 429.03,-240 429.03,-228 429.03,-228 429.03,-222 435.03,-216 441.03,-216 441.03,-216 471.03,-216 471.03,-216 477.03,-216 483.03,-222 483.03,-228 483.03,-228 483.03,-240 483.03,-240 483.03,-246 477.03,-252 471.03,-252"/>
<text text-anchor="middle" x="456.03" y="-237" font-family="sans" font-size="10.00">pastml</text>
<text text-anchor="middle" x="456.03" y="-226" font-family="sans" font-size="10.00">i: 9</text>
</g>
<!-- 53&#45;&gt;52 -->
<g id="edge99" class="edge">
<title>53&#45;&gt;52</title>
<path fill="none" stroke="grey" stroke-width="2" d="M453.81,-215.7C452.82,-207.98 451.63,-198.71 450.52,-190.11"/>
<polygon fill="grey" stroke="grey" stroke-width="2" points="453.98,-189.58 449.23,-180.1 447.04,-190.47 453.98,-189.58"/>
</g>
<!-- 54&#45;&gt;53 -->
<g id="edge100" class="edge">
<title>54&#45;&gt;53</title>
<path fill="none" stroke="grey" stroke-width="2" d="M462.06,-287.7C461.18,-279.98 460.12,-270.71 459.13,-262.11"/>
<polygon fill="grey" stroke="grey" stroke-width="2" points="462.6,-261.64 457.99,-252.1 455.65,-262.44 462.6,-261.64"/>
</g>
<!-- 55&#45;&gt;54 -->
<g id="edge101" class="edge">
<title>55&#45;&gt;54</title>
<path fill="none" stroke="grey" stroke-width="2" d="M549.97,-360.23C535.09,-351.02 516.44,-339.47 500.32,-329.48"/>
<polygon fill="grey" stroke="grey" stroke-width="2" points="502.01,-326.41 491.67,-324.12 498.32,-332.36 502.01,-326.41"/>
</g>
<!-- 56&#45;&gt;0 -->
<g id="edge11" class="edge">
<title>56&#45;&gt;0</title>
<path fill="none" stroke="grey" stroke-width="2" d="M1248.21,-73.67C1245.45,-73.1 1242.72,-72.54 1240.03,-72 1149.23,-53.71 1041.92,-34.88 986.44,-25.36"/>
<polygon fill="grey" stroke="grey" stroke-width="2" points="986.83,-21.87 976.38,-23.63 985.65,-28.77 986.83,-21.87"/>
</g>
<!-- 57&#45;&gt;0 -->
<g id="edge12" class="edge">
<title>57&#45;&gt;0</title>
<path fill="none" stroke="grey" stroke-width="2" d="M1479.83,-151.33C1501.37,-143.46 1527.07,-129.97 1540.03,-108 1548.17,-94.22 1550.83,-83.81 1540.03,-72 1502.63,-31.09 1110.39,-21.51 986.39,-19.49"/>
<polygon fill="grey" stroke="grey" stroke-width="2" points="986.3,-15.99 976.25,-19.33 986.19,-22.99 986.3,-15.99"/>
</g>
</g>
</svg>
