<?xml version="1.0" encoding="UTF-8" standalone="no"?>
<!DOCTYPE svg PUBLIC "-//W3C//DTD SVG 1.1//EN"
 "http://www.w3.org/Graphics/SVG/1.1/DTD/svg11.dtd">
<!-- Generated by graphviz version 2.43.0 (0)
 -->
<!-- Title: snakemake_dag Pages: 1 -->
<svg width="2978pt" height="548pt"
 viewBox="0.00 0.00 2978.09 548.00" xmlns="http://www.w3.org/2000/svg" xmlns:xlink="http://www.w3.org/1999/xlink">
<g id="graph0" class="graph" transform="scale(1 1) rotate(0) translate(4 544)">
<title>snakemake_dag</title>
<polygon fill="white" stroke="transparent" points="-4,4 -4,-544 2974.09,-544 2974.09,4 -4,4"/>
<!-- 0 -->
<g id="node1" class="node">
<title>0</title>
<path fill="none" stroke="#56d86b" stroke-width="2" d="M1539.5,-36C1539.5,-36 1509.5,-36 1509.5,-36 1503.5,-36 1497.5,-30 1497.5,-24 1497.5,-24 1497.5,-12 1497.5,-12 1497.5,-6 1503.5,0 1509.5,0 1509.5,0 1539.5,0 1539.5,0 1545.5,0 1551.5,-6 1551.5,-12 1551.5,-12 1551.5,-24 1551.5,-24 1551.5,-30 1545.5,-36 1539.5,-36"/>
<text text-anchor="middle" x="1524.5" y="-15.5" font-family="sans" font-size="10.00">all</text>
</g>
<!-- 1 -->
<g id="node2" class="node">
<title>1</title>
<path fill="none" stroke="#567bd8" stroke-width="2" d="M77,-108C77,-108 12,-108 12,-108 6,-108 0,-102 0,-96 0,-96 0,-84 0,-84 0,-78 6,-72 12,-72 12,-72 77,-72 77,-72 83,-72 89,-78 89,-84 89,-84 89,-96 89,-96 89,-102 83,-108 77,-108"/>
<text text-anchor="middle" x="44.5" y="-93" font-family="sans" font-size="10.00">years2days</text>
<text text-anchor="middle" x="44.5" y="-82" font-family="sans" font-size="10.00">tree: SLE/SLE.0</text>
</g>
<!-- 1&#45;&gt;0 -->
<g id="edge1" class="edge">
<title>1&#45;&gt;0</title>
<path fill="none" stroke="grey" stroke-width="2" d="M89.1,-73.75C91.92,-73.08 94.74,-72.48 97.5,-72 375.93,-23.13 1290.74,-19.27 1487.15,-19.01"/>
<polygon fill="grey" stroke="grey" stroke-width="2" points="1487.26,-22.51 1497.25,-19 1487.25,-15.51 1487.26,-22.51"/>
</g>
<!-- 2 -->
<g id="node3" class="node">
<title>2</title>
<path fill="none" stroke="#d85656" stroke-width="2" d="M197.5,-180C197.5,-180 153.5,-180 153.5,-180 147.5,-180 141.5,-174 141.5,-168 141.5,-168 141.5,-156 141.5,-156 141.5,-150 147.5,-144 153.5,-144 153.5,-144 197.5,-144 197.5,-144 203.5,-144 209.5,-150 209.5,-156 209.5,-156 209.5,-168 209.5,-168 209.5,-174 203.5,-180 197.5,-180"/>
<text text-anchor="middle" x="175.5" y="-159.5" font-family="sans" font-size="10.00">SLE_forest</text>
</g>
<!-- 2&#45;&gt;1 -->
<g id="edge31" class="edge">
<title>2&#45;&gt;1</title>
<path fill="none" stroke="grey" stroke-width="2" d="M143.45,-143.88C126.01,-134.55 104.23,-122.92 85.56,-112.94"/>
<polygon fill="grey" stroke="grey" stroke-width="2" points="87.14,-109.82 76.67,-108.19 83.84,-115.99 87.14,-109.82"/>
</g>
<!-- 55 -->
<g id="node56" class="node">
<title>55</title>
<path fill="none" stroke="#d8cb56" stroke-width="2" d="M232,-108C232,-108 119,-108 119,-108 113,-108 107,-102 107,-96 107,-96 107,-84 107,-84 107,-78 113,-72 119,-72 119,-72 232,-72 232,-72 238,-72 244,-78 244,-84 244,-84 244,-96 244,-96 244,-102 238,-108 232,-108"/>
<text text-anchor="middle" x="175.5" y="-87.5" font-family="sans" font-size="10.00">itol_selected_annotation</text>
</g>
<!-- 2&#45;&gt;55 -->
<g id="edge124" class="edge">
<title>2&#45;&gt;55</title>
<path fill="none" stroke="grey" stroke-width="2" d="M175.5,-143.7C175.5,-135.98 175.5,-126.71 175.5,-118.11"/>
<polygon fill="grey" stroke="grey" stroke-width="2" points="179,-118.1 175.5,-108.1 172,-118.1 179,-118.1"/>
</g>
<!-- 3 -->
<g id="node4" class="node">
<title>3</title>
<path fill="none" stroke="#8fd856" stroke-width="2" d="M357.5,-252C357.5,-252 327.5,-252 327.5,-252 321.5,-252 315.5,-246 315.5,-240 315.5,-240 315.5,-228 315.5,-228 315.5,-222 321.5,-216 327.5,-216 327.5,-216 357.5,-216 357.5,-216 363.5,-216 369.5,-222 369.5,-228 369.5,-228 369.5,-240 369.5,-240 369.5,-246 363.5,-252 357.5,-252"/>
<text text-anchor="middle" x="342.5" y="-237" font-family="sans" font-size="10.00">pastml</text>
<text text-anchor="middle" x="342.5" y="-226" font-family="sans" font-size="10.00">i: 0</text>
</g>
<!-- 3&#45;&gt;2 -->
<g id="edge32" class="edge">
<title>3&#45;&gt;2</title>
<path fill="none" stroke="grey" stroke-width="2" d="M315.3,-221.6C289.28,-210.69 249.6,-194.06 219.16,-181.3"/>
<polygon fill="grey" stroke="grey" stroke-width="2" points="220.2,-177.94 209.63,-177.31 217.5,-184.4 220.2,-177.94"/>
</g>
<!-- 65 -->
<g id="node66" class="node">
<title>65</title>
<path fill="none" stroke="#68d856" stroke-width="2" d="M366,-180C366,-180 319,-180 319,-180 313,-180 307,-174 307,-168 307,-168 307,-156 307,-156 307,-150 313,-144 319,-144 319,-144 366,-144 366,-144 372,-144 378,-150 378,-156 378,-156 378,-168 378,-168 378,-174 372,-180 366,-180"/>
<text text-anchor="middle" x="342.5" y="-159.5" font-family="sans" font-size="10.00">pastml_itol</text>
</g>
<!-- 3&#45;&gt;65 -->
<g id="edge135" class="edge">
<title>3&#45;&gt;65</title>
<path fill="none" stroke="grey" stroke-width="2" d="M342.5,-215.7C342.5,-207.98 342.5,-198.71 342.5,-190.11"/>
<polygon fill="grey" stroke="grey" stroke-width="2" points="346,-190.1 342.5,-180.1 339,-190.1 346,-190.1"/>
</g>
<!-- 4 -->
<g id="node5" class="node">
<title>4</title>
<path fill="none" stroke="#b6d856" stroke-width="2" d="M719,-324C719,-324 632,-324 632,-324 626,-324 620,-318 620,-312 620,-312 620,-300 620,-300 620,-294 626,-288 632,-288 632,-288 719,-288 719,-288 725,-288 731,-294 731,-300 731,-300 731,-312 731,-312 731,-318 725,-324 719,-324"/>
<text text-anchor="middle" x="675.5" y="-309" font-family="sans" font-size="10.00">date_lsd2_resolved</text>
<text text-anchor="middle" x="675.5" y="-298" font-family="sans" font-size="10.00">tree: tree.0</text>
</g>
<!-- 4&#45;&gt;3 -->
<g id="edge33" class="edge">
<title>4&#45;&gt;3</title>
<path fill="none" stroke="grey" stroke-width="2" d="M619.76,-293.28C551.47,-278.93 437.68,-255.01 379.38,-242.75"/>
<polygon fill="grey" stroke="grey" stroke-width="2" points="380.01,-239.31 369.51,-240.68 378.57,-246.16 380.01,-239.31"/>
</g>
<!-- 4&#45;&gt;65 -->
<g id="edge134" class="edge">
<title>4&#45;&gt;65</title>
<path fill="none" stroke="grey" stroke-width="2" d="M635.33,-287.87C572.84,-261.23 452.77,-210.02 387.47,-182.17"/>
<polygon fill="grey" stroke="grey" stroke-width="2" points="388.81,-178.94 378.24,-178.24 386.07,-185.38 388.81,-178.94"/>
</g>
<!-- 5 -->
<g id="node6" class="node">
<title>5</title>
<path fill="none" stroke="#56d892" stroke-width="2" d="M1149.5,-396C1149.5,-396 1119.5,-396 1119.5,-396 1113.5,-396 1107.5,-390 1107.5,-384 1107.5,-384 1107.5,-372 1107.5,-372 1107.5,-366 1113.5,-360 1119.5,-360 1119.5,-360 1149.5,-360 1149.5,-360 1155.5,-360 1161.5,-366 1161.5,-372 1161.5,-372 1161.5,-384 1161.5,-384 1161.5,-390 1155.5,-396 1149.5,-396"/>
<text text-anchor="middle" x="1134.5" y="-381" font-family="sans" font-size="10.00">resolve</text>
<text text-anchor="middle" x="1134.5" y="-370" font-family="sans" font-size="10.00">i: 0</text>
</g>
<!-- 5&#45;&gt;4 -->
<g id="edge34" class="edge">
<title>5&#45;&gt;4</title>
<path fill="none" stroke="grey" stroke-width="2" d="M1107.49,-374.56C1044.71,-368.65 884.01,-352.06 741.07,-324.19"/>
<polygon fill="grey" stroke="grey" stroke-width="2" points="741.74,-320.75 731.25,-322.25 740.38,-327.62 741.74,-320.75"/>
</g>
<!-- 6 -->
<g id="node7" class="node">
<title>6</title>
<path fill="none" stroke="#56d0d8" stroke-width="2" stroke-dasharray="5,2" d="M1571.5,-540C1571.5,-540 1541.5,-540 1541.5,-540 1535.5,-540 1529.5,-534 1529.5,-528 1529.5,-528 1529.5,-516 1529.5,-516 1529.5,-510 1535.5,-504 1541.5,-504 1541.5,-504 1571.5,-504 1571.5,-504 1577.5,-504 1583.5,-510 1583.5,-516 1583.5,-516 1583.5,-528 1583.5,-528 1583.5,-534 1577.5,-540 1571.5,-540"/>
<text text-anchor="middle" x="1556.5" y="-519.5" font-family="sans" font-size="10.00">raxml</text>
</g>
<!-- 6&#45;&gt;5 -->
<g id="edge37" class="edge">
<title>6&#45;&gt;5</title>
<path fill="none" stroke="grey" stroke-width="2" d="M1529.29,-517.31C1483.72,-510.63 1389.47,-494.71 1313.5,-468 1261.96,-449.88 1206.11,-420.39 1170.75,-400.36"/>
<polygon fill="grey" stroke="grey" stroke-width="2" points="1172.2,-397.16 1161.78,-395.24 1168.73,-403.24 1172.2,-397.16"/>
</g>
<!-- 7 -->
<g id="node8" class="node">
<title>7</title>
<path fill="none" stroke="#d8a456" stroke-width="2" d="M1586.5,-468C1586.5,-468 1526.5,-468 1526.5,-468 1520.5,-468 1514.5,-462 1514.5,-456 1514.5,-456 1514.5,-444 1514.5,-444 1514.5,-438 1520.5,-432 1526.5,-432 1526.5,-432 1586.5,-432 1586.5,-432 1592.5,-432 1598.5,-438 1598.5,-444 1598.5,-444 1598.5,-456 1598.5,-456 1598.5,-462 1592.5,-468 1586.5,-468"/>
<text text-anchor="middle" x="1556.5" y="-447.5" font-family="sans" font-size="10.00">date_full_tree</text>
</g>
<!-- 6&#45;&gt;7 -->
<g id="edge40" class="edge">
<title>6&#45;&gt;7</title>
<path fill="none" stroke="grey" stroke-width="2" d="M1556.5,-503.7C1556.5,-495.98 1556.5,-486.71 1556.5,-478.11"/>
<polygon fill="grey" stroke="grey" stroke-width="2" points="1560,-478.1 1556.5,-468.1 1553,-478.1 1560,-478.1"/>
</g>
<!-- 14 -->
<g id="node15" class="node">
<title>14</title>
<path fill="none" stroke="#56d892" stroke-width="2" d="M1572.5,-396C1572.5,-396 1542.5,-396 1542.5,-396 1536.5,-396 1530.5,-390 1530.5,-384 1530.5,-384 1530.5,-372 1530.5,-372 1530.5,-366 1536.5,-360 1542.5,-360 1542.5,-360 1572.5,-360 1572.5,-360 1578.5,-360 1584.5,-366 1584.5,-372 1584.5,-372 1584.5,-384 1584.5,-384 1584.5,-390 1578.5,-396 1572.5,-396"/>
<text text-anchor="middle" x="1557.5" y="-381" font-family="sans" font-size="10.00">resolve</text>
<text text-anchor="middle" x="1557.5" y="-370" font-family="sans" font-size="10.00">i: 1</text>
</g>
<!-- 6&#45;&gt;14 -->
<g id="edge49" class="edge">
<title>6&#45;&gt;14</title>
<path fill="none" stroke="grey" stroke-width="2" d="M1579.8,-503.82C1590.4,-494.54 1601.82,-482.09 1607.5,-468 1613.48,-453.16 1613.41,-446.87 1607.5,-432 1603.21,-421.2 1595.56,-411.32 1587.51,-403.1"/>
<polygon fill="grey" stroke="grey" stroke-width="2" points="1589.75,-400.4 1580.1,-396.04 1584.92,-405.47 1589.75,-400.4"/>
</g>
<!-- 19 -->
<g id="node20" class="node">
<title>19</title>
<path fill="none" stroke="#56d892" stroke-width="2" d="M1646.5,-396C1646.5,-396 1616.5,-396 1616.5,-396 1610.5,-396 1604.5,-390 1604.5,-384 1604.5,-384 1604.5,-372 1604.5,-372 1604.5,-366 1610.5,-360 1616.5,-360 1616.5,-360 1646.5,-360 1646.5,-360 1652.5,-360 1658.5,-366 1658.5,-372 1658.5,-372 1658.5,-384 1658.5,-384 1658.5,-390 1652.5,-396 1646.5,-396"/>
<text text-anchor="middle" x="1631.5" y="-381" font-family="sans" font-size="10.00">resolve</text>
<text text-anchor="middle" x="1631.5" y="-370" font-family="sans" font-size="10.00">i: 2</text>
</g>
<!-- 6&#45;&gt;19 -->
<g id="edge58" class="edge">
<title>6&#45;&gt;19</title>
<path fill="none" stroke="grey" stroke-width="2" d="M1583.69,-507.15C1598.42,-498.12 1615.42,-484.87 1624.5,-468 1634.63,-449.17 1635.88,-424.8 1634.87,-406.32"/>
<polygon fill="grey" stroke="grey" stroke-width="2" points="1638.35,-405.9 1634.07,-396.21 1631.37,-406.45 1638.35,-405.9"/>
</g>
<!-- 24 -->
<g id="node25" class="node">
<title>24</title>
<path fill="none" stroke="#56d892" stroke-width="2" d="M1793.5,-396C1793.5,-396 1763.5,-396 1763.5,-396 1757.5,-396 1751.5,-390 1751.5,-384 1751.5,-384 1751.5,-372 1751.5,-372 1751.5,-366 1757.5,-360 1763.5,-360 1763.5,-360 1793.5,-360 1793.5,-360 1799.5,-360 1805.5,-366 1805.5,-372 1805.5,-372 1805.5,-384 1805.5,-384 1805.5,-390 1799.5,-396 1793.5,-396"/>
<text text-anchor="middle" x="1778.5" y="-381" font-family="sans" font-size="10.00">resolve</text>
<text text-anchor="middle" x="1778.5" y="-370" font-family="sans" font-size="10.00">i: 3</text>
</g>
<!-- 6&#45;&gt;24 -->
<g id="edge67" class="edge">
<title>6&#45;&gt;24</title>
<path fill="none" stroke="grey" stroke-width="2" d="M1583.82,-518.14C1635.9,-512.09 1746.33,-496.18 1770.5,-468 1784.81,-451.31 1785.73,-425.81 1783.7,-406.38"/>
<polygon fill="grey" stroke="grey" stroke-width="2" points="1787.14,-405.74 1782.33,-396.31 1780.2,-406.69 1787.14,-405.74"/>
</g>
<!-- 29 -->
<g id="node30" class="node">
<title>29</title>
<path fill="none" stroke="#56d892" stroke-width="2" d="M1935.5,-396C1935.5,-396 1905.5,-396 1905.5,-396 1899.5,-396 1893.5,-390 1893.5,-384 1893.5,-384 1893.5,-372 1893.5,-372 1893.5,-366 1899.5,-360 1905.5,-360 1905.5,-360 1935.5,-360 1935.5,-360 1941.5,-360 1947.5,-366 1947.5,-372 1947.5,-372 1947.5,-384 1947.5,-384 1947.5,-390 1941.5,-396 1935.5,-396"/>
<text text-anchor="middle" x="1920.5" y="-381" font-family="sans" font-size="10.00">resolve</text>
<text text-anchor="middle" x="1920.5" y="-370" font-family="sans" font-size="10.00">i: 4</text>
</g>
<!-- 6&#45;&gt;29 -->
<g id="edge76" class="edge">
<title>6&#45;&gt;29</title>
<path fill="none" stroke="grey" stroke-width="2" d="M1583.85,-518.19C1628.63,-512.85 1719.68,-498.91 1790.5,-468 1828.79,-451.29 1867.66,-422.84 1892.8,-402.6"/>
<polygon fill="grey" stroke="grey" stroke-width="2" points="1895.24,-405.12 1900.77,-396.09 1890.81,-399.7 1895.24,-405.12"/>
</g>
<!-- 34 -->
<g id="node35" class="node">
<title>34</title>
<path fill="none" stroke="#56d892" stroke-width="2" d="M1330.5,-396C1330.5,-396 1300.5,-396 1300.5,-396 1294.5,-396 1288.5,-390 1288.5,-384 1288.5,-384 1288.5,-372 1288.5,-372 1288.5,-366 1294.5,-360 1300.5,-360 1300.5,-360 1330.5,-360 1330.5,-360 1336.5,-360 1342.5,-366 1342.5,-372 1342.5,-372 1342.5,-384 1342.5,-384 1342.5,-390 1336.5,-396 1330.5,-396"/>
<text text-anchor="middle" x="1315.5" y="-381" font-family="sans" font-size="10.00">resolve</text>
<text text-anchor="middle" x="1315.5" y="-370" font-family="sans" font-size="10.00">i: 5</text>
</g>
<!-- 6&#45;&gt;34 -->
<g id="edge85" class="edge">
<title>6&#45;&gt;34</title>
<path fill="none" stroke="grey" stroke-width="2" d="M1529.44,-509.49C1506.59,-499.44 1473.25,-484 1445.5,-468 1410.37,-447.75 1372.33,-421.11 1346.54,-402.27"/>
<polygon fill="grey" stroke="grey" stroke-width="2" points="1348.41,-399.3 1338.28,-396.2 1344.26,-404.94 1348.41,-399.3"/>
</g>
<!-- 39 -->
<g id="node40" class="node">
<title>39</title>
<path fill="none" stroke="#56d892" stroke-width="2" d="M1246.5,-396C1246.5,-396 1216.5,-396 1216.5,-396 1210.5,-396 1204.5,-390 1204.5,-384 1204.5,-384 1204.5,-372 1204.5,-372 1204.5,-366 1210.5,-360 1216.5,-360 1216.5,-360 1246.5,-360 1246.5,-360 1252.5,-360 1258.5,-366 1258.5,-372 1258.5,-372 1258.5,-384 1258.5,-384 1258.5,-390 1252.5,-396 1246.5,-396"/>
<text text-anchor="middle" x="1231.5" y="-381" font-family="sans" font-size="10.00">resolve</text>
<text text-anchor="middle" x="1231.5" y="-370" font-family="sans" font-size="10.00">i: 6</text>
</g>
<!-- 6&#45;&gt;39 -->
<g id="edge94" class="edge">
<title>6&#45;&gt;39</title>
<path fill="none" stroke="grey" stroke-width="2" d="M1529.22,-514.38C1495.26,-505.7 1435.84,-489.08 1387.5,-468 1343.93,-449 1296.93,-421.07 1266.03,-401.58"/>
<polygon fill="grey" stroke="grey" stroke-width="2" points="1267.69,-398.48 1257.38,-396.07 1263.94,-404.39 1267.69,-398.48"/>
</g>
<!-- 44 -->
<g id="node45" class="node">
<title>44</title>
<path fill="none" stroke="#56d892" stroke-width="2" d="M1408.5,-396C1408.5,-396 1378.5,-396 1378.5,-396 1372.5,-396 1366.5,-390 1366.5,-384 1366.5,-384 1366.5,-372 1366.5,-372 1366.5,-366 1372.5,-360 1378.5,-360 1378.5,-360 1408.5,-360 1408.5,-360 1414.5,-360 1420.5,-366 1420.5,-372 1420.5,-372 1420.5,-384 1420.5,-384 1420.5,-390 1414.5,-396 1408.5,-396"/>
<text text-anchor="middle" x="1393.5" y="-381" font-family="sans" font-size="10.00">resolve</text>
<text text-anchor="middle" x="1393.5" y="-370" font-family="sans" font-size="10.00">i: 7</text>
</g>
<!-- 6&#45;&gt;44 -->
<g id="edge103" class="edge">
<title>6&#45;&gt;44</title>
<path fill="none" stroke="grey" stroke-width="2" d="M1533.42,-503.84C1520.06,-493.7 1503.06,-480.45 1488.5,-468 1464,-447.05 1437.31,-421.82 1418.48,-403.58"/>
<polygon fill="grey" stroke="grey" stroke-width="2" points="1420.53,-400.69 1410.92,-396.22 1415.65,-405.71 1420.53,-400.69"/>
</g>
<!-- 49 -->
<g id="node50" class="node">
<title>49</title>
<path fill="none" stroke="#56d892" stroke-width="2" d="M1721.5,-396C1721.5,-396 1691.5,-396 1691.5,-396 1685.5,-396 1679.5,-390 1679.5,-384 1679.5,-384 1679.5,-372 1679.5,-372 1679.5,-366 1685.5,-360 1691.5,-360 1691.5,-360 1721.5,-360 1721.5,-360 1727.5,-360 1733.5,-366 1733.5,-372 1733.5,-372 1733.5,-384 1733.5,-384 1733.5,-390 1727.5,-396 1721.5,-396"/>
<text text-anchor="middle" x="1706.5" y="-381" font-family="sans" font-size="10.00">resolve</text>
<text text-anchor="middle" x="1706.5" y="-370" font-family="sans" font-size="10.00">i: 8</text>
</g>
<!-- 6&#45;&gt;49 -->
<g id="edge112" class="edge">
<title>6&#45;&gt;49</title>
<path fill="none" stroke="grey" stroke-width="2" d="M1583.54,-517.8C1632.73,-511.36 1733.7,-495.1 1754.5,-468 1770.07,-447.71 1752.38,-421.7 1734.24,-403.04"/>
<polygon fill="grey" stroke="grey" stroke-width="2" points="1736.67,-400.52 1727.07,-396.03 1731.77,-405.53 1736.67,-400.52"/>
</g>
<!-- 54 -->
<g id="node55" class="node">
<title>54</title>
<path fill="none" stroke="#56d892" stroke-width="2" d="M1497.5,-396C1497.5,-396 1467.5,-396 1467.5,-396 1461.5,-396 1455.5,-390 1455.5,-384 1455.5,-384 1455.5,-372 1455.5,-372 1455.5,-366 1461.5,-360 1467.5,-360 1467.5,-360 1497.5,-360 1497.5,-360 1503.5,-360 1509.5,-366 1509.5,-372 1509.5,-372 1509.5,-384 1509.5,-384 1509.5,-390 1503.5,-396 1497.5,-396"/>
<text text-anchor="middle" x="1482.5" y="-381" font-family="sans" font-size="10.00">resolve</text>
<text text-anchor="middle" x="1482.5" y="-370" font-family="sans" font-size="10.00">i: 9</text>
</g>
<!-- 6&#45;&gt;54 -->
<g id="edge121" class="edge">
<title>6&#45;&gt;54</title>
<path fill="none" stroke="grey" stroke-width="2" d="M1535.45,-503.82C1525.04,-494.27 1513.1,-481.6 1505.5,-468 1494.76,-448.78 1488.92,-424.44 1485.81,-406.07"/>
<polygon fill="grey" stroke="grey" stroke-width="2" points="1489.25,-405.39 1484.28,-396.03 1482.33,-406.44 1489.25,-405.39"/>
</g>
<!-- 7&#45;&gt;5 -->
<g id="edge38" class="edge">
<title>7&#45;&gt;5</title>
<path fill="none" stroke="grey" stroke-width="2" d="M1514.23,-444.54C1446.5,-437.01 1309.68,-420.19 1195.5,-396 1187.64,-394.33 1179.29,-392.23 1171.37,-390.08"/>
<polygon fill="grey" stroke="grey" stroke-width="2" points="1172.22,-386.68 1161.65,-387.36 1170.33,-393.42 1172.22,-386.68"/>
</g>
<!-- 7&#45;&gt;14 -->
<g id="edge50" class="edge">
<title>7&#45;&gt;14</title>
<path fill="none" stroke="grey" stroke-width="2" d="M1556.75,-431.7C1556.86,-423.98 1556.99,-414.71 1557.11,-406.11"/>
<polygon fill="grey" stroke="grey" stroke-width="2" points="1560.61,-406.15 1557.26,-396.1 1553.61,-406.05 1560.61,-406.15"/>
</g>
<!-- 7&#45;&gt;19 -->
<g id="edge59" class="edge">
<title>7&#45;&gt;19</title>
<path fill="none" stroke="grey" stroke-width="2" d="M1575.04,-431.7C1584.3,-423.05 1595.66,-412.45 1605.76,-403.03"/>
<polygon fill="grey" stroke="grey" stroke-width="2" points="1608.25,-405.49 1613.17,-396.1 1603.48,-400.37 1608.25,-405.49"/>
</g>
<!-- 7&#45;&gt;24 -->
<g id="edge68" class="edge">
<title>7&#45;&gt;24</title>
<path fill="none" stroke="grey" stroke-width="2" d="M1598.5,-439.12C1634.53,-430.19 1687.87,-415.86 1741.82,-395.97"/>
<polygon fill="grey" stroke="grey" stroke-width="2" points="1743.04,-399.25 1751.18,-392.47 1740.59,-392.69 1743.04,-399.25"/>
</g>
<!-- 7&#45;&gt;29 -->
<g id="edge77" class="edge">
<title>7&#45;&gt;29</title>
<path fill="none" stroke="grey" stroke-width="2" d="M1598.61,-440.9C1670.35,-427.11 1815.09,-399.27 1883.32,-386.15"/>
<polygon fill="grey" stroke="grey" stroke-width="2" points="1884.04,-389.58 1893.2,-384.25 1882.72,-382.7 1884.04,-389.58"/>
</g>
<!-- 7&#45;&gt;34 -->
<g id="edge86" class="edge">
<title>7&#45;&gt;34</title>
<path fill="none" stroke="grey" stroke-width="2" d="M1514.12,-439.33C1473.52,-429.69 1410.74,-413.79 1357.5,-396 1355.86,-395.45 1354.19,-394.87 1352.51,-394.27"/>
<polygon fill="grey" stroke="grey" stroke-width="2" points="1353.47,-390.89 1342.88,-390.65 1351.01,-397.45 1353.47,-390.89"/>
</g>
<!-- 7&#45;&gt;39 -->
<g id="edge95" class="edge">
<title>7&#45;&gt;39</title>
<path fill="none" stroke="grey" stroke-width="2" d="M1514.28,-442.96C1459.58,-434.67 1361.49,-418.23 1279.5,-396 1275.87,-395.02 1272.13,-393.89 1268.4,-392.7"/>
<polygon fill="grey" stroke="grey" stroke-width="2" points="1269.28,-389.3 1258.69,-389.43 1267.05,-395.94 1269.28,-389.3"/>
</g>
<!-- 7&#45;&gt;44 -->
<g id="edge104" class="edge">
<title>7&#45;&gt;44</title>
<path fill="none" stroke="grey" stroke-width="2" d="M1516.63,-431.88C1490.22,-420.53 1455.84,-405.77 1430.12,-394.73"/>
<polygon fill="grey" stroke="grey" stroke-width="2" points="1431.29,-391.42 1420.72,-390.69 1428.53,-397.85 1431.29,-391.42"/>
</g>
<!-- 7&#45;&gt;49 -->
<g id="edge113" class="edge">
<title>7&#45;&gt;49</title>
<path fill="none" stroke="grey" stroke-width="2" d="M1593.19,-431.88C1616.52,-420.99 1646.6,-406.95 1669.91,-396.07"/>
<polygon fill="grey" stroke="grey" stroke-width="2" points="1671.54,-399.18 1679.12,-391.78 1668.58,-392.83 1671.54,-399.18"/>
</g>
<!-- 7&#45;&gt;54 -->
<g id="edge122" class="edge">
<title>7&#45;&gt;54</title>
<path fill="none" stroke="grey" stroke-width="2" d="M1538.21,-431.7C1529.07,-423.05 1517.86,-412.45 1507.9,-403.03"/>
<polygon fill="grey" stroke="grey" stroke-width="2" points="1510.25,-400.43 1500.58,-396.1 1505.44,-405.52 1510.25,-400.43"/>
</g>
<!-- 8 -->
<g id="node9" class="node">
<title>8</title>
<path fill="none" stroke="#d87d56" stroke-width="2" stroke-dasharray="5,2" d="M1204.5,-540C1204.5,-540 1160.5,-540 1160.5,-540 1154.5,-540 1148.5,-534 1148.5,-528 1148.5,-528 1148.5,-516 1148.5,-516 1148.5,-510 1154.5,-504 1160.5,-504 1160.5,-504 1204.5,-504 1204.5,-504 1210.5,-504 1216.5,-510 1216.5,-516 1216.5,-516 1216.5,-528 1216.5,-528 1216.5,-534 1210.5,-540 1204.5,-540"/>
<text text-anchor="middle" x="1182.5" y="-525" font-family="sans" font-size="10.00">aln_length</text>
<text text-anchor="middle" x="1182.5" y="-514" font-family="sans" font-size="10.00">aln: aln</text>
</g>
<!-- 8&#45;&gt;4 -->
<g id="edge35" class="edge">
<title>8&#45;&gt;4</title>
<path fill="none" stroke="grey" stroke-width="2" d="M1148.45,-518.81C1070.47,-513.34 881.38,-497.38 825.5,-468 764.71,-436.04 715.33,-369.58 691.31,-332.83"/>
<polygon fill="grey" stroke="grey" stroke-width="2" points="694.1,-330.69 685.76,-324.16 688.21,-334.47 694.1,-330.69"/>
</g>
<!-- 8&#45;&gt;5 -->
<g id="edge39" class="edge">
<title>8&#45;&gt;5</title>
<path fill="none" stroke="grey" stroke-width="2" d="M1158.75,-503.91C1147.95,-494.65 1136.3,-482.2 1130.5,-468 1122.48,-448.37 1124.2,-424.24 1127.52,-406.06"/>
<polygon fill="grey" stroke="grey" stroke-width="2" points="1130.98,-406.63 1129.6,-396.12 1124.13,-405.19 1130.98,-406.63"/>
</g>
<!-- 8&#45;&gt;7 -->
<g id="edge41" class="edge">
<title>8&#45;&gt;7</title>
<path fill="none" stroke="grey" stroke-width="2" d="M1216.68,-514.6C1282.35,-502.31 1426.5,-475.33 1504.28,-460.77"/>
<polygon fill="grey" stroke="grey" stroke-width="2" points="1505.16,-464.17 1514.34,-458.89 1503.87,-457.29 1505.16,-464.17"/>
</g>
<!-- 13 -->
<g id="node14" class="node">
<title>13</title>
<path fill="none" stroke="#b6d856" stroke-width="2" d="M1659,-324C1659,-324 1572,-324 1572,-324 1566,-324 1560,-318 1560,-312 1560,-312 1560,-300 1560,-300 1560,-294 1566,-288 1572,-288 1572,-288 1659,-288 1659,-288 1665,-288 1671,-294 1671,-300 1671,-300 1671,-312 1671,-312 1671,-318 1665,-324 1659,-324"/>
<text text-anchor="middle" x="1615.5" y="-309" font-family="sans" font-size="10.00">date_lsd2_resolved</text>
<text text-anchor="middle" x="1615.5" y="-298" font-family="sans" font-size="10.00">tree: tree.1</text>
</g>
<!-- 8&#45;&gt;13 -->
<g id="edge47" class="edge">
<title>8&#45;&gt;13</title>
<path fill="none" stroke="grey" stroke-width="2" d="M1148.48,-517.16C1096,-510.44 999.15,-494.7 978.5,-468 949.13,-430.03 945.66,-395.01 978.5,-360 1021.46,-314.21 1480.38,-333.15 1542.5,-324 1544.98,-323.63 1547.5,-323.23 1550.03,-322.79"/>
<polygon fill="grey" stroke="grey" stroke-width="2" points="1550.7,-326.23 1559.88,-320.95 1549.41,-319.35 1550.7,-326.23"/>
</g>
<!-- 8&#45;&gt;14 -->
<g id="edge51" class="edge">
<title>8&#45;&gt;14</title>
<path fill="none" stroke="grey" stroke-width="2" d="M1216.6,-509.01C1277.57,-487.43 1409.13,-440.14 1518.5,-396 1519.34,-395.66 1520.19,-395.32 1521.04,-394.97"/>
<polygon fill="grey" stroke="grey" stroke-width="2" points="1522.44,-398.18 1530.31,-391.08 1519.73,-391.72 1522.44,-398.18"/>
</g>
<!-- 18 -->
<g id="node19" class="node">
<title>18</title>
<path fill="none" stroke="#b6d856" stroke-width="2" d="M1984,-324C1984,-324 1897,-324 1897,-324 1891,-324 1885,-318 1885,-312 1885,-312 1885,-300 1885,-300 1885,-294 1891,-288 1897,-288 1897,-288 1984,-288 1984,-288 1990,-288 1996,-294 1996,-300 1996,-300 1996,-312 1996,-312 1996,-318 1990,-324 1984,-324"/>
<text text-anchor="middle" x="1940.5" y="-309" font-family="sans" font-size="10.00">date_lsd2_resolved</text>
<text text-anchor="middle" x="1940.5" y="-298" font-family="sans" font-size="10.00">tree: tree.2</text>
</g>
<!-- 8&#45;&gt;18 -->
<g id="edge56" class="edge">
<title>8&#45;&gt;18</title>
<path fill="none" stroke="grey" stroke-width="2" d="M1148.46,-521.1C1109.34,-519.16 1046.66,-509.29 1016.5,-468 988.19,-429.24 983.49,-394.85 1016.5,-360 1041.87,-333.22 1642.68,-326.2 1679.5,-324 1745.9,-320.04 1821.77,-315.04 1874.53,-311.49"/>
<polygon fill="grey" stroke="grey" stroke-width="2" points="1875.02,-314.97 1884.76,-310.81 1874.55,-307.99 1875.02,-314.97"/>
</g>
<!-- 8&#45;&gt;19 -->
<g id="edge60" class="edge">
<title>8&#45;&gt;19</title>
<path fill="none" stroke="grey" stroke-width="2" d="M1216.54,-521.47C1306.81,-521.99 1549.36,-518.56 1607.5,-468 1624.9,-452.87 1630.32,-426.57 1631.73,-406.47"/>
<polygon fill="grey" stroke="grey" stroke-width="2" points="1635.23,-406.48 1632.14,-396.34 1628.24,-406.19 1635.23,-406.48"/>
</g>
<!-- 23 -->
<g id="node24" class="node">
<title>23</title>
<path fill="none" stroke="#b6d856" stroke-width="2" d="M2352,-324C2352,-324 2265,-324 2265,-324 2259,-324 2253,-318 2253,-312 2253,-312 2253,-300 2253,-300 2253,-294 2259,-288 2265,-288 2265,-288 2352,-288 2352,-288 2358,-288 2364,-294 2364,-300 2364,-300 2364,-312 2364,-312 2364,-318 2358,-324 2352,-324"/>
<text text-anchor="middle" x="2308.5" y="-309" font-family="sans" font-size="10.00">date_lsd2_resolved</text>
<text text-anchor="middle" x="2308.5" y="-298" font-family="sans" font-size="10.00">tree: tree.3</text>
</g>
<!-- 8&#45;&gt;23 -->
<g id="edge65" class="edge">
<title>8&#45;&gt;23</title>
<path fill="none" stroke="grey" stroke-width="2" d="M1156.98,-503.92C1144.74,-494.58 1130.76,-482.06 1121.5,-468 1094.51,-427.01 1064.35,-395.24 1098.5,-360 1142.71,-314.37 2178.59,-332.86 2241.5,-324 2241.96,-323.94 2242.42,-323.87 2242.89,-323.8"/>
<polygon fill="grey" stroke="grey" stroke-width="2" points="2243.48,-327.25 2252.75,-322.11 2242.3,-320.35 2243.48,-327.25"/>
</g>
<!-- 8&#45;&gt;24 -->
<g id="edge69" class="edge">
<title>8&#45;&gt;24</title>
<path fill="none" stroke="grey" stroke-width="2" d="M1216.77,-519.69C1312.96,-515.61 1583.81,-501.41 1665.5,-468 1700.91,-453.52 1734.4,-424.5 1755.59,-403.53"/>
<polygon fill="grey" stroke="grey" stroke-width="2" points="1758.29,-405.78 1762.83,-396.21 1753.31,-400.86 1758.29,-405.78"/>
</g>
<!-- 28 -->
<g id="node29" class="node">
<title>28</title>
<path fill="none" stroke="#b6d856" stroke-width="2" d="M2481,-324C2481,-324 2394,-324 2394,-324 2388,-324 2382,-318 2382,-312 2382,-312 2382,-300 2382,-300 2382,-294 2388,-288 2394,-288 2394,-288 2481,-288 2481,-288 2487,-288 2493,-294 2493,-300 2493,-300 2493,-312 2493,-312 2493,-318 2487,-324 2481,-324"/>
<text text-anchor="middle" x="2437.5" y="-309" font-family="sans" font-size="10.00">date_lsd2_resolved</text>
<text text-anchor="middle" x="2437.5" y="-298" font-family="sans" font-size="10.00">tree: tree.4</text>
</g>
<!-- 8&#45;&gt;28 -->
<g id="edge74" class="edge">
<title>8&#45;&gt;28</title>
<path fill="none" stroke="grey" stroke-width="2" d="M1216.61,-519.53C1317.94,-514.87 1615.78,-498.83 1707.5,-468 1794.85,-438.64 1796.76,-388.17 1884.5,-360 2088.85,-294.39 2156.55,-358.14 2371.76,-324.09"/>
<polygon fill="grey" stroke="grey" stroke-width="2" points="2372.48,-327.52 2381.79,-322.45 2371.35,-320.61 2372.48,-327.52"/>
</g>
<!-- 8&#45;&gt;29 -->
<g id="edge78" class="edge">
<title>8&#45;&gt;29</title>
<path fill="none" stroke="grey" stroke-width="2" d="M1216.53,-519.58C1342.03,-514.15 1774.47,-493.74 1830.5,-468 1834.66,-466.09 1871.5,-428.99 1896.74,-403.3"/>
<polygon fill="grey" stroke="grey" stroke-width="2" points="1899.33,-405.66 1903.83,-396.07 1894.33,-400.76 1899.33,-405.66"/>
</g>
<!-- 33 -->
<g id="node34" class="node">
<title>33</title>
<path fill="none" stroke="#b6d856" stroke-width="2" d="M978,-324C978,-324 891,-324 891,-324 885,-324 879,-318 879,-312 879,-312 879,-300 879,-300 879,-294 885,-288 891,-288 891,-288 978,-288 978,-288 984,-288 990,-294 990,-300 990,-300 990,-312 990,-312 990,-318 984,-324 978,-324"/>
<text text-anchor="middle" x="934.5" y="-309" font-family="sans" font-size="10.00">date_lsd2_resolved</text>
<text text-anchor="middle" x="934.5" y="-298" font-family="sans" font-size="10.00">tree: tree.5</text>
</g>
<!-- 8&#45;&gt;33 -->
<g id="edge83" class="edge">
<title>8&#45;&gt;33</title>
<path fill="none" stroke="grey" stroke-width="2" d="M1148.29,-520.33C1076.23,-518.12 912.67,-508.65 878.5,-468 847.61,-431.26 859.52,-404.09 878.5,-360 883.29,-348.87 891.69,-338.99 900.55,-330.86"/>
<polygon fill="grey" stroke="grey" stroke-width="2" points="903.04,-333.34 908.38,-324.18 898.5,-328.01 903.04,-333.34"/>
</g>
<!-- 8&#45;&gt;34 -->
<g id="edge87" class="edge">
<title>8&#45;&gt;34</title>
<path fill="none" stroke="grey" stroke-width="2" d="M1192.24,-503.72C1203.38,-484.85 1222.89,-454.33 1244.5,-432 1255.09,-421.06 1268.1,-410.66 1280.08,-402.01"/>
<polygon fill="grey" stroke="grey" stroke-width="2" points="1282.41,-404.66 1288.57,-396.04 1278.38,-398.93 1282.41,-404.66"/>
</g>
<!-- 38 -->
<g id="node39" class="node">
<title>38</title>
<path fill="none" stroke="#b6d856" stroke-width="2" d="M848,-324C848,-324 761,-324 761,-324 755,-324 749,-318 749,-312 749,-312 749,-300 749,-300 749,-294 755,-288 761,-288 761,-288 848,-288 848,-288 854,-288 860,-294 860,-300 860,-300 860,-312 860,-312 860,-318 854,-324 848,-324"/>
<text text-anchor="middle" x="804.5" y="-309" font-family="sans" font-size="10.00">date_lsd2_resolved</text>
<text text-anchor="middle" x="804.5" y="-298" font-family="sans" font-size="10.00">tree: tree.6</text>
</g>
<!-- 8&#45;&gt;38 -->
<g id="edge92" class="edge">
<title>8&#45;&gt;38</title>
<path fill="none" stroke="grey" stroke-width="2" d="M1148.49,-519.85C1074.07,-516.67 899.94,-505.32 856.5,-468 817.33,-434.35 807.44,-370.98 805.08,-334.59"/>
<polygon fill="grey" stroke="grey" stroke-width="2" points="808.56,-334.04 804.57,-324.22 801.57,-334.38 808.56,-334.04"/>
</g>
<!-- 8&#45;&gt;39 -->
<g id="edge96" class="edge">
<title>8&#45;&gt;39</title>
<path fill="none" stroke="grey" stroke-width="2" d="M1186.14,-503.99C1190.23,-485.87 1197.5,-456.49 1206.5,-432 1209.73,-423.21 1213.86,-413.9 1217.84,-405.57"/>
<polygon fill="grey" stroke="grey" stroke-width="2" points="1221.11,-406.85 1222.37,-396.33 1214.82,-403.77 1221.11,-406.85"/>
</g>
<!-- 43 -->
<g id="node44" class="node">
<title>43</title>
<path fill="none" stroke="#b6d856" stroke-width="2" d="M1253,-324C1253,-324 1166,-324 1166,-324 1160,-324 1154,-318 1154,-312 1154,-312 1154,-300 1154,-300 1154,-294 1160,-288 1166,-288 1166,-288 1253,-288 1253,-288 1259,-288 1265,-294 1265,-300 1265,-300 1265,-312 1265,-312 1265,-318 1259,-324 1253,-324"/>
<text text-anchor="middle" x="1209.5" y="-309" font-family="sans" font-size="10.00">date_lsd2_resolved</text>
<text text-anchor="middle" x="1209.5" y="-298" font-family="sans" font-size="10.00">tree: tree.7</text>
</g>
<!-- 8&#45;&gt;43 -->
<g id="edge101" class="edge">
<title>8&#45;&gt;43</title>
<path fill="none" stroke="grey" stroke-width="2" d="M1148.41,-519.77C1080.75,-516.54 933.39,-505.29 902.5,-468 871.88,-431.04 871.58,-396.71 902.5,-360 917.88,-341.74 1058.09,-323.45 1143.62,-313.87"/>
<polygon fill="grey" stroke="grey" stroke-width="2" points="1144.21,-317.32 1153.77,-312.74 1143.44,-310.36 1144.21,-317.32"/>
</g>
<!-- 8&#45;&gt;44 -->
<g id="edge105" class="edge">
<title>8&#45;&gt;44</title>
<path fill="none" stroke="grey" stroke-width="2" d="M1203.11,-503.83C1215.29,-493.58 1230.92,-480.22 1244.5,-468 1261.79,-452.44 1263.32,-445.17 1282.5,-432 1295.41,-423.13 1329.98,-407.02 1357.14,-394.88"/>
<polygon fill="grey" stroke="grey" stroke-width="2" points="1358.67,-398.03 1366.39,-390.77 1355.83,-391.63 1358.67,-398.03"/>
</g>
<!-- 48 -->
<g id="node49" class="node">
<title>48</title>
<path fill="none" stroke="#b6d856" stroke-width="2" d="M2220,-324C2220,-324 2133,-324 2133,-324 2127,-324 2121,-318 2121,-312 2121,-312 2121,-300 2121,-300 2121,-294 2127,-288 2133,-288 2133,-288 2220,-288 2220,-288 2226,-288 2232,-294 2232,-300 2232,-300 2232,-312 2232,-312 2232,-318 2226,-324 2220,-324"/>
<text text-anchor="middle" x="2176.5" y="-309" font-family="sans" font-size="10.00">date_lsd2_resolved</text>
<text text-anchor="middle" x="2176.5" y="-298" font-family="sans" font-size="10.00">tree: tree.8</text>
</g>
<!-- 8&#45;&gt;48 -->
<g id="edge110" class="edge">
<title>8&#45;&gt;48</title>
<path fill="none" stroke="grey" stroke-width="2" d="M1148.42,-517.29C1118.04,-511.97 1075.28,-499.1 1054.5,-468 1027.83,-428.09 1021.21,-394.58 1054.5,-360 1091.17,-321.91 1952.75,-327.62 2005.5,-324 2040.28,-321.62 2078.94,-317.87 2110.69,-314.49"/>
<polygon fill="grey" stroke="grey" stroke-width="2" points="2111.17,-317.96 2120.74,-313.41 2110.42,-311 2111.17,-317.96"/>
</g>
<!-- 8&#45;&gt;49 -->
<g id="edge114" class="edge">
<title>8&#45;&gt;49</title>
<path fill="none" stroke="grey" stroke-width="2" d="M1216.78,-520.22C1309.07,-517.6 1560.68,-506.97 1632.5,-468 1658.96,-453.64 1679.8,-425.6 1692.53,-404.82"/>
<polygon fill="grey" stroke="grey" stroke-width="2" points="1695.58,-406.53 1697.64,-396.13 1689.55,-402.98 1695.58,-406.53"/>
</g>
<!-- 53 -->
<g id="node54" class="node">
<title>53</title>
<path fill="none" stroke="#b6d856" stroke-width="2" d="M1522,-324C1522,-324 1435,-324 1435,-324 1429,-324 1423,-318 1423,-312 1423,-312 1423,-300 1423,-300 1423,-294 1429,-288 1435,-288 1435,-288 1522,-288 1522,-288 1528,-288 1534,-294 1534,-300 1534,-300 1534,-312 1534,-312 1534,-318 1528,-324 1522,-324"/>
<text text-anchor="middle" x="1478.5" y="-309" font-family="sans" font-size="10.00">date_lsd2_resolved</text>
<text text-anchor="middle" x="1478.5" y="-298" font-family="sans" font-size="10.00">tree: tree.9</text>
</g>
<!-- 8&#45;&gt;53 -->
<g id="edge119" class="edge">
<title>8&#45;&gt;53</title>
<path fill="none" stroke="grey" stroke-width="2" d="M1148.12,-518.63C1087.65,-513.68 966.18,-499.92 940.5,-468 910.41,-430.6 908.27,-395.57 940.5,-360 948.36,-351.33 1270.72,-323.98 1412.61,-312.34"/>
<polygon fill="grey" stroke="grey" stroke-width="2" points="1413.24,-315.8 1422.92,-311.49 1412.67,-308.82 1413.24,-315.8"/>
</g>
<!-- 8&#45;&gt;54 -->
<g id="edge123" class="edge">
<title>8&#45;&gt;54</title>
<path fill="none" stroke="grey" stroke-width="2" d="M1216.84,-503.85C1235.32,-494.13 1258.21,-481.28 1277.5,-468 1298.03,-453.87 1298.71,-444.09 1320.5,-432 1323.35,-430.42 1398.83,-405.97 1445.75,-390.83"/>
<polygon fill="grey" stroke="grey" stroke-width="2" points="1446.84,-394.16 1455.29,-387.76 1444.7,-387.5 1446.84,-394.16"/>
</g>
<!-- 9 -->
<g id="node10" class="node">
<title>9</title>
<path fill="none" stroke="#56a9d8" stroke-width="2" d="M2201,-540C2201,-540 2116,-540 2116,-540 2110,-540 2104,-534 2104,-528 2104,-528 2104,-516 2104,-516 2104,-510 2110,-504 2116,-504 2116,-504 2201,-504 2201,-504 2207,-504 2213,-510 2213,-516 2213,-516 2213,-528 2213,-528 2213,-534 2207,-540 2201,-540"/>
<text text-anchor="middle" x="2158.5" y="-519.5" font-family="sans" font-size="10.00">extract_dates_lsd2</text>
</g>
<!-- 9&#45;&gt;4 -->
<g id="edge36" class="edge">
<title>9&#45;&gt;4</title>
<path fill="none" stroke="grey" stroke-width="2" d="M2130.44,-503.77C2114.79,-493.82 2095.15,-480.79 2078.5,-468 2021.06,-423.9 2023.83,-386.66 1956.5,-360 1833.36,-311.23 913.2,-342.13 741.21,-323.85"/>
<polygon fill="grey" stroke="grey" stroke-width="2" points="741.55,-320.36 731.19,-322.6 740.68,-327.31 741.55,-320.36"/>
</g>
<!-- 9&#45;&gt;7 -->
<g id="edge42" class="edge">
<title>9&#45;&gt;7</title>
<path fill="none" stroke="grey" stroke-width="2" d="M2103.75,-514.63C1988.51,-501.23 1722.25,-470.27 1609,-457.11"/>
<polygon fill="grey" stroke="grey" stroke-width="2" points="1609.19,-453.6 1598.85,-455.92 1608.38,-460.56 1609.19,-453.6"/>
</g>
<!-- 9&#45;&gt;13 -->
<g id="edge48" class="edge">
<title>9&#45;&gt;13</title>
<path fill="none" stroke="grey" stroke-width="2" d="M2167.25,-503.83C2182.47,-471.23 2208.93,-400.06 2172.5,-360 2156.15,-342.02 1824.74,-319.75 1681.03,-310.89"/>
<polygon fill="grey" stroke="grey" stroke-width="2" points="1681.21,-307.4 1671.02,-310.28 1680.78,-314.39 1681.21,-307.4"/>
</g>
<!-- 9&#45;&gt;18 -->
<g id="edge57" class="edge">
<title>9&#45;&gt;18</title>
<path fill="none" stroke="grey" stroke-width="2" d="M2182.25,-503.91C2193.05,-494.65 2204.7,-482.2 2210.5,-468 2228.66,-423.57 2241,-397.07 2210.5,-360 2197.54,-344.25 2081.65,-325.92 2005.97,-315.46"/>
<polygon fill="grey" stroke="grey" stroke-width="2" points="2006.41,-311.99 1996.03,-314.11 2005.46,-318.93 2006.41,-311.99"/>
</g>
<!-- 9&#45;&gt;23 -->
<g id="edge66" class="edge">
<title>9&#45;&gt;23</title>
<path fill="none" stroke="grey" stroke-width="2" d="M2213.19,-505.96C2233.56,-497.8 2255.17,-485.66 2269.5,-468 2300.89,-429.3 2307.65,-369.24 2308.75,-334.46"/>
<polygon fill="grey" stroke="grey" stroke-width="2" points="2312.25,-334.17 2308.93,-324.12 2305.25,-334.05 2312.25,-334.17"/>
</g>
<!-- 9&#45;&gt;28 -->
<g id="edge75" class="edge">
<title>9&#45;&gt;28</title>
<path fill="none" stroke="grey" stroke-width="2" d="M2213.29,-505.97C2239.04,-497.33 2269.31,-484.82 2293.5,-468 2348,-430.11 2395.97,-367.65 2420.39,-332.71"/>
<polygon fill="grey" stroke="grey" stroke-width="2" points="2423.29,-334.67 2426.08,-324.45 2417.53,-330.7 2423.29,-334.67"/>
</g>
<!-- 9&#45;&gt;33 -->
<g id="edge84" class="edge">
<title>9&#45;&gt;33</title>
<path fill="none" stroke="grey" stroke-width="2" d="M2150.46,-503.92C2132.2,-465.95 2087.01,-376.6 2058.5,-360 1970.66,-308.87 1245.95,-330.1 1144.5,-324 1096.2,-321.09 1041.74,-316.65 1000.39,-313.04"/>
<polygon fill="grey" stroke="grey" stroke-width="2" points="1000.43,-309.53 990.17,-312.14 999.82,-316.5 1000.43,-309.53"/>
</g>
<!-- 9&#45;&gt;38 -->
<g id="edge93" class="edge">
<title>9&#45;&gt;38</title>
<path fill="none" stroke="grey" stroke-width="2" d="M2141.51,-503.63C2131.68,-493.42 2119.18,-480.17 2108.5,-468 2088.09,-444.73 2048.25,-373.72 2020.5,-360 1908.38,-304.56 1036.6,-340.6 870.33,-323.65"/>
<polygon fill="grey" stroke="grey" stroke-width="2" points="870.35,-320.12 860,-322.39 869.51,-327.07 870.35,-320.12"/>
</g>
<!-- 9&#45;&gt;43 -->
<g id="edge102" class="edge">
<title>9&#45;&gt;43</title>
<path fill="none" stroke="grey" stroke-width="2" d="M2157.67,-503.78C2155,-469.77 2143.77,-394.31 2096.5,-360 2035,-315.36 1489.32,-329.16 1413.5,-324 1367.35,-320.86 1315.38,-316.52 1275.45,-313.01"/>
<polygon fill="grey" stroke="grey" stroke-width="2" points="1275.58,-309.51 1265.31,-312.11 1274.97,-316.48 1275.58,-309.51"/>
</g>
<!-- 9&#45;&gt;48 -->
<g id="edge111" class="edge">
<title>9&#45;&gt;48</title>
<path fill="none" stroke="grey" stroke-width="2" d="M2207.06,-503.97C2223.17,-495.73 2239.32,-484.06 2248.5,-468 2272.32,-426.33 2270.16,-402.84 2248.5,-360 2242.36,-347.86 2231.98,-337.82 2220.99,-329.86"/>
<polygon fill="grey" stroke="grey" stroke-width="2" points="2222.78,-326.85 2212.53,-324.19 2218.88,-332.66 2222.78,-326.85"/>
</g>
<!-- 9&#45;&gt;53 -->
<g id="edge120" class="edge">
<title>9&#45;&gt;53</title>
<path fill="none" stroke="grey" stroke-width="2" d="M2162.07,-503.76C2167.85,-470.41 2174.91,-397.06 2134.5,-360 2086.59,-316.06 1614.81,-333.5 1550.5,-324 1548.42,-323.69 1546.3,-323.35 1544.17,-322.99"/>
<polygon fill="grey" stroke="grey" stroke-width="2" points="1544.61,-319.51 1534.13,-321.12 1543.33,-326.39 1544.61,-319.51"/>
</g>
<!-- 10 -->
<g id="node11" class="node">
<title>10</title>
<path fill="none" stroke="#567bd8" stroke-width="2" d="M1737,-108C1737,-108 1672,-108 1672,-108 1666,-108 1660,-102 1660,-96 1660,-96 1660,-84 1660,-84 1660,-78 1666,-72 1672,-72 1672,-72 1737,-72 1737,-72 1743,-72 1749,-78 1749,-84 1749,-84 1749,-96 1749,-96 1749,-102 1743,-108 1737,-108"/>
<text text-anchor="middle" x="1704.5" y="-93" font-family="sans" font-size="10.00">years2days</text>
<text text-anchor="middle" x="1704.5" y="-82" font-family="sans" font-size="10.00">tree: SLE/SLE.1</text>
</g>
<!-- 10&#45;&gt;0 -->
<g id="edge2" class="edge">
<title>10&#45;&gt;0</title>
<path fill="none" stroke="grey" stroke-width="2" d="M1660.47,-71.88C1630.02,-60.04 1589.99,-44.47 1561.25,-33.29"/>
<polygon fill="grey" stroke="grey" stroke-width="2" points="1562.18,-29.9 1551.6,-29.54 1559.65,-36.42 1562.18,-29.9"/>
</g>
<!-- 11 -->
<g id="node12" class="node">
<title>11</title>
<path fill="none" stroke="#d85656" stroke-width="2" d="M1611.5,-180C1611.5,-180 1567.5,-180 1567.5,-180 1561.5,-180 1555.5,-174 1555.5,-168 1555.5,-168 1555.5,-156 1555.5,-156 1555.5,-150 1561.5,-144 1567.5,-144 1567.5,-144 1611.5,-144 1611.5,-144 1617.5,-144 1623.5,-150 1623.5,-156 1623.5,-156 1623.5,-168 1623.5,-168 1623.5,-174 1617.5,-180 1611.5,-180"/>
<text text-anchor="middle" x="1589.5" y="-159.5" font-family="sans" font-size="10.00">SLE_forest</text>
</g>
<!-- 11&#45;&gt;10 -->
<g id="edge43" class="edge">
<title>11&#45;&gt;10</title>
<path fill="none" stroke="grey" stroke-width="2" d="M1617.63,-143.88C1632.67,-134.72 1651.37,-123.34 1667.56,-113.48"/>
<polygon fill="grey" stroke="grey" stroke-width="2" points="1669.54,-116.38 1676.26,-108.19 1665.9,-110.4 1669.54,-116.38"/>
</g>
<!-- 56 -->
<g id="node57" class="node">
<title>56</title>
<path fill="none" stroke="#d8cb56" stroke-width="2" d="M1630,-108C1630,-108 1517,-108 1517,-108 1511,-108 1505,-102 1505,-96 1505,-96 1505,-84 1505,-84 1505,-78 1511,-72 1517,-72 1517,-72 1630,-72 1630,-72 1636,-72 1642,-78 1642,-84 1642,-84 1642,-96 1642,-96 1642,-102 1636,-108 1630,-108"/>
<text text-anchor="middle" x="1573.5" y="-87.5" font-family="sans" font-size="10.00">itol_selected_annotation</text>
</g>
<!-- 11&#45;&gt;56 -->
<g id="edge125" class="edge">
<title>11&#45;&gt;56</title>
<path fill="none" stroke="grey" stroke-width="2" d="M1585.54,-143.7C1583.78,-135.98 1581.66,-126.71 1579.7,-118.11"/>
<polygon fill="grey" stroke="grey" stroke-width="2" points="1583.05,-117.07 1577.41,-108.1 1576.23,-118.63 1583.05,-117.07"/>
</g>
<!-- 12 -->
<g id="node13" class="node">
<title>12</title>
<path fill="none" stroke="#8fd856" stroke-width="2" d="M1630.5,-252C1630.5,-252 1600.5,-252 1600.5,-252 1594.5,-252 1588.5,-246 1588.5,-240 1588.5,-240 1588.5,-228 1588.5,-228 1588.5,-222 1594.5,-216 1600.5,-216 1600.5,-216 1630.5,-216 1630.5,-216 1636.5,-216 1642.5,-222 1642.5,-228 1642.5,-228 1642.5,-240 1642.5,-240 1642.5,-246 1636.5,-252 1630.5,-252"/>
<text text-anchor="middle" x="1615.5" y="-237" font-family="sans" font-size="10.00">pastml</text>
<text text-anchor="middle" x="1615.5" y="-226" font-family="sans" font-size="10.00">i: 1</text>
</g>
<!-- 12&#45;&gt;11 -->
<g id="edge44" class="edge">
<title>12&#45;&gt;11</title>
<path fill="none" stroke="grey" stroke-width="2" d="M1609.07,-215.7C1606.14,-207.81 1602.61,-198.3 1599.36,-189.55"/>
<polygon fill="grey" stroke="grey" stroke-width="2" points="1602.62,-188.26 1595.85,-180.1 1596.05,-190.7 1602.62,-188.26"/>
</g>
<!-- 66 -->
<g id="node67" class="node">
<title>66</title>
<path fill="none" stroke="#68d856" stroke-width="2" d="M1701,-180C1701,-180 1654,-180 1654,-180 1648,-180 1642,-174 1642,-168 1642,-168 1642,-156 1642,-156 1642,-150 1648,-144 1654,-144 1654,-144 1701,-144 1701,-144 1707,-144 1713,-150 1713,-156 1713,-156 1713,-168 1713,-168 1713,-174 1707,-180 1701,-180"/>
<text text-anchor="middle" x="1677.5" y="-159.5" font-family="sans" font-size="10.00">pastml_itol</text>
</g>
<!-- 12&#45;&gt;66 -->
<g id="edge137" class="edge">
<title>12&#45;&gt;66</title>
<path fill="none" stroke="grey" stroke-width="2" d="M1630.83,-215.7C1638.26,-207.3 1647.32,-197.07 1655.48,-187.86"/>
<polygon fill="grey" stroke="grey" stroke-width="2" points="1658.34,-189.91 1662.35,-180.1 1653.1,-185.27 1658.34,-189.91"/>
</g>
<!-- 13&#45;&gt;12 -->
<g id="edge45" class="edge">
<title>13&#45;&gt;12</title>
<path fill="none" stroke="grey" stroke-width="2" d="M1615.5,-287.7C1615.5,-279.98 1615.5,-270.71 1615.5,-262.11"/>
<polygon fill="grey" stroke="grey" stroke-width="2" points="1619,-262.1 1615.5,-252.1 1612,-262.1 1619,-262.1"/>
</g>
<!-- 13&#45;&gt;66 -->
<g id="edge136" class="edge">
<title>13&#45;&gt;66</title>
<path fill="none" stroke="grey" stroke-width="2" d="M1629.3,-287.69C1636.71,-277.72 1645.52,-264.68 1651.5,-252 1660.85,-232.16 1667.61,-208.23 1671.89,-190.18"/>
<polygon fill="grey" stroke="grey" stroke-width="2" points="1675.33,-190.83 1674.13,-180.31 1668.51,-189.29 1675.33,-190.83"/>
</g>
<!-- 14&#45;&gt;13 -->
<g id="edge46" class="edge">
<title>14&#45;&gt;13</title>
<path fill="none" stroke="grey" stroke-width="2" d="M1571.84,-359.7C1578.79,-351.3 1587.27,-341.07 1594.9,-331.86"/>
<polygon fill="grey" stroke="grey" stroke-width="2" points="1597.64,-334.04 1601.33,-324.1 1592.25,-329.57 1597.64,-334.04"/>
</g>
<!-- 15 -->
<g id="node16" class="node">
<title>15</title>
<path fill="none" stroke="#567bd8" stroke-width="2" d="M2038,-108C2038,-108 1973,-108 1973,-108 1967,-108 1961,-102 1961,-96 1961,-96 1961,-84 1961,-84 1961,-78 1967,-72 1973,-72 1973,-72 2038,-72 2038,-72 2044,-72 2050,-78 2050,-84 2050,-84 2050,-96 2050,-96 2050,-102 2044,-108 2038,-108"/>
<text text-anchor="middle" x="2005.5" y="-93" font-family="sans" font-size="10.00">years2days</text>
<text text-anchor="middle" x="2005.5" y="-82" font-family="sans" font-size="10.00">tree: SLE/SLE.2</text>
</g>
<!-- 15&#45;&gt;0 -->
<g id="edge3" class="edge">
<title>15&#45;&gt;0</title>
<path fill="none" stroke="grey" stroke-width="2" d="M1960.84,-74.03C1958.03,-73.29 1955.24,-72.6 1952.5,-72 1810.33,-40.69 1637.22,-26.36 1562.18,-21.29"/>
<polygon fill="grey" stroke="grey" stroke-width="2" points="1562.05,-17.77 1551.84,-20.61 1561.59,-24.76 1562.05,-17.77"/>
</g>
<!-- 16 -->
<g id="node17" class="node">
<title>16</title>
<path fill="none" stroke="#d85656" stroke-width="2" d="M1954.5,-180C1954.5,-180 1910.5,-180 1910.5,-180 1904.5,-180 1898.5,-174 1898.5,-168 1898.5,-168 1898.5,-156 1898.5,-156 1898.5,-150 1904.5,-144 1910.5,-144 1910.5,-144 1954.5,-144 1954.5,-144 1960.5,-144 1966.5,-150 1966.5,-156 1966.5,-156 1966.5,-168 1966.5,-168 1966.5,-174 1960.5,-180 1954.5,-180"/>
<text text-anchor="middle" x="1932.5" y="-159.5" font-family="sans" font-size="10.00">SLE_forest</text>
</g>
<!-- 16&#45;&gt;15 -->
<g id="edge52" class="edge">
<title>16&#45;&gt;15</title>
<path fill="none" stroke="grey" stroke-width="2" d="M1950.54,-143.7C1959.56,-135.05 1970.62,-124.45 1980.44,-115.03"/>
<polygon fill="grey" stroke="grey" stroke-width="2" points="1982.87,-117.55 1987.66,-108.1 1978.02,-112.5 1982.87,-117.55"/>
</g>
<!-- 57 -->
<g id="node58" class="node">
<title>57</title>
<path fill="none" stroke="#d8cb56" stroke-width="2" d="M1931,-108C1931,-108 1818,-108 1818,-108 1812,-108 1806,-102 1806,-96 1806,-96 1806,-84 1806,-84 1806,-78 1812,-72 1818,-72 1818,-72 1931,-72 1931,-72 1937,-72 1943,-78 1943,-84 1943,-84 1943,-96 1943,-96 1943,-102 1937,-108 1931,-108"/>
<text text-anchor="middle" x="1874.5" y="-87.5" font-family="sans" font-size="10.00">itol_selected_annotation</text>
</g>
<!-- 16&#45;&gt;57 -->
<g id="edge126" class="edge">
<title>16&#45;&gt;57</title>
<path fill="none" stroke="grey" stroke-width="2" d="M1918.16,-143.7C1911.21,-135.3 1902.73,-125.07 1895.1,-115.86"/>
<polygon fill="grey" stroke="grey" stroke-width="2" points="1897.75,-113.57 1888.67,-108.1 1892.36,-118.04 1897.75,-113.57"/>
</g>
<!-- 17 -->
<g id="node18" class="node">
<title>17</title>
<path fill="none" stroke="#8fd856" stroke-width="2" d="M1955.5,-252C1955.5,-252 1925.5,-252 1925.5,-252 1919.5,-252 1913.5,-246 1913.5,-240 1913.5,-240 1913.5,-228 1913.5,-228 1913.5,-222 1919.5,-216 1925.5,-216 1925.5,-216 1955.5,-216 1955.5,-216 1961.5,-216 1967.5,-222 1967.5,-228 1967.5,-228 1967.5,-240 1967.5,-240 1967.5,-246 1961.5,-252 1955.5,-252"/>
<text text-anchor="middle" x="1940.5" y="-237" font-family="sans" font-size="10.00">pastml</text>
<text text-anchor="middle" x="1940.5" y="-226" font-family="sans" font-size="10.00">i: 2</text>
</g>
<!-- 17&#45;&gt;16 -->
<g id="edge53" class="edge">
<title>17&#45;&gt;16</title>
<path fill="none" stroke="grey" stroke-width="2" d="M1938.52,-215.7C1937.64,-207.98 1936.58,-198.71 1935.6,-190.11"/>
<polygon fill="grey" stroke="grey" stroke-width="2" points="1939.07,-189.64 1934.45,-180.1 1932.11,-190.44 1939.07,-189.64"/>
</g>
<!-- 67 -->
<g id="node68" class="node">
<title>67</title>
<path fill="none" stroke="#68d856" stroke-width="2" d="M2044,-180C2044,-180 1997,-180 1997,-180 1991,-180 1985,-174 1985,-168 1985,-168 1985,-156 1985,-156 1985,-150 1991,-144 1997,-144 1997,-144 2044,-144 2044,-144 2050,-144 2056,-150 2056,-156 2056,-156 2056,-168 2056,-168 2056,-174 2050,-180 2044,-180"/>
<text text-anchor="middle" x="2020.5" y="-159.5" font-family="sans" font-size="10.00">pastml_itol</text>
</g>
<!-- 17&#45;&gt;67 -->
<g id="edge139" class="edge">
<title>17&#45;&gt;67</title>
<path fill="none" stroke="grey" stroke-width="2" d="M1960.28,-215.7C1970.25,-206.97 1982.51,-196.24 1993.36,-186.75"/>
<polygon fill="grey" stroke="grey" stroke-width="2" points="1995.73,-189.32 2000.95,-180.1 1991.12,-184.06 1995.73,-189.32"/>
</g>
<!-- 18&#45;&gt;17 -->
<g id="edge54" class="edge">
<title>18&#45;&gt;17</title>
<path fill="none" stroke="grey" stroke-width="2" d="M1940.5,-287.7C1940.5,-279.98 1940.5,-270.71 1940.5,-262.11"/>
<polygon fill="grey" stroke="grey" stroke-width="2" points="1944,-262.1 1940.5,-252.1 1937,-262.1 1944,-262.1"/>
</g>
<!-- 18&#45;&gt;67 -->
<g id="edge138" class="edge">
<title>18&#45;&gt;67</title>
<path fill="none" stroke="grey" stroke-width="2" d="M1953.12,-287.72C1960.33,-277.55 1969.33,-264.3 1976.5,-252 1988.44,-231.52 2000.25,-207.36 2008.62,-189.38"/>
<polygon fill="grey" stroke="grey" stroke-width="2" points="2011.9,-190.64 2012.9,-180.09 2005.54,-187.71 2011.9,-190.64"/>
</g>
<!-- 19&#45;&gt;18 -->
<g id="edge55" class="edge">
<title>19&#45;&gt;18</title>
<path fill="none" stroke="grey" stroke-width="2" d="M1658.91,-364.17C1662.76,-362.63 1666.69,-361.19 1670.5,-360 1738.76,-338.7 1819.5,-324.19 1874.79,-315.81"/>
<polygon fill="grey" stroke="grey" stroke-width="2" points="1875.44,-319.25 1884.81,-314.32 1874.41,-312.33 1875.44,-319.25"/>
</g>
<!-- 20 -->
<g id="node21" class="node">
<title>20</title>
<path fill="none" stroke="#567bd8" stroke-width="2" d="M2485,-108C2485,-108 2420,-108 2420,-108 2414,-108 2408,-102 2408,-96 2408,-96 2408,-84 2408,-84 2408,-78 2414,-72 2420,-72 2420,-72 2485,-72 2485,-72 2491,-72 2497,-78 2497,-84 2497,-84 2497,-96 2497,-96 2497,-102 2491,-108 2485,-108"/>
<text text-anchor="middle" x="2452.5" y="-93" font-family="sans" font-size="10.00">years2days</text>
<text text-anchor="middle" x="2452.5" y="-82" font-family="sans" font-size="10.00">tree: SLE/SLE.3</text>
</g>
<!-- 20&#45;&gt;0 -->
<g id="edge4" class="edge">
<title>20&#45;&gt;0</title>
<path fill="none" stroke="grey" stroke-width="2" d="M2407.96,-75.05C2403.12,-73.87 2398.23,-72.81 2393.5,-72 2075.41,-17.16 1683.29,-16.93 1562.01,-18.37"/>
<polygon fill="grey" stroke="grey" stroke-width="2" points="1561.73,-14.87 1551.78,-18.5 1561.83,-21.87 1561.73,-14.87"/>
</g>
<!-- 21 -->
<g id="node22" class="node">
<title>21</title>
<path fill="none" stroke="#d85656" stroke-width="2" d="M2474.5,-180C2474.5,-180 2430.5,-180 2430.5,-180 2424.5,-180 2418.5,-174 2418.5,-168 2418.5,-168 2418.5,-156 2418.5,-156 2418.5,-150 2424.5,-144 2430.5,-144 2430.5,-144 2474.5,-144 2474.5,-144 2480.5,-144 2486.5,-150 2486.5,-156 2486.5,-156 2486.5,-168 2486.5,-168 2486.5,-174 2480.5,-180 2474.5,-180"/>
<text text-anchor="middle" x="2452.5" y="-159.5" font-family="sans" font-size="10.00">SLE_forest</text>
</g>
<!-- 21&#45;&gt;20 -->
<g id="edge61" class="edge">
<title>21&#45;&gt;20</title>
<path fill="none" stroke="grey" stroke-width="2" d="M2452.5,-143.7C2452.5,-135.98 2452.5,-126.71 2452.5,-118.11"/>
<polygon fill="grey" stroke="grey" stroke-width="2" points="2456,-118.1 2452.5,-108.1 2449,-118.1 2456,-118.1"/>
</g>
<!-- 58 -->
<g id="node59" class="node">
<title>58</title>
<path fill="none" stroke="#d8cb56" stroke-width="2" d="M2640,-108C2640,-108 2527,-108 2527,-108 2521,-108 2515,-102 2515,-96 2515,-96 2515,-84 2515,-84 2515,-78 2521,-72 2527,-72 2527,-72 2640,-72 2640,-72 2646,-72 2652,-78 2652,-84 2652,-84 2652,-96 2652,-96 2652,-102 2646,-108 2640,-108"/>
<text text-anchor="middle" x="2583.5" y="-87.5" font-family="sans" font-size="10.00">itol_selected_annotation</text>
</g>
<!-- 21&#45;&gt;58 -->
<g id="edge127" class="edge">
<title>21&#45;&gt;58</title>
<path fill="none" stroke="grey" stroke-width="2" d="M2484.55,-143.88C2501.99,-134.55 2523.77,-122.92 2542.44,-112.94"/>
<polygon fill="grey" stroke="grey" stroke-width="2" points="2544.16,-115.99 2551.33,-108.19 2540.86,-109.82 2544.16,-115.99"/>
</g>
<!-- 22 -->
<g id="node23" class="node">
<title>22</title>
<path fill="none" stroke="#8fd856" stroke-width="2" d="M2467.5,-252C2467.5,-252 2437.5,-252 2437.5,-252 2431.5,-252 2425.5,-246 2425.5,-240 2425.5,-240 2425.5,-228 2425.5,-228 2425.5,-222 2431.5,-216 2437.5,-216 2437.5,-216 2467.5,-216 2467.5,-216 2473.5,-216 2479.5,-222 2479.5,-228 2479.5,-228 2479.5,-240 2479.5,-240 2479.5,-246 2473.5,-252 2467.5,-252"/>
<text text-anchor="middle" x="2452.5" y="-237" font-family="sans" font-size="10.00">pastml</text>
<text text-anchor="middle" x="2452.5" y="-226" font-family="sans" font-size="10.00">i: 3</text>
</g>
<!-- 22&#45;&gt;21 -->
<g id="edge62" class="edge">
<title>22&#45;&gt;21</title>
<path fill="none" stroke="grey" stroke-width="2" d="M2452.5,-215.7C2452.5,-207.98 2452.5,-198.71 2452.5,-190.11"/>
<polygon fill="grey" stroke="grey" stroke-width="2" points="2456,-190.1 2452.5,-180.1 2449,-190.1 2456,-190.1"/>
</g>
<!-- 68 -->
<g id="node69" class="node">
<title>68</title>
<path fill="none" stroke="#68d856" stroke-width="2" d="M2564,-180C2564,-180 2517,-180 2517,-180 2511,-180 2505,-174 2505,-168 2505,-168 2505,-156 2505,-156 2505,-150 2511,-144 2517,-144 2517,-144 2564,-144 2564,-144 2570,-144 2576,-150 2576,-156 2576,-156 2576,-168 2576,-168 2576,-174 2570,-180 2564,-180"/>
<text text-anchor="middle" x="2540.5" y="-159.5" font-family="sans" font-size="10.00">pastml_itol</text>
</g>
<!-- 22&#45;&gt;68 -->
<g id="edge141" class="edge">
<title>22&#45;&gt;68</title>
<path fill="none" stroke="grey" stroke-width="2" d="M2474.25,-215.7C2485.34,-206.88 2498.97,-196.03 2510.99,-186.47"/>
<polygon fill="grey" stroke="grey" stroke-width="2" points="2513.35,-189.07 2519,-180.1 2508.99,-183.59 2513.35,-189.07"/>
</g>
<!-- 23&#45;&gt;22 -->
<g id="edge63" class="edge">
<title>23&#45;&gt;22</title>
<path fill="none" stroke="grey" stroke-width="2" d="M2343.73,-287.88C2365.73,-277.18 2393.99,-263.44 2416.2,-252.65"/>
<polygon fill="grey" stroke="grey" stroke-width="2" points="2417.84,-255.74 2425.3,-248.22 2414.78,-249.44 2417.84,-255.74"/>
</g>
<!-- 23&#45;&gt;68 -->
<g id="edge140" class="edge">
<title>23&#45;&gt;68</title>
<path fill="none" stroke="grey" stroke-width="2" d="M2364.25,-289.66C2415.2,-275.47 2483.4,-255.99 2488.5,-252 2508.99,-235.96 2522.98,-209.42 2531.25,-189.49"/>
<polygon fill="grey" stroke="grey" stroke-width="2" points="2534.56,-190.62 2534.95,-180.03 2528.04,-188.07 2534.56,-190.62"/>
</g>
<!-- 24&#45;&gt;23 -->
<g id="edge64" class="edge">
<title>24&#45;&gt;23</title>
<path fill="none" stroke="grey" stroke-width="2" d="M1805.9,-364.29C1810.37,-362.61 1815.01,-361.09 1819.5,-360 2002.38,-315.42 2055.88,-355.25 2241.5,-324 2241.96,-323.92 2242.42,-323.84 2242.88,-323.76"/>
<polygon fill="grey" stroke="grey" stroke-width="2" points="2243.55,-327.2 2252.71,-321.88 2242.23,-320.32 2243.55,-327.2"/>
</g>
<!-- 25 -->
<g id="node26" class="node">
<title>25</title>
<path fill="none" stroke="#567bd8" stroke-width="2" d="M2786,-108C2786,-108 2721,-108 2721,-108 2715,-108 2709,-102 2709,-96 2709,-96 2709,-84 2709,-84 2709,-78 2715,-72 2721,-72 2721,-72 2786,-72 2786,-72 2792,-72 2798,-78 2798,-84 2798,-84 2798,-96 2798,-96 2798,-102 2792,-108 2786,-108"/>
<text text-anchor="middle" x="2753.5" y="-93" font-family="sans" font-size="10.00">years2days</text>
<text text-anchor="middle" x="2753.5" y="-82" font-family="sans" font-size="10.00">tree: SLE/SLE.4</text>
</g>
<!-- 25&#45;&gt;0 -->
<g id="edge5" class="edge">
<title>25&#45;&gt;0</title>
<path fill="none" stroke="grey" stroke-width="2" d="M2708.97,-74.98C2704.13,-73.81 2699.23,-72.78 2694.5,-72 2468.74,-34.89 1735.79,-22.07 1561.8,-19.51"/>
<polygon fill="grey" stroke="grey" stroke-width="2" points="1561.66,-16.01 1551.61,-19.36 1561.56,-23.01 1561.66,-16.01"/>
</g>
<!-- 26 -->
<g id="node27" class="node">
<title>26</title>
<path fill="none" stroke="#d85656" stroke-width="2" d="M2775.5,-180C2775.5,-180 2731.5,-180 2731.5,-180 2725.5,-180 2719.5,-174 2719.5,-168 2719.5,-168 2719.5,-156 2719.5,-156 2719.5,-150 2725.5,-144 2731.5,-144 2731.5,-144 2775.5,-144 2775.5,-144 2781.5,-144 2787.5,-150 2787.5,-156 2787.5,-156 2787.5,-168 2787.5,-168 2787.5,-174 2781.5,-180 2775.5,-180"/>
<text text-anchor="middle" x="2753.5" y="-159.5" font-family="sans" font-size="10.00">SLE_forest</text>
</g>
<!-- 26&#45;&gt;25 -->
<g id="edge70" class="edge">
<title>26&#45;&gt;25</title>
<path fill="none" stroke="grey" stroke-width="2" d="M2753.5,-143.7C2753.5,-135.98 2753.5,-126.71 2753.5,-118.11"/>
<polygon fill="grey" stroke="grey" stroke-width="2" points="2757,-118.1 2753.5,-108.1 2750,-118.1 2757,-118.1"/>
</g>
<!-- 59 -->
<g id="node60" class="node">
<title>59</title>
<path fill="none" stroke="#d8cb56" stroke-width="2" d="M2941,-108C2941,-108 2828,-108 2828,-108 2822,-108 2816,-102 2816,-96 2816,-96 2816,-84 2816,-84 2816,-78 2822,-72 2828,-72 2828,-72 2941,-72 2941,-72 2947,-72 2953,-78 2953,-84 2953,-84 2953,-96 2953,-96 2953,-102 2947,-108 2941,-108"/>
<text text-anchor="middle" x="2884.5" y="-87.5" font-family="sans" font-size="10.00">itol_selected_annotation</text>
</g>
<!-- 26&#45;&gt;59 -->
<g id="edge128" class="edge">
<title>26&#45;&gt;59</title>
<path fill="none" stroke="grey" stroke-width="2" d="M2785.55,-143.88C2802.99,-134.55 2824.77,-122.92 2843.44,-112.94"/>
<polygon fill="grey" stroke="grey" stroke-width="2" points="2845.16,-115.99 2852.33,-108.19 2841.86,-109.82 2845.16,-115.99"/>
</g>
<!-- 27 -->
<g id="node28" class="node">
<title>27</title>
<path fill="none" stroke="#8fd856" stroke-width="2" d="M2768.5,-252C2768.5,-252 2738.5,-252 2738.5,-252 2732.5,-252 2726.5,-246 2726.5,-240 2726.5,-240 2726.5,-228 2726.5,-228 2726.5,-222 2732.5,-216 2738.5,-216 2738.5,-216 2768.5,-216 2768.5,-216 2774.5,-216 2780.5,-222 2780.5,-228 2780.5,-228 2780.5,-240 2780.5,-240 2780.5,-246 2774.5,-252 2768.5,-252"/>
<text text-anchor="middle" x="2753.5" y="-237" font-family="sans" font-size="10.00">pastml</text>
<text text-anchor="middle" x="2753.5" y="-226" font-family="sans" font-size="10.00">i: 4</text>
</g>
<!-- 27&#45;&gt;26 -->
<g id="edge71" class="edge">
<title>27&#45;&gt;26</title>
<path fill="none" stroke="grey" stroke-width="2" d="M2753.5,-215.7C2753.5,-207.98 2753.5,-198.71 2753.5,-190.11"/>
<polygon fill="grey" stroke="grey" stroke-width="2" points="2757,-190.1 2753.5,-180.1 2750,-190.1 2757,-190.1"/>
</g>
<!-- 69 -->
<g id="node70" class="node">
<title>69</title>
<path fill="none" stroke="#68d856" stroke-width="2" d="M2865,-180C2865,-180 2818,-180 2818,-180 2812,-180 2806,-174 2806,-168 2806,-168 2806,-156 2806,-156 2806,-150 2812,-144 2818,-144 2818,-144 2865,-144 2865,-144 2871,-144 2877,-150 2877,-156 2877,-156 2877,-168 2877,-168 2877,-174 2871,-180 2865,-180"/>
<text text-anchor="middle" x="2841.5" y="-159.5" font-family="sans" font-size="10.00">pastml_itol</text>
</g>
<!-- 27&#45;&gt;69 -->
<g id="edge143" class="edge">
<title>27&#45;&gt;69</title>
<path fill="none" stroke="grey" stroke-width="2" d="M2775.25,-215.7C2786.34,-206.88 2799.97,-196.03 2811.99,-186.47"/>
<polygon fill="grey" stroke="grey" stroke-width="2" points="2814.35,-189.07 2820,-180.1 2809.99,-183.59 2814.35,-189.07"/>
</g>
<!-- 28&#45;&gt;27 -->
<g id="edge72" class="edge">
<title>28&#45;&gt;27</title>
<path fill="none" stroke="grey" stroke-width="2" d="M2493.27,-292.65C2557.52,-278.41 2661.3,-255.42 2716.38,-243.22"/>
<polygon fill="grey" stroke="grey" stroke-width="2" points="2717.4,-246.58 2726.4,-241 2715.88,-239.75 2717.4,-246.58"/>
</g>
<!-- 28&#45;&gt;69 -->
<g id="edge142" class="edge">
<title>28&#45;&gt;69</title>
<path fill="none" stroke="grey" stroke-width="2" d="M2493.14,-302.41C2579.87,-297.43 2742.25,-284.03 2789.5,-252 2811.27,-237.24 2825.18,-210.1 2833.08,-189.66"/>
<polygon fill="grey" stroke="grey" stroke-width="2" points="2836.38,-190.84 2836.49,-180.24 2829.79,-188.45 2836.38,-190.84"/>
</g>
<!-- 29&#45;&gt;28 -->
<g id="edge73" class="edge">
<title>29&#45;&gt;28</title>
<path fill="none" stroke="grey" stroke-width="2" d="M1947.51,-375.2C2016.68,-370.29 2205.87,-355.07 2371.87,-324.17"/>
<polygon fill="grey" stroke="grey" stroke-width="2" points="2372.58,-327.6 2381.76,-322.31 2371.28,-320.72 2372.58,-327.6"/>
</g>
<!-- 30 -->
<g id="node31" class="node">
<title>30</title>
<path fill="none" stroke="#567bd8" stroke-width="2" d="M834,-108C834,-108 769,-108 769,-108 763,-108 757,-102 757,-96 757,-96 757,-84 757,-84 757,-78 763,-72 769,-72 769,-72 834,-72 834,-72 840,-72 846,-78 846,-84 846,-84 846,-96 846,-96 846,-102 840,-108 834,-108"/>
<text text-anchor="middle" x="801.5" y="-93" font-family="sans" font-size="10.00">years2days</text>
<text text-anchor="middle" x="801.5" y="-82" font-family="sans" font-size="10.00">tree: SLE/SLE.5</text>
</g>
<!-- 30&#45;&gt;0 -->
<g id="edge6" class="edge">
<title>30&#45;&gt;0</title>
<path fill="none" stroke="grey" stroke-width="2" d="M846.05,-75.14C850.9,-73.94 855.78,-72.86 860.5,-72 1096.48,-29.04 1385.94,-20.9 1487.32,-19.36"/>
<polygon fill="grey" stroke="grey" stroke-width="2" points="1487.42,-22.86 1497.37,-19.22 1487.32,-15.86 1487.42,-22.86"/>
</g>
<!-- 31 -->
<g id="node32" class="node">
<title>31</title>
<path fill="none" stroke="#d85656" stroke-width="2" d="M820.5,-180C820.5,-180 776.5,-180 776.5,-180 770.5,-180 764.5,-174 764.5,-168 764.5,-168 764.5,-156 764.5,-156 764.5,-150 770.5,-144 776.5,-144 776.5,-144 820.5,-144 820.5,-144 826.5,-144 832.5,-150 832.5,-156 832.5,-156 832.5,-168 832.5,-168 832.5,-174 826.5,-180 820.5,-180"/>
<text text-anchor="middle" x="798.5" y="-159.5" font-family="sans" font-size="10.00">SLE_forest</text>
</g>
<!-- 31&#45;&gt;30 -->
<g id="edge79" class="edge">
<title>31&#45;&gt;30</title>
<path fill="none" stroke="grey" stroke-width="2" d="M799.24,-143.7C799.57,-135.98 799.97,-126.71 800.34,-118.11"/>
<polygon fill="grey" stroke="grey" stroke-width="2" points="803.84,-118.25 800.77,-108.1 796.84,-117.95 803.84,-118.25"/>
</g>
<!-- 60 -->
<g id="node61" class="node">
<title>60</title>
<path fill="none" stroke="#d8cb56" stroke-width="2" d="M727,-108C727,-108 614,-108 614,-108 608,-108 602,-102 602,-96 602,-96 602,-84 602,-84 602,-78 608,-72 614,-72 614,-72 727,-72 727,-72 733,-72 739,-78 739,-84 739,-84 739,-96 739,-96 739,-102 733,-108 727,-108"/>
<text text-anchor="middle" x="670.5" y="-87.5" font-family="sans" font-size="10.00">itol_selected_annotation</text>
</g>
<!-- 31&#45;&gt;60 -->
<g id="edge129" class="edge">
<title>31&#45;&gt;60</title>
<path fill="none" stroke="grey" stroke-width="2" d="M767.19,-143.88C750.3,-134.64 729.25,-123.13 711.12,-113.21"/>
<polygon fill="grey" stroke="grey" stroke-width="2" points="712.39,-109.92 701.93,-108.19 709.03,-116.06 712.39,-109.92"/>
</g>
<!-- 32 -->
<g id="node33" class="node">
<title>32</title>
<path fill="none" stroke="#8fd856" stroke-width="2" d="M894.5,-252C894.5,-252 864.5,-252 864.5,-252 858.5,-252 852.5,-246 852.5,-240 852.5,-240 852.5,-228 852.5,-228 852.5,-222 858.5,-216 864.5,-216 864.5,-216 894.5,-216 894.5,-216 900.5,-216 906.5,-222 906.5,-228 906.5,-228 906.5,-240 906.5,-240 906.5,-246 900.5,-252 894.5,-252"/>
<text text-anchor="middle" x="879.5" y="-237" font-family="sans" font-size="10.00">pastml</text>
<text text-anchor="middle" x="879.5" y="-226" font-family="sans" font-size="10.00">i: 5</text>
</g>
<!-- 32&#45;&gt;31 -->
<g id="edge80" class="edge">
<title>32&#45;&gt;31</title>
<path fill="none" stroke="grey" stroke-width="2" d="M859.48,-215.7C849.37,-206.97 836.96,-196.24 825.98,-186.75"/>
<polygon fill="grey" stroke="grey" stroke-width="2" points="828.15,-183.99 818.29,-180.1 823.57,-189.29 828.15,-183.99"/>
</g>
<!-- 70 -->
<g id="node71" class="node">
<title>70</title>
<path fill="none" stroke="#68d856" stroke-width="2" d="M910,-180C910,-180 863,-180 863,-180 857,-180 851,-174 851,-168 851,-168 851,-156 851,-156 851,-150 857,-144 863,-144 863,-144 910,-144 910,-144 916,-144 922,-150 922,-156 922,-156 922,-168 922,-168 922,-174 916,-180 910,-180"/>
<text text-anchor="middle" x="886.5" y="-159.5" font-family="sans" font-size="10.00">pastml_itol</text>
</g>
<!-- 32&#45;&gt;70 -->
<g id="edge145" class="edge">
<title>32&#45;&gt;70</title>
<path fill="none" stroke="grey" stroke-width="2" d="M881.23,-215.7C882,-207.98 882.93,-198.71 883.79,-190.11"/>
<polygon fill="grey" stroke="grey" stroke-width="2" points="887.28,-190.4 884.79,-180.1 880.31,-189.71 887.28,-190.4"/>
</g>
<!-- 33&#45;&gt;32 -->
<g id="edge81" class="edge">
<title>33&#45;&gt;32</title>
<path fill="none" stroke="grey" stroke-width="2" d="M920.9,-287.7C914.38,-279.39 906.43,-269.28 899.25,-260.14"/>
<polygon fill="grey" stroke="grey" stroke-width="2" points="901.87,-257.81 892.94,-252.1 896.37,-262.13 901.87,-257.81"/>
</g>
<!-- 33&#45;&gt;70 -->
<g id="edge144" class="edge">
<title>33&#45;&gt;70</title>
<path fill="none" stroke="grey" stroke-width="2" d="M932.35,-287.86C929.72,-269.62 924.46,-240.14 915.5,-216 912.1,-206.86 907.35,-197.36 902.67,-188.98"/>
<polygon fill="grey" stroke="grey" stroke-width="2" points="905.54,-186.95 897.5,-180.06 899.49,-190.47 905.54,-186.95"/>
</g>
<!-- 34&#45;&gt;33 -->
<g id="edge82" class="edge">
<title>34&#45;&gt;33</title>
<path fill="none" stroke="grey" stroke-width="2" d="M1288.35,-366.42C1281.61,-364.06 1274.35,-361.74 1267.5,-360 1176.17,-336.77 1068.02,-321.79 1000.32,-313.88"/>
<polygon fill="grey" stroke="grey" stroke-width="2" points="1000.56,-310.39 990.22,-312.72 999.76,-317.34 1000.56,-310.39"/>
</g>
<!-- 35 -->
<g id="node36" class="node">
<title>35</title>
<path fill="none" stroke="#567bd8" stroke-width="2" d="M533,-108C533,-108 468,-108 468,-108 462,-108 456,-102 456,-96 456,-96 456,-84 456,-84 456,-78 462,-72 468,-72 468,-72 533,-72 533,-72 539,-72 545,-78 545,-84 545,-84 545,-96 545,-96 545,-102 539,-108 533,-108"/>
<text text-anchor="middle" x="500.5" y="-93" font-family="sans" font-size="10.00">years2days</text>
<text text-anchor="middle" x="500.5" y="-82" font-family="sans" font-size="10.00">tree: SLE/SLE.6</text>
</g>
<!-- 35&#45;&gt;0 -->
<g id="edge7" class="edge">
<title>35&#45;&gt;0</title>
<path fill="none" stroke="grey" stroke-width="2" d="M545.03,-75.02C549.88,-73.85 554.77,-72.8 559.5,-72 742.87,-40.96 1332.27,-23.93 1487.01,-19.93"/>
<polygon fill="grey" stroke="grey" stroke-width="2" points="1487.48,-23.42 1497.38,-19.66 1487.3,-16.42 1487.48,-23.42"/>
</g>
<!-- 36 -->
<g id="node37" class="node">
<title>36</title>
<path fill="none" stroke="#d85656" stroke-width="2" d="M522.5,-180C522.5,-180 478.5,-180 478.5,-180 472.5,-180 466.5,-174 466.5,-168 466.5,-168 466.5,-156 466.5,-156 466.5,-150 472.5,-144 478.5,-144 478.5,-144 522.5,-144 522.5,-144 528.5,-144 534.5,-150 534.5,-156 534.5,-156 534.5,-168 534.5,-168 534.5,-174 528.5,-180 522.5,-180"/>
<text text-anchor="middle" x="500.5" y="-159.5" font-family="sans" font-size="10.00">SLE_forest</text>
</g>
<!-- 36&#45;&gt;35 -->
<g id="edge88" class="edge">
<title>36&#45;&gt;35</title>
<path fill="none" stroke="grey" stroke-width="2" d="M500.5,-143.7C500.5,-135.98 500.5,-126.71 500.5,-118.11"/>
<polygon fill="grey" stroke="grey" stroke-width="2" points="504,-118.1 500.5,-108.1 497,-118.1 504,-118.1"/>
</g>
<!-- 61 -->
<g id="node62" class="node">
<title>61</title>
<path fill="none" stroke="#d8cb56" stroke-width="2" d="M426,-108C426,-108 313,-108 313,-108 307,-108 301,-102 301,-96 301,-96 301,-84 301,-84 301,-78 307,-72 313,-72 313,-72 426,-72 426,-72 432,-72 438,-78 438,-84 438,-84 438,-96 438,-96 438,-102 432,-108 426,-108"/>
<text text-anchor="middle" x="369.5" y="-87.5" font-family="sans" font-size="10.00">itol_selected_annotation</text>
</g>
<!-- 36&#45;&gt;61 -->
<g id="edge130" class="edge">
<title>36&#45;&gt;61</title>
<path fill="none" stroke="grey" stroke-width="2" d="M468.45,-143.88C451.01,-134.55 429.23,-122.92 410.56,-112.94"/>
<polygon fill="grey" stroke="grey" stroke-width="2" points="412.14,-109.82 401.67,-108.19 408.84,-115.99 412.14,-109.82"/>
</g>
<!-- 37 -->
<g id="node38" class="node">
<title>37</title>
<path fill="none" stroke="#8fd856" stroke-width="2" d="M663.5,-252C663.5,-252 633.5,-252 633.5,-252 627.5,-252 621.5,-246 621.5,-240 621.5,-240 621.5,-228 621.5,-228 621.5,-222 627.5,-216 633.5,-216 633.5,-216 663.5,-216 663.5,-216 669.5,-216 675.5,-222 675.5,-228 675.5,-228 675.5,-240 675.5,-240 675.5,-246 669.5,-252 663.5,-252"/>
<text text-anchor="middle" x="648.5" y="-237" font-family="sans" font-size="10.00">pastml</text>
<text text-anchor="middle" x="648.5" y="-226" font-family="sans" font-size="10.00">i: 6</text>
</g>
<!-- 37&#45;&gt;36 -->
<g id="edge89" class="edge">
<title>37&#45;&gt;36</title>
<path fill="none" stroke="grey" stroke-width="2" d="M621.35,-220.16C599.75,-209.94 569.09,-195.44 544.06,-183.6"/>
<polygon fill="grey" stroke="grey" stroke-width="2" points="545.3,-180.32 534.77,-179.21 542.31,-186.65 545.3,-180.32"/>
</g>
<!-- 71 -->
<g id="node72" class="node">
<title>71</title>
<path fill="none" stroke="#68d856" stroke-width="2" d="M672,-180C672,-180 625,-180 625,-180 619,-180 613,-174 613,-168 613,-168 613,-156 613,-156 613,-150 619,-144 625,-144 625,-144 672,-144 672,-144 678,-144 684,-150 684,-156 684,-156 684,-168 684,-168 684,-174 678,-180 672,-180"/>
<text text-anchor="middle" x="648.5" y="-159.5" font-family="sans" font-size="10.00">pastml_itol</text>
</g>
<!-- 37&#45;&gt;71 -->
<g id="edge147" class="edge">
<title>37&#45;&gt;71</title>
<path fill="none" stroke="grey" stroke-width="2" d="M648.5,-215.7C648.5,-207.98 648.5,-198.71 648.5,-190.11"/>
<polygon fill="grey" stroke="grey" stroke-width="2" points="652,-190.1 648.5,-180.1 645,-190.1 652,-190.1"/>
</g>
<!-- 38&#45;&gt;37 -->
<g id="edge90" class="edge">
<title>38&#45;&gt;37</title>
<path fill="none" stroke="grey" stroke-width="2" d="M766.34,-287.88C741.49,-276.73 709.28,-262.27 684.81,-251.29"/>
<polygon fill="grey" stroke="grey" stroke-width="2" points="686.07,-248.02 675.51,-247.12 683.2,-254.41 686.07,-248.02"/>
</g>
<!-- 38&#45;&gt;71 -->
<g id="edge146" class="edge">
<title>38&#45;&gt;71</title>
<path fill="none" stroke="grey" stroke-width="2" d="M785.68,-287.87C758.04,-262.71 706.34,-215.65 674.91,-187.04"/>
<polygon fill="grey" stroke="grey" stroke-width="2" points="677.14,-184.33 667.38,-180.19 672.42,-189.51 677.14,-184.33"/>
</g>
<!-- 39&#45;&gt;38 -->
<g id="edge91" class="edge">
<title>39&#45;&gt;38</title>
<path fill="none" stroke="grey" stroke-width="2" d="M1204.38,-368.49C1193.89,-365.44 1181.72,-362.22 1170.5,-360 1041.56,-334.48 1003.71,-348.38 870.26,-323.97"/>
<polygon fill="grey" stroke="grey" stroke-width="2" points="870.53,-320.46 860.06,-322.06 869.24,-327.34 870.53,-320.46"/>
</g>
<!-- 40 -->
<g id="node41" class="node">
<title>40</title>
<path fill="none" stroke="#567bd8" stroke-width="2" d="M1135,-108C1135,-108 1070,-108 1070,-108 1064,-108 1058,-102 1058,-96 1058,-96 1058,-84 1058,-84 1058,-78 1064,-72 1070,-72 1070,-72 1135,-72 1135,-72 1141,-72 1147,-78 1147,-84 1147,-84 1147,-96 1147,-96 1147,-102 1141,-108 1135,-108"/>
<text text-anchor="middle" x="1102.5" y="-93" font-family="sans" font-size="10.00">years2days</text>
<text text-anchor="middle" x="1102.5" y="-82" font-family="sans" font-size="10.00">tree: SLE/SLE.7</text>
</g>
<!-- 40&#45;&gt;0 -->
<g id="edge8" class="edge">
<title>40&#45;&gt;0</title>
<path fill="none" stroke="grey" stroke-width="2" d="M1147.12,-75.46C1151.95,-74.19 1156.81,-73.01 1161.5,-72 1279.15,-46.59 1420.91,-29.81 1487.08,-22.77"/>
<polygon fill="grey" stroke="grey" stroke-width="2" points="1487.83,-26.21 1497.41,-21.68 1487.1,-19.25 1487.83,-26.21"/>
</g>
<!-- 41 -->
<g id="node42" class="node">
<title>41</title>
<path fill="none" stroke="#d85656" stroke-width="2" d="M1116.5,-180C1116.5,-180 1072.5,-180 1072.5,-180 1066.5,-180 1060.5,-174 1060.5,-168 1060.5,-168 1060.5,-156 1060.5,-156 1060.5,-150 1066.5,-144 1072.5,-144 1072.5,-144 1116.5,-144 1116.5,-144 1122.5,-144 1128.5,-150 1128.5,-156 1128.5,-156 1128.5,-168 1128.5,-168 1128.5,-174 1122.5,-180 1116.5,-180"/>
<text text-anchor="middle" x="1094.5" y="-159.5" font-family="sans" font-size="10.00">SLE_forest</text>
</g>
<!-- 41&#45;&gt;40 -->
<g id="edge97" class="edge">
<title>41&#45;&gt;40</title>
<path fill="none" stroke="grey" stroke-width="2" d="M1096.48,-143.7C1097.36,-135.98 1098.42,-126.71 1099.4,-118.11"/>
<polygon fill="grey" stroke="grey" stroke-width="2" points="1102.89,-118.44 1100.55,-108.1 1095.93,-117.64 1102.89,-118.44"/>
</g>
<!-- 62 -->
<g id="node63" class="node">
<title>62</title>
<path fill="none" stroke="#d8cb56" stroke-width="2" d="M1028,-108C1028,-108 915,-108 915,-108 909,-108 903,-102 903,-96 903,-96 903,-84 903,-84 903,-78 909,-72 915,-72 915,-72 1028,-72 1028,-72 1034,-72 1040,-78 1040,-84 1040,-84 1040,-96 1040,-96 1040,-102 1034,-108 1028,-108"/>
<text text-anchor="middle" x="971.5" y="-87.5" font-family="sans" font-size="10.00">itol_selected_annotation</text>
</g>
<!-- 41&#45;&gt;62 -->
<g id="edge131" class="edge">
<title>41&#45;&gt;62</title>
<path fill="none" stroke="grey" stroke-width="2" d="M1064.41,-143.88C1048.18,-134.64 1027.96,-123.13 1010.53,-113.21"/>
<polygon fill="grey" stroke="grey" stroke-width="2" points="1012.13,-110.09 1001.7,-108.19 1008.66,-116.18 1012.13,-110.09"/>
</g>
<!-- 42 -->
<g id="node43" class="node">
<title>42</title>
<path fill="none" stroke="#8fd856" stroke-width="2" d="M1169.5,-252C1169.5,-252 1139.5,-252 1139.5,-252 1133.5,-252 1127.5,-246 1127.5,-240 1127.5,-240 1127.5,-228 1127.5,-228 1127.5,-222 1133.5,-216 1139.5,-216 1139.5,-216 1169.5,-216 1169.5,-216 1175.5,-216 1181.5,-222 1181.5,-228 1181.5,-228 1181.5,-240 1181.5,-240 1181.5,-246 1175.5,-252 1169.5,-252"/>
<text text-anchor="middle" x="1154.5" y="-237" font-family="sans" font-size="10.00">pastml</text>
<text text-anchor="middle" x="1154.5" y="-226" font-family="sans" font-size="10.00">i: 7</text>
</g>
<!-- 42&#45;&gt;41 -->
<g id="edge98" class="edge">
<title>42&#45;&gt;41</title>
<path fill="none" stroke="grey" stroke-width="2" d="M1139.67,-215.7C1132.48,-207.3 1123.7,-197.07 1115.81,-187.86"/>
<polygon fill="grey" stroke="grey" stroke-width="2" points="1118.33,-185.42 1109.16,-180.1 1113.01,-189.97 1118.33,-185.42"/>
</g>
<!-- 72 -->
<g id="node73" class="node">
<title>72</title>
<path fill="none" stroke="#68d856" stroke-width="2" d="M1206,-180C1206,-180 1159,-180 1159,-180 1153,-180 1147,-174 1147,-168 1147,-168 1147,-156 1147,-156 1147,-150 1153,-144 1159,-144 1159,-144 1206,-144 1206,-144 1212,-144 1218,-150 1218,-156 1218,-156 1218,-168 1218,-168 1218,-174 1212,-180 1206,-180"/>
<text text-anchor="middle" x="1182.5" y="-159.5" font-family="sans" font-size="10.00">pastml_itol</text>
</g>
<!-- 42&#45;&gt;72 -->
<g id="edge149" class="edge">
<title>42&#45;&gt;72</title>
<path fill="none" stroke="grey" stroke-width="2" d="M1161.42,-215.7C1164.57,-207.81 1168.38,-198.3 1171.88,-189.55"/>
<polygon fill="grey" stroke="grey" stroke-width="2" points="1175.19,-190.69 1175.66,-180.1 1168.69,-188.09 1175.19,-190.69"/>
</g>
<!-- 43&#45;&gt;42 -->
<g id="edge99" class="edge">
<title>43&#45;&gt;42</title>
<path fill="none" stroke="grey" stroke-width="2" d="M1195.9,-287.7C1189.38,-279.39 1181.43,-269.28 1174.25,-260.14"/>
<polygon fill="grey" stroke="grey" stroke-width="2" points="1176.87,-257.81 1167.94,-252.1 1171.37,-262.13 1176.87,-257.81"/>
</g>
<!-- 43&#45;&gt;72 -->
<g id="edge148" class="edge">
<title>43&#45;&gt;72</title>
<path fill="none" stroke="grey" stroke-width="2" d="M1206.24,-287.87C1201.64,-263.67 1193.19,-219.21 1187.71,-190.39"/>
<polygon fill="grey" stroke="grey" stroke-width="2" points="1191.07,-189.36 1185.77,-180.19 1184.2,-190.67 1191.07,-189.36"/>
</g>
<!-- 44&#45;&gt;43 -->
<g id="edge100" class="edge">
<title>44&#45;&gt;43</title>
<path fill="none" stroke="grey" stroke-width="2" d="M1366.43,-365.92C1361.47,-363.92 1356.34,-361.88 1351.5,-360 1323.45,-349.09 1292.11,-337.35 1266.03,-327.7"/>
<polygon fill="grey" stroke="grey" stroke-width="2" points="1266.9,-324.29 1256.31,-324.11 1264.48,-330.85 1266.9,-324.29"/>
</g>
<!-- 45 -->
<g id="node46" class="node">
<title>45</title>
<path fill="none" stroke="#567bd8" stroke-width="2" d="M2339,-108C2339,-108 2274,-108 2274,-108 2268,-108 2262,-102 2262,-96 2262,-96 2262,-84 2262,-84 2262,-78 2268,-72 2274,-72 2274,-72 2339,-72 2339,-72 2345,-72 2351,-78 2351,-84 2351,-84 2351,-96 2351,-96 2351,-102 2345,-108 2339,-108"/>
<text text-anchor="middle" x="2306.5" y="-93" font-family="sans" font-size="10.00">years2days</text>
<text text-anchor="middle" x="2306.5" y="-82" font-family="sans" font-size="10.00">tree: SLE/SLE.8</text>
</g>
<!-- 45&#45;&gt;0 -->
<g id="edge9" class="edge">
<title>45&#45;&gt;0</title>
<path fill="none" stroke="grey" stroke-width="2" d="M2261.88,-73.86C2259.06,-73.16 2256.25,-72.53 2253.5,-72 1992.18,-21.34 1669.65,-18.12 1561.68,-18.6"/>
<polygon fill="grey" stroke="grey" stroke-width="2" points="1561.59,-15.11 1551.61,-18.66 1561.63,-22.1 1561.59,-15.11"/>
</g>
<!-- 46 -->
<g id="node47" class="node">
<title>46</title>
<path fill="none" stroke="#d85656" stroke-width="2" d="M2197.5,-180C2197.5,-180 2153.5,-180 2153.5,-180 2147.5,-180 2141.5,-174 2141.5,-168 2141.5,-168 2141.5,-156 2141.5,-156 2141.5,-150 2147.5,-144 2153.5,-144 2153.5,-144 2197.5,-144 2197.5,-144 2203.5,-144 2209.5,-150 2209.5,-156 2209.5,-156 2209.5,-168 2209.5,-168 2209.5,-174 2203.5,-180 2197.5,-180"/>
<text text-anchor="middle" x="2175.5" y="-159.5" font-family="sans" font-size="10.00">SLE_forest</text>
</g>
<!-- 46&#45;&gt;45 -->
<g id="edge106" class="edge">
<title>46&#45;&gt;45</title>
<path fill="none" stroke="grey" stroke-width="2" d="M2207.55,-143.88C2224.99,-134.55 2246.77,-122.92 2265.44,-112.94"/>
<polygon fill="grey" stroke="grey" stroke-width="2" points="2267.16,-115.99 2274.33,-108.19 2263.86,-109.82 2267.16,-115.99"/>
</g>
<!-- 63 -->
<g id="node64" class="node">
<title>63</title>
<path fill="none" stroke="#d8cb56" stroke-width="2" d="M2232,-108C2232,-108 2119,-108 2119,-108 2113,-108 2107,-102 2107,-96 2107,-96 2107,-84 2107,-84 2107,-78 2113,-72 2119,-72 2119,-72 2232,-72 2232,-72 2238,-72 2244,-78 2244,-84 2244,-84 2244,-96 2244,-96 2244,-102 2238,-108 2232,-108"/>
<text text-anchor="middle" x="2175.5" y="-87.5" font-family="sans" font-size="10.00">itol_selected_annotation</text>
</g>
<!-- 46&#45;&gt;63 -->
<g id="edge132" class="edge">
<title>46&#45;&gt;63</title>
<path fill="none" stroke="grey" stroke-width="2" d="M2175.5,-143.7C2175.5,-135.98 2175.5,-126.71 2175.5,-118.11"/>
<polygon fill="grey" stroke="grey" stroke-width="2" points="2179,-118.1 2175.5,-108.1 2172,-118.1 2179,-118.1"/>
</g>
<!-- 47 -->
<g id="node48" class="node">
<title>47</title>
<path fill="none" stroke="#8fd856" stroke-width="2" d="M2191.5,-252C2191.5,-252 2161.5,-252 2161.5,-252 2155.5,-252 2149.5,-246 2149.5,-240 2149.5,-240 2149.5,-228 2149.5,-228 2149.5,-222 2155.5,-216 2161.5,-216 2161.5,-216 2191.5,-216 2191.5,-216 2197.5,-216 2203.5,-222 2203.5,-228 2203.5,-228 2203.5,-240 2203.5,-240 2203.5,-246 2197.5,-252 2191.5,-252"/>
<text text-anchor="middle" x="2176.5" y="-237" font-family="sans" font-size="10.00">pastml</text>
<text text-anchor="middle" x="2176.5" y="-226" font-family="sans" font-size="10.00">i: 8</text>
</g>
<!-- 47&#45;&gt;46 -->
<g id="edge107" class="edge">
<title>47&#45;&gt;46</title>
<path fill="none" stroke="grey" stroke-width="2" d="M2176.25,-215.7C2176.14,-207.98 2176.01,-198.71 2175.89,-190.11"/>
<polygon fill="grey" stroke="grey" stroke-width="2" points="2179.39,-190.05 2175.74,-180.1 2172.39,-190.15 2179.39,-190.05"/>
</g>
<!-- 73 -->
<g id="node74" class="node">
<title>73</title>
<path fill="none" stroke="#68d856" stroke-width="2" d="M2287,-180C2287,-180 2240,-180 2240,-180 2234,-180 2228,-174 2228,-168 2228,-168 2228,-156 2228,-156 2228,-150 2234,-144 2240,-144 2240,-144 2287,-144 2287,-144 2293,-144 2299,-150 2299,-156 2299,-156 2299,-168 2299,-168 2299,-174 2293,-180 2287,-180"/>
<text text-anchor="middle" x="2263.5" y="-159.5" font-family="sans" font-size="10.00">pastml_itol</text>
</g>
<!-- 47&#45;&gt;73 -->
<g id="edge151" class="edge">
<title>47&#45;&gt;73</title>
<path fill="none" stroke="grey" stroke-width="2" d="M2198.01,-215.7C2208.96,-206.88 2222.45,-196.03 2234.32,-186.47"/>
<polygon fill="grey" stroke="grey" stroke-width="2" points="2236.64,-189.1 2242.24,-180.1 2232.26,-183.65 2236.64,-189.1"/>
</g>
<!-- 48&#45;&gt;47 -->
<g id="edge108" class="edge">
<title>48&#45;&gt;47</title>
<path fill="none" stroke="grey" stroke-width="2" d="M2176.5,-287.7C2176.5,-279.98 2176.5,-270.71 2176.5,-262.11"/>
<polygon fill="grey" stroke="grey" stroke-width="2" points="2180,-262.1 2176.5,-252.1 2173,-262.1 2180,-262.1"/>
</g>
<!-- 48&#45;&gt;73 -->
<g id="edge150" class="edge">
<title>48&#45;&gt;73</title>
<path fill="none" stroke="grey" stroke-width="2" d="M2188.84,-287.56C2195.96,-277.32 2204.96,-264.07 2212.5,-252 2225.4,-231.36 2239.06,-207.39 2249,-189.52"/>
<polygon fill="grey" stroke="grey" stroke-width="2" points="2252.33,-190.74 2254.1,-180.29 2246.2,-187.35 2252.33,-190.74"/>
</g>
<!-- 49&#45;&gt;48 -->
<g id="edge109" class="edge">
<title>49&#45;&gt;48</title>
<path fill="none" stroke="grey" stroke-width="2" d="M1733.66,-363.07C1736.6,-361.9 1739.58,-360.84 1742.5,-360 1777.02,-350.02 1997.88,-325.81 2110.56,-313.88"/>
<polygon fill="grey" stroke="grey" stroke-width="2" points="2111.22,-317.33 2120.79,-312.8 2110.48,-310.37 2111.22,-317.33"/>
</g>
<!-- 50 -->
<g id="node51" class="node">
<title>50</title>
<path fill="none" stroke="#567bd8" stroke-width="2" d="M1281,-108C1281,-108 1216,-108 1216,-108 1210,-108 1204,-102 1204,-96 1204,-96 1204,-84 1204,-84 1204,-78 1210,-72 1216,-72 1216,-72 1281,-72 1281,-72 1287,-72 1293,-78 1293,-84 1293,-84 1293,-96 1293,-96 1293,-102 1287,-108 1281,-108"/>
<text text-anchor="middle" x="1248.5" y="-93" font-family="sans" font-size="10.00">years2days</text>
<text text-anchor="middle" x="1248.5" y="-82" font-family="sans" font-size="10.00">tree: SLE/SLE.9</text>
</g>
<!-- 50&#45;&gt;0 -->
<g id="edge10" class="edge">
<title>50&#45;&gt;0</title>
<path fill="none" stroke="grey" stroke-width="2" d="M1293.25,-74.38C1296.03,-73.55 1298.8,-72.75 1301.5,-72 1366.4,-53.91 1443,-36.56 1487.43,-26.89"/>
<polygon fill="grey" stroke="grey" stroke-width="2" points="1488.18,-30.31 1497.21,-24.78 1486.69,-23.47 1488.18,-30.31"/>
</g>
<!-- 51 -->
<g id="node52" class="node">
<title>51</title>
<path fill="none" stroke="#d85656" stroke-width="2" d="M1401.5,-180C1401.5,-180 1357.5,-180 1357.5,-180 1351.5,-180 1345.5,-174 1345.5,-168 1345.5,-168 1345.5,-156 1345.5,-156 1345.5,-150 1351.5,-144 1357.5,-144 1357.5,-144 1401.5,-144 1401.5,-144 1407.5,-144 1413.5,-150 1413.5,-156 1413.5,-156 1413.5,-168 1413.5,-168 1413.5,-174 1407.5,-180 1401.5,-180"/>
<text text-anchor="middle" x="1379.5" y="-159.5" font-family="sans" font-size="10.00">SLE_forest</text>
</g>
<!-- 51&#45;&gt;50 -->
<g id="edge115" class="edge">
<title>51&#45;&gt;50</title>
<path fill="none" stroke="grey" stroke-width="2" d="M1347.45,-143.88C1330.01,-134.55 1308.23,-122.92 1289.56,-112.94"/>
<polygon fill="grey" stroke="grey" stroke-width="2" points="1291.14,-109.82 1280.67,-108.19 1287.84,-115.99 1291.14,-109.82"/>
</g>
<!-- 64 -->
<g id="node65" class="node">
<title>64</title>
<path fill="none" stroke="#d8cb56" stroke-width="2" d="M1436,-108C1436,-108 1323,-108 1323,-108 1317,-108 1311,-102 1311,-96 1311,-96 1311,-84 1311,-84 1311,-78 1317,-72 1323,-72 1323,-72 1436,-72 1436,-72 1442,-72 1448,-78 1448,-84 1448,-84 1448,-96 1448,-96 1448,-102 1442,-108 1436,-108"/>
<text text-anchor="middle" x="1379.5" y="-87.5" font-family="sans" font-size="10.00">itol_selected_annotation</text>
</g>
<!-- 51&#45;&gt;64 -->
<g id="edge133" class="edge">
<title>51&#45;&gt;64</title>
<path fill="none" stroke="grey" stroke-width="2" d="M1379.5,-143.7C1379.5,-135.98 1379.5,-126.71 1379.5,-118.11"/>
<polygon fill="grey" stroke="grey" stroke-width="2" points="1383,-118.1 1379.5,-108.1 1376,-118.1 1383,-118.1"/>
</g>
<!-- 52 -->
<g id="node53" class="node">
<title>52</title>
<path fill="none" stroke="#8fd856" stroke-width="2" d="M1438.5,-252C1438.5,-252 1408.5,-252 1408.5,-252 1402.5,-252 1396.5,-246 1396.5,-240 1396.5,-240 1396.5,-228 1396.5,-228 1396.5,-222 1402.5,-216 1408.5,-216 1408.5,-216 1438.5,-216 1438.5,-216 1444.5,-216 1450.5,-222 1450.5,-228 1450.5,-228 1450.5,-240 1450.5,-240 1450.5,-246 1444.5,-252 1438.5,-252"/>
<text text-anchor="middle" x="1423.5" y="-237" font-family="sans" font-size="10.00">pastml</text>
<text text-anchor="middle" x="1423.5" y="-226" font-family="sans" font-size="10.00">i: 9</text>
</g>
<!-- 52&#45;&gt;51 -->
<g id="edge116" class="edge">
<title>52&#45;&gt;51</title>
<path fill="none" stroke="grey" stroke-width="2" d="M1412.62,-215.7C1407.51,-207.56 1401.3,-197.69 1395.66,-188.7"/>
<polygon fill="grey" stroke="grey" stroke-width="2" points="1398.54,-186.71 1390.25,-180.1 1392.61,-190.43 1398.54,-186.71"/>
</g>
<!-- 74 -->
<g id="node75" class="node">
<title>74</title>
<path fill="none" stroke="#68d856" stroke-width="2" d="M1500,-180C1500,-180 1453,-180 1453,-180 1447,-180 1441,-174 1441,-168 1441,-168 1441,-156 1441,-156 1441,-150 1447,-144 1453,-144 1453,-144 1500,-144 1500,-144 1506,-144 1512,-150 1512,-156 1512,-156 1512,-168 1512,-168 1512,-174 1506,-180 1500,-180"/>
<text text-anchor="middle" x="1476.5" y="-159.5" font-family="sans" font-size="10.00">pastml_itol</text>
</g>
<!-- 52&#45;&gt;74 -->
<g id="edge153" class="edge">
<title>52&#45;&gt;74</title>
<path fill="none" stroke="grey" stroke-width="2" d="M1436.6,-215.7C1442.89,-207.39 1450.55,-197.28 1457.46,-188.14"/>
<polygon fill="grey" stroke="grey" stroke-width="2" points="1460.3,-190.19 1463.55,-180.1 1454.72,-185.96 1460.3,-190.19"/>
</g>
<!-- 53&#45;&gt;52 -->
<g id="edge117" class="edge">
<title>53&#45;&gt;52</title>
<path fill="none" stroke="grey" stroke-width="2" d="M1464.9,-287.7C1458.38,-279.39 1450.43,-269.28 1443.25,-260.14"/>
<polygon fill="grey" stroke="grey" stroke-width="2" points="1445.87,-257.81 1436.94,-252.1 1440.37,-262.13 1445.87,-257.81"/>
</g>
<!-- 53&#45;&gt;74 -->
<g id="edge152" class="edge">
<title>53&#45;&gt;74</title>
<path fill="none" stroke="grey" stroke-width="2" d="M1478.26,-287.87C1477.92,-263.67 1477.29,-219.21 1476.89,-190.39"/>
<polygon fill="grey" stroke="grey" stroke-width="2" points="1480.38,-190.14 1476.74,-180.19 1473.38,-190.24 1480.38,-190.14"/>
</g>
<!-- 54&#45;&gt;53 -->
<g id="edge118" class="edge">
<title>54&#45;&gt;53</title>
<path fill="none" stroke="grey" stroke-width="2" d="M1481.51,-359.7C1481.07,-351.98 1480.54,-342.71 1480.05,-334.11"/>
<polygon fill="grey" stroke="grey" stroke-width="2" points="1483.54,-333.89 1479.48,-324.1 1476.55,-334.29 1483.54,-333.89"/>
</g>
<!-- 55&#45;&gt;0 -->
<g id="edge11" class="edge">
<title>55&#45;&gt;0</title>
<path fill="none" stroke="grey" stroke-width="2" d="M244.2,-74.05C249.03,-73.27 253.83,-72.57 258.5,-72 505.5,-41.73 1304.71,-23.57 1487.17,-19.75"/>
<polygon fill="grey" stroke="grey" stroke-width="2" points="1487.41,-23.25 1497.33,-19.54 1487.26,-16.25 1487.41,-23.25"/>
</g>
<!-- 56&#45;&gt;0 -->
<g id="edge12" class="edge">
<title>56&#45;&gt;0</title>
<path fill="none" stroke="grey" stroke-width="2" d="M1561.39,-71.7C1555.63,-63.47 1548.64,-53.48 1542.29,-44.42"/>
<polygon fill="grey" stroke="grey" stroke-width="2" points="1545.08,-42.29 1536.47,-36.1 1539.34,-46.3 1545.08,-42.29"/>
</g>
<!-- 57&#45;&gt;0 -->
<g id="edge13" class="edge">
<title>57&#45;&gt;0</title>
<path fill="none" stroke="grey" stroke-width="2" d="M1805.66,-74.87C1800.87,-73.89 1796.11,-72.93 1791.5,-72 1709.59,-55.48 1613.45,-36.5 1561.82,-26.33"/>
<polygon fill="grey" stroke="grey" stroke-width="2" points="1562.29,-22.86 1551.8,-24.36 1560.94,-29.73 1562.29,-22.86"/>
</g>
<!-- 58&#45;&gt;0 -->
<g id="edge14" class="edge">
<title>58&#45;&gt;0</title>
<path fill="none" stroke="grey" stroke-width="2" d="M2514.75,-73.24C2511.97,-72.79 2509.21,-72.37 2506.5,-72 2140.81,-22.1 1692.5,-18.68 1561.86,-18.83"/>
<polygon fill="grey" stroke="grey" stroke-width="2" points="1561.59,-15.33 1551.6,-18.85 1561.61,-22.33 1561.59,-15.33"/>
</g>
<!-- 59&#45;&gt;0 -->
<g id="edge15" class="edge">
<title>59&#45;&gt;0</title>
<path fill="none" stroke="grey" stroke-width="2" d="M2815.76,-73.2C2812.98,-72.75 2810.22,-72.35 2807.5,-72 2557.15,-39.45 1745.54,-23.01 1561.74,-19.65"/>
<polygon fill="grey" stroke="grey" stroke-width="2" points="1561.57,-16.15 1551.51,-19.47 1561.45,-23.15 1561.57,-16.15"/>
</g>
<!-- 60&#45;&gt;0 -->
<g id="edge16" class="edge">
<title>60&#45;&gt;0</title>
<path fill="none" stroke="grey" stroke-width="2" d="M739.25,-73.29C742.03,-72.82 744.79,-72.39 747.5,-72 1029.82,-31.44 1374.44,-21.74 1487,-19.58"/>
<polygon fill="grey" stroke="grey" stroke-width="2" points="1487.23,-23.07 1497.16,-19.39 1487.1,-16.08 1487.23,-23.07"/>
</g>
<!-- 61&#45;&gt;0 -->
<g id="edge17" class="edge">
<title>61&#45;&gt;0</title>
<path fill="none" stroke="grey" stroke-width="2" d="M438.24,-73.22C441.03,-72.77 443.79,-72.36 446.5,-72 851.49,-17.73 1348.73,-17.46 1487.19,-18.57"/>
<polygon fill="grey" stroke="grey" stroke-width="2" points="1487.24,-22.07 1497.27,-18.66 1487.3,-15.07 1487.24,-22.07"/>
</g>
<!-- 62&#45;&gt;0 -->
<g id="edge18" class="edge">
<title>62&#45;&gt;0</title>
<path fill="none" stroke="grey" stroke-width="2" d="M1040.28,-73.44C1043.05,-72.93 1045.8,-72.45 1048.5,-72 1210.81,-45.12 1406.58,-28.13 1487.12,-21.8"/>
<polygon fill="grey" stroke="grey" stroke-width="2" points="1487.56,-25.28 1497.26,-21.01 1487.02,-18.3 1487.56,-25.28"/>
</g>
<!-- 63&#45;&gt;0 -->
<g id="edge19" class="edge">
<title>63&#45;&gt;0</title>
<path fill="none" stroke="grey" stroke-width="2" d="M2106.76,-74.32C2101.94,-73.48 2097.16,-72.69 2092.5,-72 1893.43,-42.42 1652.51,-26.4 1561.61,-21.06"/>
<polygon fill="grey" stroke="grey" stroke-width="2" points="1561.72,-17.56 1551.53,-20.47 1561.31,-24.55 1561.72,-17.56"/>
</g>
<!-- 64&#45;&gt;0 -->
<g id="edge20" class="edge">
<title>64&#45;&gt;0</title>
<path fill="none" stroke="grey" stroke-width="2" d="M1414.97,-71.88C1437.13,-61.18 1465.59,-47.44 1487.94,-36.65"/>
<polygon fill="grey" stroke="grey" stroke-width="2" points="1489.63,-39.72 1497.12,-32.22 1486.59,-33.42 1489.63,-39.72"/>
</g>
<!-- 65&#45;&gt;0 -->
<g id="edge21" class="edge">
<title>65&#45;&gt;0</title>
<path fill="none" stroke="grey" stroke-width="2" d="M320.83,-144C298.9,-124.81 270.93,-93.48 291.5,-72 333.91,-27.73 1286.28,-20.25 1487.41,-19.17"/>
<polygon fill="grey" stroke="grey" stroke-width="2" points="1487.49,-22.67 1497.48,-19.12 1487.46,-15.67 1487.49,-22.67"/>
</g>
<!-- 66&#45;&gt;0 -->
<g id="edge22" class="edge">
<title>66&#45;&gt;0</title>
<path fill="none" stroke="grey" stroke-width="2" d="M1713.25,-147.25C1730.2,-138.71 1748.83,-125.89 1758.5,-108 1766.11,-93.93 1768.49,-84.5 1758.5,-72 1734.28,-41.68 1621.37,-27.42 1561.69,-21.9"/>
<polygon fill="grey" stroke="grey" stroke-width="2" points="1561.82,-18.4 1551.55,-21 1561.2,-25.37 1561.82,-18.4"/>
</g>
<!-- 67&#45;&gt;0 -->
<g id="edge23" class="edge">
<title>67&#45;&gt;0</title>
<path fill="none" stroke="grey" stroke-width="2" d="M2038.22,-143.78C2056.05,-124.39 2078.41,-92.88 2059.5,-72 2026.12,-35.15 1677.6,-22.92 1561.73,-19.86"/>
<polygon fill="grey" stroke="grey" stroke-width="2" points="1561.66,-16.36 1551.57,-19.6 1561.48,-23.36 1561.66,-16.36"/>
</g>
<!-- 68&#45;&gt;0 -->
<g id="edge24" class="edge">
<title>68&#45;&gt;0</title>
<path fill="none" stroke="grey" stroke-width="2" d="M2576.16,-156.01C2604.63,-149.95 2642.74,-136.7 2661.5,-108 2670.25,-94.61 2672.55,-83.57 2661.5,-72 2622.67,-31.31 1753.44,-21.08 1561.7,-19.31"/>
<polygon fill="grey" stroke="grey" stroke-width="2" points="1561.59,-15.81 1551.56,-19.22 1561.53,-22.81 1561.59,-15.81"/>
</g>
<!-- 69&#45;&gt;0 -->
<g id="edge25" class="edge">
<title>69&#45;&gt;0</title>
<path fill="none" stroke="grey" stroke-width="2" d="M2877.16,-156.01C2905.63,-149.95 2943.74,-136.7 2962.5,-108 2971.25,-94.61 2973.6,-83.52 2962.5,-72 2912.45,-20.07 1782.19,-18.7 1561.62,-18.93"/>
<polygon fill="grey" stroke="grey" stroke-width="2" points="1561.52,-15.43 1551.53,-18.94 1561.53,-22.43 1561.52,-15.43"/>
</g>
<!-- 70&#45;&gt;0 -->
<g id="edge26" class="edge">
<title>70&#45;&gt;0</title>
<path fill="none" stroke="grey" stroke-width="2" d="M882.05,-143.94C877.93,-123.8 874.92,-90.68 893.5,-72 935.45,-29.83 1357.42,-21.08 1486.91,-19.38"/>
<polygon fill="grey" stroke="grey" stroke-width="2" points="1487.17,-22.88 1497.13,-19.26 1487.08,-15.88 1487.17,-22.88"/>
</g>
<!-- 71&#45;&gt;0 -->
<g id="edge27" class="edge">
<title>71&#45;&gt;0</title>
<path fill="none" stroke="grey" stroke-width="2" d="M624.89,-143.9C601.41,-124.91 571.69,-94.03 592.5,-72 623.72,-38.95 1316.55,-23.11 1486.91,-19.71"/>
<polygon fill="grey" stroke="grey" stroke-width="2" points="1487.21,-23.21 1497.14,-19.51 1487.08,-16.21 1487.21,-23.21"/>
</g>
<!-- 72&#45;&gt;0 -->
<g id="edge28" class="edge">
<title>72&#45;&gt;0</title>
<path fill="none" stroke="grey" stroke-width="2" d="M1179.34,-143.69C1176.77,-123.61 1176.1,-90.87 1194.5,-72 1234.54,-30.93 1409.55,-21.69 1487.18,-19.6"/>
<polygon fill="grey" stroke="grey" stroke-width="2" points="1487.55,-23.1 1497.47,-19.36 1487.38,-16.1 1487.55,-23.1"/>
</g>
<!-- 73&#45;&gt;0 -->
<g id="edge29" class="edge">
<title>73&#45;&gt;0</title>
<path fill="none" stroke="grey" stroke-width="2" d="M2299.17,-151.61C2321.03,-143.8 2347.28,-130.28 2360.5,-108 2368.66,-94.24 2371.45,-83.67 2360.5,-72 2332.8,-42.49 1721,-24.22 1561.99,-19.96"/>
<polygon fill="grey" stroke="grey" stroke-width="2" points="1561.85,-16.46 1551.76,-19.69 1561.66,-23.46 1561.85,-16.46"/>
</g>
<!-- 74&#45;&gt;0 -->
<g id="edge30" class="edge">
<title>74&#45;&gt;0</title>
<path fill="none" stroke="grey" stroke-width="2" d="M1478.65,-143.86C1481.28,-125.62 1486.54,-96.14 1495.5,-72 1498.9,-62.86 1503.65,-53.36 1508.33,-44.98"/>
<polygon fill="grey" stroke="grey" stroke-width="2" points="1511.51,-46.47 1513.5,-36.06 1505.46,-42.95 1511.51,-46.47"/>
</g>
</g>
</svg>
